<?xml version="1.0" encoding="UTF-8"?>
<!-- Created with Inkscape (http://www.inkscape.org/) -->
<svg width="2162.7" height="2617.3" version="1.1" viewBox="0 0 2162.7 2617.3" xmlns="http://www.w3.org/2000/svg" xmlns:cc="http://creativecommons.org/ns#" xmlns:dc="http://purl.org/dc/elements/1.1/" xmlns:rdf="http://www.w3.org/1999/02/22-rdf-syntax-ns#">
 <metadata>
  <rdf:RDF>
   <cc:Work rdf:about="">
    <dc:format>image/svg+xml</dc:format>
    <dc:type rdf:resource="http://purl.org/dc/dcmitype/StillImage"/>
    <dc:title/>
   </cc:Work>
  </rdf:RDF>
 </metadata>
 <path d="m1190 2251.4c-5.8784-1.1696-13.282-1.5843-20-1.1203-9.6743 0.6684-10.901 0.4756-13.189-2.0715-3.1682-3.5277-5.2144-15.142-8.7818-49.845-6.6447-64.64-7.0144-70.321-5.8344-89.669 0.6262-10.267 1.1643-48.367 1.1959-84.667 0.038-43.409 0.6045-70.108 1.6557-78 2.0156-15.133 2.0602-36.702 0.1112-53.841l-1.5089-13.27-12.824-0.7708c-14.139-0.8499-39.259-2.9458-58.824-4.908-6.9667-0.6988-25.998-1.8102-42.292-2.4698-16.294-0.6597-30.342-1.6421-31.217-2.183-4.5922-2.8382-145.54-5.7799-162.01-3.3815-24.13 3.5129-90.103 0.8951-95.76-3.7999-2.4452-2.0293-2.7592-1.3712-12.064 25.29-3.455 9.9-8.0969 22.5-10.315 28-5.099 12.642-16.185 47.814-19.042 60.412-3.2853 14.489-9.9566 35.825-21.134 67.588-5.5481 15.767-11.085 33.167-12.305 38.667-1.9629 8.8508-14.562 46.754-29.916 90-2.864 8.0667-5.816 17.106-6.5601 20.087-3.1913 12.785-12.286 14.878-40 9.2083-16.027-3.279-19.741-3.5868-34.667-2.8724-9.1942 0.44-20.483 1.7829-25.087 2.9844-7.7194 2.0144-8.6268 2.0162-11.667 0.024-3.8722-2.5372-4.0328-4.8239-1.2236-17.432 1.1438-5.1334 2.9478-13.233 4.009-18 3.0834-13.851 23.076-76.69 28.829-90.613 8.752-21.182 12.899-32.844 35.812-100.72 7.1792-21.267 17.34-50.34 22.579-64.607 9.3177-25.375 19.141-57.304 29.553-96.059 2.8569-10.633 9.1676-31.033 14.024-45.333 4.8562-14.3 12.348-36.375 16.648-49.056 4.3002-12.681 9.2969-25.974 11.104-29.539 4.9513-9.7708 15.629-37.252 22.046-56.738 3.1392-9.5333 10.166-26.266 15.616-37.182 5.4493-10.917 11.08-23.644 12.513-28.283 1.4327-4.6385 4.082-11.606 5.8872-15.484 4.1693-8.9556 4.1289-9.8862-0.4691-10.806-4.7314-0.9462-17.509-15.587-22.867-26.2-2.0946-4.1493-7.4494-12.007-11.9-17.461l-8.0913-9.9166-8.349-0.6667c-4.5919-0.3667-16.449-0.2577-26.349 0.242s-30.3 1.2956-45.333 1.7685c-15.818 0.4976-31.379 1.7102-36.937 2.8779-11.044 2.3205-15.777 1.6629-20.667-2.8713-8.8867-8.2402-28.34-38.069-29.894-45.837-0.45076-2.2538-0.36618-5.1664 0.18797-6.4722 0.55416-1.306 1.1433-5.0746 1.3092-8.3746 0.27496-5.4688 1.5408-11.572 7.7429-37.333 1.1476-4.7667 3.0189-13.467 4.1584-19.333 1.1395-5.8667 3.2882-15.164 4.7749-20.66 1.4866-5.4966 3.2656-16.297 3.9534-24 1.1437-12.812 6.236-46.161 7.3183-47.928 0.92596-1.5117 8.6868-39.839 10.68-52.745 2.4926-16.138 7.7208-39.09 11.997-52.667 5.439-17.27 9.8379-33.938 11.473-43.472 0.86722-5.0571 2.6784-12.195 4.0249-15.861 1.3465-3.6667 3.6362-11.767 5.0882-18 1.452-6.2334 3.5722-13.955 4.7115-17.159 3.9954-11.236 8.8025-35.941 11.449-58.841 2.8378-24.553 3.4969-27.692 12.597-60 3.2018-11.367 7.7132-28.167 10.025-37.333 11.874-47.073 14.482-55.954 32.105-109.33 5.6898-17.233 14.9-49.499 20.467-71.701 5.567-22.202 11.948-45.602 14.181-52s6.1474-20.633 8.7-31.633 6.9938-26.9 9.8693-35.333c2.8755-8.4333 6.1502-21.144 7.2772-28.245 1.127-7.1015 3.554-17.601 5.3934-23.333 1.8394-5.7319 3.9676-16.122 4.7292-23.088 0.76166-6.9667 3.1014-18.967 5.1995-26.667 2.098-7.7 4.5472-17.6 5.4425-22 0.89534-4.4 3.5969-13.7 6.0034-20.667 10.115-29.281 12.833-38.965 13.935-49.648 1.9643-19.039 6.3063-25.448 15.088-22.272 3.2778 1.1853 19.64 1.1628 68.956-0.0949 35.562-0.90689 73.059-2.0476 83.325-2.5348 24.022-1.1401 72.158 0.78986 80.221 3.2164 5.3393 1.6069 6.5115 1.5816 9.2289-0.19884 1.712-1.1218 3.4706-3.1672 3.908-4.5454 1.5059-4.7445 8.441-5.2574 41.814-3.0924 36.128 2.3438 80.873 2.8301 115.26 1.2527l23.768-1.0902-0.7667-3.0547c-1.2558-5.0033 2.7471-22.391 7.1733-31.159 2.2699-4.4965 5.5506-14.199 7.2904-21.561l3.1635-13.386-3.1602-1.2015c-1.7382-0.66084-9.9276-2.4231-18.199-3.9161-8.2712-1.493-19.455-3.6813-24.853-4.8628-9.4005-2.0576-9.9203-2.0423-12.325 0.36228-1.3808 1.3808-3.9882 7.6073-5.7941 13.837-4.4203 15.247-12.537 35.176-23.872 58.617-2.1652 4.4774-8.1063 5.2351-10.211 1.3022-1.8141-3.3896 0.194-13.615 4.2635-21.711 4.6741-9.2987 12.888-33.434 15.744-46.258 3.7608-16.891 4.3694-18.116 10.57-21.279 6.3616-3.2454 12.245-3.4309 24.773-0.78114 5.1334 1.0857 16.833 3.2696 26 4.853 27.41 4.7348 37.339 9.7388 37.328 18.813 0 2.4167-1.2833 6.4908-2.8456 9.0538-1.5624 2.5629-4.1684 9.4629-5.7913 15.333-1.6228 5.8704-4.7716 14.274-6.9973 18.674s-4.7845 11.6-5.6864 16c-0.9018 4.4-2.1706 9.007-2.8196 10.238-1.0207 1.936-0.1462 2.3493 6.4827 3.0634 4.2143 0.454 15.082 2.0189 24.15 3.4775 10.57 1.7002 19.184 2.3632 24 1.8474 4.1317-0.44254 16.812-0.23612 28.179 0.4587 21.077 1.2884 29.914 3.4013 31.499 7.5316 1.7926 4.6711-1.0177 11.664-7.0396 17.516-3.3204 3.2271-5.232 5.9252-4.248 5.9958 0.984 0.0707 21.889 0.22799 46.456 0.3496 42.339 0.20959 45.084 0.37332 52.667 3.1421 10.996 4.0148 27.225 6.1249 49.333 6.4143 10.267 0.1344 30.667 1.573 45.333 3.1968 27.902 3.0892 50.635 4.927 80.39 6.499l17.724 0.93635 4.2762 4.7838c2.3519 2.6311 8.645 8.013 13.985 11.96 7.7409 5.7217 10.428 8.6705 13.258 14.55 1.9543 4.0598 3.5741 9.7702 3.6044 12.707 0.031 2.9333-3.0487 18.533-6.8423 34.667-3.7934 16.133-8.503 36.833-10.466 46-4.4013 20.558-5.8128 25.494-11.653 40.755-2.5442 6.6484-5.0649 14.748-5.6013 18-0.5365 3.2516-2.3808 9.2794-4.0984 13.395-1.7176 4.1158-3.7788 12.816-4.5804 19.333-1.7412 14.157-4.2675 25.661-8.6051 39.183-3.8265 11.929-17.112 80.704-19.962 103.33-1.1081 8.8-3.5767 28.9-5.4856 44.667-1.9091 15.767-3.9961 31.067-4.6381 34-0.6419 2.9333-2.12 13.733-3.2847 24-1.1647 10.267-2.6849 21.967-3.3783 26-0.6933 4.0333-2.1768 15.733-3.2965 26-1.1199 10.267-4.1013 27.367-6.6257 38-2.5244 10.633-5.5518 27.263-6.7274 36.954-1.1757 9.6914-3.3069 21.84-4.736 26.997-1.429 5.157-4.1456 16.704-6.0365 25.661-1.8911 8.9564-5.4384 22.908-7.8829 31.003-2.4446 8.0953-5.0816 18.203-5.8603 22.462-0.7785 4.2591-1.7024 8.2078-2.0528 8.7749-0.8951 1.4482-9.6219 35.689-10.742 42.148-0.5088 2.9334-3.036 10.733-5.6161 17.333-2.7006 6.9082-6.0244 19.355-7.8334 29.333-8.0138 44.205-15.854 79.904-19.965 90.908-2.7079 7.2479-10.193 36.927-26.84 106.43-3.5093 14.65-5.078 24.827-5.8649 38.046-0.5908 9.9252-2.0088 22.525-3.151 28-1.1421 5.4748-2.1109 14.454-2.1529 19.954-0.1704 22.319-2.9361 23.853-43.169 23.942-14.617 0.032-31.886-0.6226-38.376-1.4548-6.4898-0.8323-12.121-1.1915-12.514-0.7982-0.3932 0.3932 0.2921 3.9242 1.523 7.8466 1.231 3.9222 2.701 13.084 3.2666 20.36 0.9646 12.409 1.451 14.038 7.85 26.3 6.6316 12.708 16.268 35.585 17.95 42.616 0.4579 1.9129 1.4192 7.6159 2.1365 12.673 0.7172 5.0572 2.7667 13.692 4.5544 19.188 1.7878 5.4965 4.2436 16.294 5.4575 23.994 3.1889 20.229 25.922 89.378 38.226 116.28 2.9211 6.3857 6.7907 17.786 8.5991 25.333 1.8085 7.5476 5.3671 20.923 7.908 29.723 2.5408 8.8 5.492 20.2 6.5581 25.333 4.0496 19.499 18.026 58.104 28.209 77.918 8.6668 16.864 9.894 20.135 9.894 26.376 0 11.977-4.3324 19.667-14 24.848-4.9598 2.658-7.0472 2.8392-29.804 2.588-19.282-0.2128-25.125-0.6988-27.557-2.2923-3.6409-2.3856-17.033-29.131-19.414-38.771-0.9054-3.6667-3.5965-11.167-5.9802-16.667-2.3838-5.5-5.865-15.1-7.736-21.333-9.6264-32.07-11.45-38.694-12.849-46.667-3.093-17.626-9.8022-43.896-16.228-63.542-4.76-14.553-6.9406-23.706-7.792-32.705-1.3121-13.869-13.125-56.322-20.15-72.419-2.2405-5.1333-5.5637-13.833-7.3848-19.333-1.8212-5.5-5.97-15.838-9.2197-22.974-3.2496-7.1356-6.8814-17.336-8.0707-22.667-1.1892-5.3311-3.8339-16.893-5.8771-25.693s-4.0807-18.189-4.5279-20.865c-0.4472-2.6756-2.1473-6.548-3.778-8.6055-4.0995-5.1724-8.5824-17.066-13.351-35.42l-4.0415-15.557-4.1197 0.08c-2.2659 0.044-6.5197-0.8356-9.4531-1.9545-2.9333-1.1189-10.5-2.4511-16.814-2.9604l-11.481-0.926 0.616 6.4375c0.9511 9.9392-1.8916 33.641-5.8493 48.77-4.4192 16.893-4.4592 20.787-1.3194 128.33 2.4537 84.045 2.5383 90.787 2.0903 166.67-0.222 37.594 0.2021 53.617 1.7822 67.333 1.1404 9.9 2.1333 23.873 2.2065 31.052 0.1698 16.678 1.9959 34.199 5.3876 51.695 1.4753 7.6106 3.9201 23.047 5.4329 34.303 1.5128 11.256 3.3097 21.936 3.9931 23.734 2.3451 6.1682 5.2887 20.718 5.3205 26.299 0.017 3.0711 0.6353 7.9839 1.3729 10.917 0.7377 2.9334 1.6432 18.533 2.0124 34.667 0.4805 20.998 1.2563 31.251 2.7303 36.081 2.7584 9.0399 2.0478 15.026-2.1474 18.089-2.8536 2.0837-6.8836 2.5269-28 3.08-17.995 0.4713-27.191 0.1439-34-1.2109zm41.489-14.882 6.8225-0.8198-1.1881-4.8353c-0.6534-2.6595-1.5049-16.535-1.8922-30.835s-1.525-31.1-2.5283-37.333c-1.0032-6.2333-2.1889-14.456-2.6348-18.273-0.4459-3.8169-1.7352-9.5169-2.8652-12.667-1.1299-3.1496-3.7791-17.127-5.8872-31.06-2.108-13.933-5.0591-31.844-6.558-39.802-1.4988-7.9579-3.3466-25.658-4.106-39.333-0.7595-13.675-2.0291-32.064-2.8213-40.864-1.4332-15.918-2.1533-78.822-1.412-123.33 0.2138-12.833-0.6524-59.633-1.9247-104-3.2187-112.23-3.1708-117.27 1.2878-135.24 3.3355-13.445 5.6109-29.853 6.519-47.011 0.3633-6.8627 0.3326-6.9216-4.0248-7.7379-6.0898-1.1406-37.644-3.2489-48.942-3.27-9.0559-0.017-9.2484 0.051-6.4754 2.2863 3.7757 3.0433 4.8646 7.1064 3.1284 11.673-0.9911 2.6068-1.0099 11.945-0.062 31.176 0.7437 15.1 1.6855 78.819 2.0927 141.6 0.6571 101.29 1.0341 116.75 3.3475 137.33 2.9582 26.315 3.2153 40.314 1.0749 58.524-0.8721 7.4187-1.6075 41.392-1.7752 82-0.1651 39.984-0.9273 75.542-1.8006 84-1.0926 10.581-1.1274 19.68-0.125 32.667 2.1805 28.247 7.9313 84.481 9.0789 88.777 1.0097 3.7795 1.301 3.8988 10.278 4.2091 5.0812 0.1757 12.239 0.8552 15.905 1.5099 8.0463 1.4368 28.092 1.7904 37.489 0.6612zm-601.74-95.157c8.7026-25.3 16.98-50.5 18.393-56 4.561-17.745 6.623-24.104 18.806-58 6.5897-18.333 13.189-38.433 14.664-44.667 4.4527-18.807 14.362-51.376 20.638-67.831 16.44-43.102 27.143-76.488 29.059-90.647 1.0566-7.804 4.0893-21.089 6.7395-29.522 2.6502-8.4333 6.8934-24.862 9.4294-36.508 4.7282-21.713 9.118-34.854 20.605-61.682 3.6108-8.4328 7.7444-20.071 9.1858-25.862 1.4414-5.7915 3.6405-12.499 4.8868-14.906 1.2463-2.4065 3.3203-8.2756 4.6089-13.042 1.2886-4.7666 5.4219-17.367 9.1852-28 10.421-29.444 13.18-38.159 16.674-52.667 1.7663-7.3334 4.1223-15.883 5.2356-19l2.0242-5.6667h-64.681l-2.1241 8.3333c-4.4282 17.373-10.971 34.373-21.167 55-5.8 11.733-12.106 26.37-14.013 32.526-4.6932 15.149-19.347 51.162-25.078 61.632-2.5616 4.6797-7.9374 18.108-11.946 29.842-4.0087 11.733-10.651 30.633-14.761 42-4.1096 11.367-9.0127 26.667-10.896 34-1.8831 7.3334-5.1018 19.033-7.1527 26-2.0509 6.9667-7.0724 24.067-11.159 38-6.581 22.438-13.879 43.84-26.144 76.667-2.055 5.5-7.194 20.8-11.42 34-4.2261 13.2-10.606 31.956-14.178 41.68-3.5719 9.7241-6.4946 18.424-6.4948 19.333-5.4e-4 2.2111-7.6627 23.397-15.305 42.32-3.4062 8.4334-8.2227 22.233-10.703 30.667-2.4807 8.4333-6.8511 22.833-9.7121 32-6.277 20.112-11.611 41.112-10.68 42.043 0.37324 0.3732 6.6162 0 13.873-0.8157 15.235-1.7254 30.031-0.8266 45.195 2.7453 5.8667 1.3819 13.349 2.4033 16.628 2.2699l5.9615-0.2427zm832.84-121.26c10.552-2.0366 12.254-9.3502 4.9826-21.409-13.479-22.352-27.721-59.181-34.803-89.999-1.6852-7.3333-5.2001-20.533-7.8109-29.333-2.611-8.8-5.762-20.5-7.0024-26s-4.8514-15.7-8.0244-22.667c-12.906-28.336-33.991-93.227-38.558-118.67-1.7775-9.9-4.4292-21.6-5.8926-26-1.4633-4.4-3.311-12.421-4.1061-17.823-2.052-13.945-7.3983-29.168-16.35-46.552-8.6176-16.736-11.683-26.575-11.704-37.572-0.01-4.0626-0.9079-10.332-2-13.932-1.092-3.5998-1.9855-8.7684-1.9855-11.485 0-4.8664-0.093-4.953-6.1861-5.7882-7.9221-1.0858-35.594-1.1041-38.406-0.025-1.3735 0.5271-1.7154 1.3649-0.9521 2.3333 1.9254 2.4428 5.2704 14.025 7.4378 25.754 1.1683 6.3228 3.9296 14.732 6.5672 20 2.572 5.137 5.8018 14.888 7.4271 22.423 1.5818 7.3334 3.7372 16.333 4.7897 20 1.0526 3.6667 3.1722 12.967 4.7103 20.667 1.743 8.7253 5.0931 19.275 8.8919 28 3.3525 7.7 7.7427 18.8 9.7562 24.667 2.0134 5.8666 5.5285 14.567 7.8112 19.333 2.2826 4.7667 4.1508 9.3871 4.1513 10.268s2.9841 10.966 6.6301 22.413c7.4435 23.369 10.704 37.598 10.704 46.713 0 3.8188 2.0904 12.101 5.4828 21.723 3.0155 8.5528 7.2131 23.051 9.328 32.217 2.1149 9.1667 4.47 18.467 5.2336 20.667 0.7635 2.2 1.9703 8.0971 2.6819 13.104 1.7468 12.293 13.316 51.509 20.521 69.562 3.2196 8.0666 6.2815 16.767 6.8043 19.333s3.6148 9.9837 6.871 16.482c5.5523 11.08 6.1432 11.773 9.4991 11.128 1.9681-0.3783 5.9784-0.2143 8.9117 0.3643 7.2696 1.4338 17.461 1.4753 24.588 0.1zm-321.25-169.26v-10.518l-4.3334-0.6972c-2.3833-0.3835-30.336-0.7474-62.117-0.8086-31.781-0.061-58.293-0.4261-58.915-0.8109-0.6227-0.3848-8.5202-1.3119-17.55-2.0601-9.0298-0.7483-26.618-2.2048-39.085-3.2368-12.467-1.032-28.367-2.8414-35.333-4.021-11.219-1.8996-19.217-1.9861-70-0.758-31.533 0.7627-67.057 1.6914-78.941 2.0638-11.986 0.3757-23.062 0.124-24.874-0.5643-3.1616-1.2021-3.3322-0.9575-5.3541 7.6773-1.1486 4.9055-2.4367 10.119-2.8622 11.586-0.89166 3.073-4.4829 2.8228 48.031 3.3451 19.882 0.1976 35.509-0.2751 41.267-1.2483 20.519-3.4686 131.04-2.5078 162.07 1.4088 6.2333 0.7871 25.433 1.9278 42.667 2.535s39.433 1.8026 49.333 2.6564c16.767 1.4458 41.639 3.2528 51.667 3.7533l4.3334 0.2164zm-0.9026-125.01c-0.1297-52.693-0.6491-110.02-1.1542-127.39l-0.9183-31.587 3.4767-3.2222 3.4767-3.2221-9.6558-0.9784c-5.3107-0.5381-23.156-1.4565-39.656-2.0409s-32.088-1.7274-34.639-2.54-10.201-1.7799-17-2.1495c-6.7986-0.3697-17.911-0.9741-24.694-1.3432l-12.333-0.6711-0.022 14.338c-0.024 16.332-1.3449 31.458-3.9284 45.004-0.9791 5.1333-2.7699 15.333-3.9796 22.667-1.2097 7.3334-3.3889 20.233-4.8426 28.667-1.4537 8.4333-3.7768 21.933-5.1625 30s-3.1243 17.367-3.8637 20.667c-0.73937 3.3-2.3356 12.9-3.5471 21.333-3.7145 25.856-8.3935 53.59-10.46 62-1.0811 4.4-2.3258 11.059-2.766 14.798l-0.80035 6.7982 15.686 1.5426c32.778 3.2236 46.612 3.692 101.02 3.4199l56-0.2801-0.2358-95.806zm-353.1 90.172c18.333-0.6976 46.233-1.8577 62-2.5777 15.767-0.7201 38.65-1.4047 50.851-1.5213l22.184-0.212-0.64065-4.8336c-0.35238-2.6586-3e-3 -9.0336 0.77781-14.167 0.78016-5.1333 2.8928-19.533 4.6948-32 1.802-12.467 3.9322-24.39 4.7339-26.497 0.80171-2.1067 2.3884-10.507 3.526-18.667 1.1376-8.16 2.9586-18.677 4.0467-23.371 2.2482-9.6991 3.8087-20.248 5.8383-39.465 0.77448-7.3333 2.8887-24.295 4.6982-37.692 1.8095-13.397 3.2901-27.881 3.2901-32.186 0-8.5892 3.4146-28.537 5.5763-32.576 2.63-4.9144 1.679-5.0554-59.576-8.8413-23.467-1.4504-46.917-2.9941-52.113-3.4307l-9.446-0.7934-2.885 7.539c-1.5868 4.1466-4.0854 13.338-5.5526 20.426-2.8817 13.922-5.4816 22.385-16.043 52.221-3.764 10.633-8.4963 24.433-10.516 30.667-2.0201 6.2333-4.8872 13.733-6.3713 16.667-1.4841 2.9334-3.072 7.7715-3.5286 10.752-0.4566 2.98-4.8067 14.68-9.6669 26-11.906 27.731-17.141 43.24-20.472 60.648-1.5365 8.0305-4.2438 19.101-6.0162 24.601-3.5368 10.975-8.723 29.549-8.723 31.241 0 0.5888 1.35 0.681 3 0.205s18-1.4362 36.333-2.134zm166.6-8.9782c0.4987-4.95 2.0257-13.2 3.3933-18.333 2.2713-8.5252 4.5202-21.495 10.172-58.667 1.115-7.3334 2.8656-17.533 3.8902-22.667 2.0661-10.352 8.7058-50.971 11.878-72.667 1.1259-7.7 2.9267-19.4 4.0017-26 2.2908-14.065 4.7349-38.746 4.7349-47.816 0-3.4977 0.6211-7.5201 1.3802-8.9385 1.2106-2.2622 0.92384-2.5806-2.3333-2.5907-2.0425 0-6.8636-0.39-10.714-0.8524l-7-0.8408-0.0468 4.5191c-0.0257 2.4854-0.90468 8.419-1.9532 13.186s-1.9274 12.605-1.9532 17.418c-0.0417 7.8051-1.4971 20.503-5.4917 47.915-0.69463 4.7667-1.5904 13.167-1.9906 18.667s-1.5471 13.9-2.5488 18.667c-1.0016 4.7666-3.678 19.167-5.9476 32-2.2696 12.833-5.0356 28.133-6.1466 34-1.1111 5.8666-2.8923 16.367-3.9582 23.333s-2.8144 18.367-3.8854 25.333c-1.071 6.9667-2.3265 15.199-2.7898 18.294-0.46337 3.095-2.0216 7.1264-3.4627 8.9584l-2.6202 3.3312 3.0641 0.6561c1.6853 0.3609 4.2641 0.9101 5.7308 1.2203 1.4667 0.3101 5.1468 0.6334 8.178 0.7185l5.5113 0.1547 0.90674-9zm280.74-258.31c0-0.3517-2.506-1.918-5.5689-3.4805-3.0628-1.5626-8.6128-5.6824-12.333-9.1552l-6.7645-6.3143-27.333-1.612c-15.033-0.8867-36.933-2.182-48.667-2.8787-11.733-0.6966-30.333-1.2196-41.333-1.162-19.002 0.1-41.784-1.8758-69.949-6.0648-6.9946-1.0402-17.518-2.2745-23.384-2.7428-11.48-0.9164-78.97-9.9529-98.667-13.211-6.6-1.0917-21-2.901-32-4.0208-11-1.1196-26.3-2.6829-34-3.474-7.7-0.791-17.9-2.3141-22.667-3.3845-4.7667-1.0705-17.367-3.7356-28-5.9224-10.633-2.1868-29.533-6.7253-42-10.086-23.064-6.2167-42.138-8.8637-43.855-6.086-0.50924 0.824 0.84529 2.356 3.1256 3.5352 3.8458 1.9888 6.475 7.2084 4.908 9.7437-0.40659 0.6579 2.2719 4.742 5.9522 9.0758s8.5845 11.413 10.898 15.732c2.3137 4.3185 6.6818 10.586 9.7069 13.927l5.5002 6.0751 7.7864-1.7425c13.846-3.0984 79.86-3.1462 142.64-0.1027 30.8 1.4928 60.5 3.3303 66 4.0829 14.77 2.0215 76.281 6.5562 89.07 6.5664 6.0886 0 15.089 0.8742 20 1.9318 8.1929 1.7641 26.011 2.7965 106.93 6.1952 15.767 0.6622 35.267 2.0342 43.333 3.0489 16.989 2.1371 20.667 2.4087 20.667 1.5267zm27.214-34.694c1.1786-5.1334 3.4091-12.779 4.9568-16.991 2.5961-7.0651 2.6517-7.9052 0.7181-10.856-2.1212-3.2372-23.252-18.577-31.223-22.665l-4.3334-2.2228 0.011 6.3676c0.015 8.5244-2.5573 37.912-4.1086 46.944-1.1342 6.6036-0.9788 7.527 1.7601 10.458 1.6522 1.7684 6.9041 5.5064 11.671 8.3067 4.7666 2.8004 10.467 6.9874 12.667 9.3048l4 4.2133 0.8691-11.763c0.478-6.4696 1.8333-15.963 3.012-21.096zm154.12 28.779c0-0.6713-3.8973-4.6422-8.6606-8.8242-7.9295-6.9616-13.904-16.08-17.085-26.077-1.0274-3.2286-29.995-4.3982-44.255-1.7869-21.595 3.9548-52.137 6.1596-63.208 4.5632l-4.5412-0.6549-1.6278 7.3333c-2.3868 10.752-3.1243 18.11-1.9979 19.933 0.7704 1.2467 2.3034 1.253 6.8503 0.028 7.0133-1.8896 33.326-0.8524 59.191 2.3334 9.5333 1.1741 27.833 2.5264 40.667 3.005 12.833 0.4787 25.883 0.9822 29 1.119 3.1166 0.1366 5.6666-0.3007 5.6666-0.972zm10.426-22.446c0.8996-5.6833 2.186-13.333 2.8586-17s1.261-12.067 1.3075-18.667c0.063-8.9416 1.3039-17.097 4.8685-32 2.6311-11 6.1416-26.3 7.8011-34 4.6419-21.538 17.568-71.495 21.39-82.667 5.1207-14.969 8.6992-32.076 20.22-96.667 1.1772-6.6 4.0765-17.1 6.4428-23.333s4.7145-14.033 5.2184-17.333 3.0215-14.1 5.5947-24c2.573-9.9 5.5436-22.102 6.6009-27.115 1.0573-5.0133 3.4343-14.071 5.2819-20.129s5.4244-20.372 7.9484-31.809c2.524-11.437 5.5057-23.98 6.6258-27.871 1.1203-3.8918 3.2418-16.376 4.7144-27.743s4.4342-27.292 6.5812-35.39c2.1471-8.098 5.1735-24.898 6.7254-37.333 1.5518-12.435 3.0798-23.51 3.3956-24.61 0.3156-1.1 1.7932-11.3 3.2832-22.667 1.4901-11.367 3.6172-25.73 4.7268-31.92 1.1096-6.1891 3.2224-20.889 4.695-32.667 1.4727-11.778 3.5943-28.614 4.7146-37.414 1.1204-8.8 5.6273-34.6 10.015-57.333 8.3493-43.255 8.388-43.429 13.884-62.667 1.8857-6.6 4.0642-17.1 4.8412-23.333 0.777-6.2333 3.1585-16.663 5.2921-23.177 2.1337-6.5138 3.8795-12.716 3.8795-13.783 0-1.0667 2.4388-8.9372 5.4196-17.49 2.9808-8.5529 6.5122-20.351 7.8477-26.217 1.3353-5.8667 3.3388-14.567 4.4521-19.333 1.1134-4.7667 5.1396-22.991 8.9474-40.498l6.923-31.831-2.3533-5.219c-2.7199-6.0315-12.608-14.142-13.973-11.461-0.4692 0.92172-1.9053 7.6759-3.1915 15.009-1.2861 7.3333-3.1297 16.633-4.0968 20.667-0.967 4.0333-2.7716 13.591-4.01 21.238s-3.0797 16.252-4.0918 19.121c-2.159 6.1192-5.2448 24.5-7.8939 47.021-1.5545 13.216-3.1707 19.581-9.1613 36.084-7.255 19.986-11.485 36.492-11.485 44.818 0 4.4723-14.69 64.821-20.586 84.565-1.7814 5.9663-4.2265 17.366-5.4336 25.333-1.207 7.967-5.4058 29.186-9.3306 47.152-3.9248 17.967-8.0983 40.167-9.2746 49.333-1.1761 9.1667-2.6772 18.767-3.3357 21.333-0.6585 2.5667-2.7932 13.967-4.7439 25.333-1.9505 11.367-5.2605 26.967-7.3554 34.667-2.095 7.7-5.0439 23.031-6.5532 34.069-1.5094 11.038-3.9856 24.538-5.5027 30-1.5171 5.4619-4.4685 18.331-6.5588 28.598s-5.2723 24.367-7.0712 31.333c-1.7989 6.9667-3.6863 16.867-4.194 22-0.8823 8.9188-3.4664 18.158-18.087 64.667-3.5733 11.367-7.4799 24.867-8.6813 30s-3.9116 16.233-6.0227 24.667c-2.1111 8.4333-5.9711 25.533-8.5779 38-2.6068 12.467-5.6176 25.72-6.6905 29.452-1.0731 3.7321-2.8072 12.732-3.8537 20-4.7202 32.782-7.7598 50.131-10.842 61.881-9.2096 35.11-15.235 60.336-16.585 69.431-0.8242 5.5537-3.1779 14.254-5.2307 19.333-3.0812 7.6246-4.3125 9.3056-7.0585 9.6366-6.4708 0.7794-7.2006-2.5548-3.3799-15.442 1.8956-6.394 3.8455-15.226 4.3329-19.626 0.4876-4.4 4.1863-20.9 8.2194-36.667 8.4362-32.981 10.9-44.899 15.022-72.667 3.1632-21.307 3.235-21.689 12.566-66.667 12.48-60.155 22.398-99.674 34.156-136.1 2.1483-6.655 4.5223-17.455 5.2756-24 0.7532-6.5451 2.6027-17 4.1097-23.234 1.5071-6.2333 4.5278-19.733 6.7127-30s5.1369-22.867 6.56-28 3.8091-18.073 5.3023-28.755c1.493-10.682 3.6185-22.682 4.723-26.667 4.2534-15.345 7.0854-27.744 9.2686-40.579 1.2473-7.3333 3.392-18.234 4.766-24.223 1.3738-5.9893 3.1518-16.152 3.951-22.583 1.8134-14.593 5.172-31.599 11.181-56.616 2.566-10.682 5.8612-27.482 7.3226-37.333 1.4615-9.8512 4.1747-23.611 6.0295-30.578 14.115-53.015 18.44-71.737 20.708-89.628 1.6081-12.69 5.0809-25.146 12.742-45.705 3.808-10.219 5.5492-17.849 7.4546-32.667 3.7638-29.268 5.0847-37.437 7.1146-44 1.0206-3.3 2.8581-11.7 4.083-18.667 1.225-6.9667 3.3514-18.067 4.7252-24.667 4.7122-22.636 6.8174-35.26 6.3867-38.295-0.3963-2.7935-1.13-3.0472-9.0977-3.1453-12.62-0.15553-49.662-2.8193-52-3.7395-3.599-1.4162-60.343-6.1369-74-6.1563-15.482-0.022-40.939-3.1166-48.265-5.8673-9.2214-3.4622-12.718-3.7417-58.401-4.6685-33.919-0.68814-46.152-1.369-48.583-2.7043-3.6969-2.0304-4.4384-1.35-15.453 14.18-9.8986 13.956-12.196 14.622-36.797 10.672-10.246-1.6451-25.93-2.466-56.667-2.9661-23.375-0.38026-44.9-0.98154-47.833-1.3362-2.9334-0.35464-17.633-0.0508-32.667 0.67505-24.913 1.203-93.287-0.17409-102.29-2.0602-1.6288-0.34106-3.6687-1.9415-4.533-3.5565-1.8377-3.4337-2.2786-21.893-0.8237-34.483l1.015-8.7844-5.015-1.4982c-10.242-3.0596-64.167-4.7263-98.348-3.0398-17.6 0.86842-53.9 1.6977-80.667 1.8429l-48.667 0.26392-0.8525 9.3333c-0.46886 5.1333-1.7976 12.633-2.9527 16.667-7.0286 24.542-8.9887 31.009-12.124 40-1.9178 5.5-4.3814 13.9-5.4748 18.667-1.0934 4.7667-3.4554 13.767-5.249 20-1.7936 6.2333-3.8593 17.341-4.5905 24.683-0.73114 7.3425-3.1004 19.104-5.265 26.136-2.1646 7.032-4.3445 15.725-4.8442 19.317-1.3665 9.8228-5.4269 25.25-9.7903 37.198-2.1426 5.8667-5.7828 18.941-8.0894 29.054-2.3066 10.113-6.2542 24.213-8.7724 31.333-2.5182 7.1202-8.5104 27.946-13.316 46.279-12.058 46.001-16.88 62.008-31.328 104-7.77 22.583-14.442 44.535-19.347 63.659-3.2458 12.654-7.7305 29.607-9.9659 37.674-10.732 38.727-16.016 61.471-17.969 77.333-3.1585 25.663-7.1743 46.496-11.566 60-4.5261 13.918-9.5968 32.593-13.173 48.512-3.582 15.947-8.9268 35.894-12.052 44.977-3.6749 10.681-9.9294 37.878-13.149 57.178-1.4682 8.8-4.5221 24.1-6.7864 34-6.084 26.6-9.2284 44.29-10.684 60.107-0.71418 7.7589-2.8729 20.059-4.7972 27.333-1.9243 7.2743-4.8566 20.126-6.5161 28.559-2.943 14.956-10.626 45.755-11.946 47.892-0.90822 1.4695 12.813 2.7667 29.795 2.8168 22.401 0.067 54.824 2.398 62.543 4.4979 3.8898 1.0581 17.39 2.6129 30 3.4551s23.95 2.0757 25.199 2.741c2.9479 1.5699 3.134 1.1867 6.238-12.843 1.447-6.5408 3.6061-14.592 4.7979-17.892 1.1918-3.3 2.5247-9.7787 2.9619-14.397 1.2963-13.693 3.831-14.344 34.397-8.8318 11.721 2.1139 27.596 3.7919 42.667 4.5099 13.2 0.6289 28.2 2.0848 33.333 3.2352 12.982 2.9093 39.382 7.0829 51.333 8.1155 5.5 0.475 15.4 1.7354 22 2.8009 6.6 1.0653 24.6 2.538 40 3.2725 45.567 2.1735 82.96 5.3844 100.53 8.6326 15.969 2.952 29.374 4.4504 59.468 6.6474 15.4 1.1243 35.5 2.9295 44.667 4.0116 32.84 3.8767 64.098 6.0783 81.079 5.7104 15.692-0.3397 17.544-0.1306 20.249 2.2927 1.6377 1.4667 3.494 4.0167 4.125 5.6667 0.8367 2.1876 2.2283 3 5.1392 3 2.7717 0 8.5891 3.1116 19.033 10.18 18.116 12.262 20.345 14.205 24.606 21.448 2.4438 4.1547 3.2016 7.1234 2.8927 11.333l-0.4184 5.7042 5.9804 0.4716c7.2902 0.575 36.509-1.9965 51.98-4.5745 20.02-3.3361 50.731-1.6937 57.089 3.0529 2.3676 1.7676 4.3049 5.349 5.9912 11.075 2.1204 7.2 3.7047 9.62 10.618 16.219 4.4692 4.2658 8.4932 7.756 8.9423 7.756 0.4492 0 1.5526-4.65 2.4524-10.333zm-214.43-12.788c0-3.1833 0.5751-10.533 1.278-16.333 0.7029-5.7999 1.5156-16.778 1.8059-24.395l0.5279-13.849-10.444 0.8053c-9.815 0.7569-57.106-2.5695-81.168-5.7091-5.5-0.7177-22.3-2.2578-37.333-3.4226-30.513-2.3643-54.952-5.2303-67.995-7.9739-12.562-2.6427-61.901-7.1539-94.896-8.6768-15.643-0.722-32.042-1.8787-36.442-2.5704s-13.1-1.9216-19.333-2.7332c-27.208-3.5427-41.735-5.7396-57.333-8.6705-10.03-1.8847-24.896-3.4779-37.333-4.0012-12.467-0.5247-27.659-2.155-38.293-4.1094-20.252-3.7222-25.708-4.0276-25.708-1.4388 0 0.9906-1.733 7.7406-3.8511 15-2.1181 7.2596-4.8749 17.699-6.1263 23.199-1.2514 5.5-2.5423 10.672-2.8689 11.493-0.40617 1.0216 3.95 1.7176 13.793 2.2036 10.988 0.5426 18.481 1.8692 31.72 5.6166 9.5333 2.6984 28.733 7.3029 42.667 10.232 13.933 2.9293 27.733 5.8751 30.667 6.5461 2.9333 0.6712 20.933 2.4312 40 3.9112 19.067 1.4802 40.067 3.546 46.667 4.5911 6.6 1.0449 15.9 2.2732 20.667 2.7293 4.7667 0.4563 19.467 2.278 32.667 4.0484s34.463 4.1702 47.25 5.3328c12.788 1.1627 23.662 2.3688 24.166 2.6803 2.4856 1.5361 56.068 5.9539 71.25 5.8743 18.006-0.095 68.111 2.2274 86.667 4.0161 5.8667 0.5655 14.417 1.11 19 1.2099l8.3333 0.1817zm-636.67-30.856c5.1331-1.0873 15.633-1.9777 23.333-1.9788 23.455 0 86.667-3.187 86.667-4.3652 0-0.6085-0.91594-2.5042-2.0354-4.2128-1.4994-2.2882-1.701-3.9861-0.76551-6.4465l1.2699-3.3403-23.568-1.6013c-12.962-0.8807-28.068-2.5416-33.568-3.6908-5.5-1.1491-15.4-2.264-22-2.4775-6.6-0.2134-23.631-0.8045-37.847-1.3133-21.732-0.778-25.674-0.6337-24.761 0.9057 7.5456 12.725 20.976 30.498 23.046 30.498 0.49312 0 5.0964-0.8896 10.229-1.9768zm715.41-1024.4c3.146-4.95 10.168-13.565 15.605-19.145l9.8848-10.145-15.609-0.96119c-8.5848-0.52865-16.04-0.4634-16.566 0.14502-1.5814 1.8266-4.0547 18.185-4.0547 26.818 0 15.245 2.6297 16.05 10.74 3.2887zm-108.16 5.9976c39.187 0.10186 73.45 0.55722 76.14 1.0118l4.8919 0.82648 0.8847-14.418c0.4866-7.9299 1.2265-16.561 1.6443-19.18l0.7595-4.7622-12.451-2.1989c-16.609-2.9331-61.477-5.2808-76.452-4.0003-16.145 1.3806-63.172 0.88538-80.587-0.84858-17.943-1.7866-61.59-4.3615-62.278-3.674-2.6445 2.6445-6.563 43.208-4.3881 45.424 1.2857 1.31 55.983 3.237 68.586 2.4163 6.6-0.42978 44.062-0.69802 83.249-0.59608z"/>
</svg>
