<?xml version="1.0" encoding="UTF-8"?>
<!-- Created with Inkscape (http://www.inkscape.org/) -->
<svg width="3508" height="2480" version="1.1" viewBox="0 0 3508 2480" xmlns="http://www.w3.org/2000/svg" xmlns:cc="http://creativecommons.org/ns#" xmlns:dc="http://purl.org/dc/elements/1.1/" xmlns:rdf="http://www.w3.org/1999/02/22-rdf-syntax-ns#">
 <metadata>
  <rdf:RDF>
   <cc:Work rdf:about="">
    <dc:format>image/svg+xml</dc:format>
    <dc:type rdf:resource="http://purl.org/dc/dcmitype/StillImage"/>
    <dc:title/>
   </cc:Work>
  </rdf:RDF>
 </metadata>
 <path d="m2355 2268.9c-17.875-0.9881-67.825-3.6279-111-5.8661s-86.825-4.51-97-5.0484-36.05-1.8891-57.5-3.0016c-32.922-1.7075-136.53-7.1462-258-13.543-15.95-0.8399-53.525-2.8605-83.5-4.4902s-84.2-4.5518-120.5-6.4937c-75.274-4.0269-196.55-10.611-285-15.473-9.9-0.5441-27.225-1.458-38.5-2.0308-11.275-0.5729-44.575-2.3692-74-3.9918-29.425-1.6227-79.375-4.3054-111-5.9616s-65.375-3.4793-75-4.0514c-9.625-0.572-42.475-2.3645-73-3.9832-58.06-3.079-110.53-7.2466-115.3-9.1576-2.8096-1.1267-5.7028-5.3578-5.7028-8.34 0-2.8534 2.7856-7.0813 5.4721-8.3053 1.4421-0.6571 6.8759-1.1947 12.075-1.1947h9.453l-0.01-5.25c-5e-3 -2.8875-0.66964-15.825-1.4761-28.75s-2.6038-42.175-3.9942-65-4.3258-70.975-6.5231-107c-4.8465-79.458-6.9275-113.85-11.498-190-12.358-205.9-11.237-189.85-13.458-192.68-2.4617-3.1295-2.637-8.0291-0.4014-11.221 1.3738-1.9613 1.5351-3.9837 0.99516-12.472-1.4319-22.51-6.7198-110.3-8.6213-143.13-1.1149-19.25-2.9129-49.625-3.9955-67.5-12.751-210.53-16.036-280.12-13.46-285.11 1.95-3.7756 6.5005-5.4512 10.108-3.7222 1.5486 0.7423 3.3337 2.4704 3.967 3.8404 1.3572 2.9361 6.7344 61.002 8.8892 95.991 0.82987 13.475 2.392 37.775 3.4715 54 3.3812 50.822 3.7276 56.249 16.969 265.84 2.6873 42.538 5.1033 77.558 5.3688 77.824 0.26555 0.2656 1.8151-0.2061 3.4434-1.0481 1.6283-0.842 15.058-5.6451 29.843-10.674 75.594-25.709 179.71-65.104 261.31-98.872 39.107-16.184 99.913-41.96 156.89-66.507 101.12-43.565 155.73-65.123 215.69-85.138 64.815-21.638 102.71-31.035 149.38-37.048l14.382-1.8528-0.6289-10.012c-0.3936-6.2671-0.09-15.068 0.8132-23.527 1.7132-16.055 2.3353-28.316 3.0686-60.486 0.6881-30.188 4.2051-54.848 8.8289-61.905 2.4157-3.6868 8.557-5.2844 13.33-3.4676 7.5529 2.8746 9.7606 12.484 5.4843 23.872-2.9839 7.9464-3.9848 18.911-4.6102 50.5-0.3048 15.4-1.302 36.895-2.216 47.766-1.4194 16.884-1.4772 21.404-0.3962 31 0.6961 6.1787 1.483 13.294 1.7488 15.812 0.6501 6.1587-1.2365 12.626-4.6908 16.08-2.3559 2.3559-3.6872 2.842-7.784 2.842-5.6808 0-9.2258-2.2053-11.198-6.9661-0.8585-2.0727-1.9506-3.0339-3.447-3.0339-1.2047 0-13.863 2.9615-28.129 6.5812s-32.913 8.3117-41.438 10.427c-59.978 14.881-120.97 35.269-196.18 65.574-39.662 15.983-84.132 34.736-165.32 69.719-116.6 50.238-240.41 98.745-342.71 134.26-10.841 3.7642-19.616 6.9364-19.5 7.0493 0.4014 0.3895 145.25 8.1102 231.71 12.35 22.275 1.0924 43.875 2.2305 48 2.5291 7.5335 0.5453 16.021 0.9805 126.5 6.4872 33 1.6449 63.15 3.2344 67 3.5323s47.5 2.559 97 5.0248c49.5 2.4657 111.15 5.5934 137 6.9505 25.85 1.357 73.55 3.8434 106 5.5254 32.45 1.6819 84.2 4.3921 115 6.0227 30.8 1.6305 89.975 4.754 131.5 6.941 41.525 2.1871 79.55 4.2193 84.5 4.516 4.95 0.2966 21.375 1.2013 36.5 2.0103 88.249 4.7205 141.64 7.6023 157.5 8.502 25.752 1.4605 141.13 7.7262 166 9.0148 40.156 2.0806 45.444 2.6242 53 5.4484 7.7723 2.9047 10.5 5.3804 10.5 9.5297 0 4.675-2.7959 6.9011-11.5 9.1561-8.8141 2.2835-6.2343 2.3106-62-0.652-14.85-0.789-40.5-2.125-57-2.969-82.914-4.2411-168.09-8.6346-185.5-9.569-17.102-0.9175-92.372-4.8653-304.5-15.971-31.35-1.6413-69.15-3.6582-84-4.4821-14.85-0.8238-48.15-2.6279-74-4.0089-59.321-3.1692-115.18-6.2041-230-12.497-153.17-8.3944-255.02-13.941-276-15.03-11-0.571-35.75-1.9285-55-3.0166-19.25-1.0882-77.3-4.2229-129-6.9661-51.7-2.7431-102.76-5.8699-113.46-6.9483-10.703-1.0785-19.62-1.8004-19.816-1.6043-0.19606 0.196 0.56359 14.914 1.6881 32.707 4.989 78.938 19.205 304.85 20.096 319.35 0.5406 8.8 3.454 56.05 6.4742 105 3.0202 48.95 5.9772 97.1 6.571 107s1.2607 18.562 1.4819 19.25c0.28776 0.8944 3.3699 1.25 10.835 1.25 5.738 0 31.29 1.1174 56.781 2.4831 58.794 3.1499 95.371 5.0543 133.85 6.9688 16.775 0.8346 33.875 1.7598 38 2.0559s20.775 1.2041 37 2.0177c70.14 3.5175 130.37 6.6125 155 7.9655 14.575 0.8005 53.5 2.8168 86.5 4.4805 33 1.6638 72.6 3.6981 88 4.5207s50.05 2.6253 77 4.006 61.6 3.1889 77 4.0182 53.875 2.8471 85.5 4.4841c67.638 3.501 290.38 15.3 330 17.481 36.549 2.0116 75.975 4.128 112 6.012 16.225 0.8485 40.975 2.198 55 2.9988s38.55 2.1577 54.5 3.0154c94.722 5.0934 97.597 5.3022 109.5 7.9518 14.123 3.1436 16.5 4.6623 16.5 10.541 0 6.4424-2.2816 7.6429-18 9.4704-7.15 0.8313-14.35 1.4544-16 1.3848-1.65-0.07-17.625-0.9352-35.5-1.9233zm80.454-2.3864c-4.5902-4.5903-2.7451-10.568 4.5226-14.653 2.1659-1.2173 4.0696-2.8751 4.2304-3.684 0.1609-0.809-0.077-10.974-0.529-22.59-0.8632-22.191-0.5824-28.177 14.782-315.12 1.9142-35.75 5.7613-107.75 8.549-160 2.7878-52.25 5.6707-105.8 6.4065-119 1.2826-23.008 1.2603-24.129-0.5388-27.118-2.7364-4.5464-2.4974-11.491 0.5188-15.076 2.6812-3.1863 1.488 14.758 11.125-167.31 1.9069-36.025 3.8939-72.914 4.4156-81.974 0.5218-9.0608 0.8275-16.595 0.6795-16.744-0.3051-0.3051-24.033-1.7221-55.116-3.2916-11.55-0.5831-29.1-1.4876-39-2.0098s-58.5-2.9832-108-5.4689c-106.58-5.352-103.14-5.1744-223.5-11.53-51.975-2.7445-133.2-6.9988-180.5-9.4541-89.454-4.6434-92.748-4.8821-131.87-9.5562-21.116-2.5226-24.146-3.1098-26.25-5.086-3.1705-2.9786-3.2003-8.154-0.065-11.29 2.2823-2.2822 2.7202-2.3225 32.75-3.0173 26.062-0.603 37.192-0.3373 77.437 1.8485 25.85 1.4039 81.2 4.3627 123 6.575 146.7 7.7643 226.48 12.056 279 15.008 63.668 3.5794 94.796 5.3007 144.5 7.9907 20.625 1.1162 53.458 2.9019 72.963 3.9681s35.618 1.7834 35.808 1.5937c0.3514-0.3514 1.3623-18.592 10.201-184.06 2.7617-51.7 5.6981-105.66 6.5253-119.92 0.8273-14.254 1.3403-26.08 1.14-26.28-0.2002-0.20025-2.2681 4.262-4.5953 9.9162-17.249 41.908-48.28 77.143-89.201 101.29-88.823 52.405-206.17 38.124-293.56-35.724-12.051-10.183-28.134-27.37-34.807-37.192-3.2088-4.7239-6.1366-8.5889-6.5063-8.5889s-2.8583 2.7826-5.5302 6.1835c-27.874 35.479-81.273 68.412-136.7 84.306-45.218 12.967-99.606 15.238-144.74 6.0435-74.506-15.178-137.59-57.585-171.84-115.51l-5.8687-9.9263-5.8856 8.6645c-20.136 29.643-50.041 60.852-78.406 81.824-60.966 45.075-139.23 60.174-206.95 39.926-45.373-13.566-83.735-40.996-114.7-82.015-12.144-16.086-23.386-36.112-29.433-52.429-1.8488-4.9892-3.6648-9.0712-4.0356-9.0712-0.3707 0-2.8192 3.4417-5.4411 7.6483-21.346 34.248-60.108 74.04-95.94 98.49-32.602 22.245-63.573 35.585-95.433 41.106-17.826 3.0886-41.971 3.0687-58.407-0.048-75.407-14.299-122.66-82.794-122.75-177.94-0.0119-12.431 1.6591-32.699 3.6556-44.341 1.3186-7.6889 1.3091-8.9713-0.0915-12.323-1.7894-4.2826-1.252-7.0201 2.0798-10.595 1.2816-1.375 2.8331-4.7498 3.4478-7.4996 1.9307-8.6367 6.4819-11.263 14.497-8.3644 3.0219 1.0927 3.7102 0.75597 18.071-8.8419 8.2113-5.4878 31.805-20.334 52.43-32.991 44.688-27.425 103.53-63.423 128.5-78.612 9.9-6.0223 29.925-18.255 44.5-27.183s43.825-26.801 65-39.717c21.175-12.916 61.225-37.344 89-54.286s85.15-51.948 127.5-77.792 92.3-56.324 111-67.732 64.375-39.314 101.5-62.013c84.084-51.41 185.77-113.38 222-135.3 24.018-14.529 28.038-16.637 31.747-16.652 3.4291-0.0145 4.9699 0.63168 8 3.3552l3.7529 3.3731 33.5 1.1139c18.425 0.61267 45.875 1.7858 61 2.607 15.125 0.82115 40.55 2.1729 56.5 3.004 109.76 5.7186 165.47 8.713 280 15.048 14.85 0.82143 60.525 3.2907 101.5 5.4873 40.975 2.1966 99.475 5.3435 130 6.9931s82.108 4.3444 114.63 5.9883c32.52 1.6439 93.046 4.7983 134.5 7.0096 70.855 3.7797 120.11 6.3975 235.87 12.537 26.675 1.4148 68.3 3.6253 92.5 4.9123 24.2 1.287 44.255 2.1872 44.567 2.0005 0.3117-0.1867-0.2254-4.2521-1.1936-9.0341-0.9681-4.7821-2.0658-12.197-2.4391-16.477-0.6508-7.4601-0.5722-7.8894 1.898-10.36 2.9434-2.9433 7.1038-3.3608 10.411-1.0446 2.3816 1.6681 10.702 16.281 11.796 20.718 0.3731 1.5125 0.967 2.7522 1.3199 2.755 0.3529 3e-3 6.3905-3.9123 13.417-8.7 14.621-9.9624 18.105-10.89 22.354-5.9492 4.891 5.6861 3.0007 9.1282-11.417 20.791l-11.56 9.3505 4.9237 0.69534c14.024 1.9805 27 5.3041 29.174 7.4725 3.9001 3.8898 2.6271 10.168-2.4618 12.142-3.3093 1.2834-20.876 3.193-29.373 3.193h-6.0061l0.5327 3.25c0.293 1.7875 0.9801 5.95 1.5268 9.25 1.7924 10.819 4.9483 38.655 6.4625 57 4.3182 52.316 5.7138 97.419 5.6935 184-0.023 98.569-2.4907 176.84-9.1749 291-2.0778 35.488-2.6979 45.037-8.4097 129.5-11.606 171.63-16.278 261.29-21.518 413-2.4315 70.399-3.0789 113.43-3.107 206.5-0.044 145.75 2.5325 221.28 8.6481 253.52 2.787 14.692 3.5323 15.662 18.197 23.692 11.382 6.2317 13.952 8.9102 14.852 15.481 0.9263 6.7576-1.3895 11.146-7.6621 14.519-2.85 1.5328-9.9673 5.6736-15.816 9.2019-33.078 19.953-59.661 34.969-93.135 52.609-22.269 11.735-91.377 46.456-107.5 54.009-60.929 28.544-93.948 43.354-156 69.968-17.05 7.3128-52.15 22.166-78 33.007-85.444 35.834-133.82 56.837-178.5 77.5-8.525 3.9425-20.9 9.3396-27.5 11.994s-19.58 8.0142-28.844 11.912c-9.2641 3.8973-18.172 7.086-19.795 7.086-1.8005 0-3.9089-0.9573-5.4062-2.4545zm41.587-35.068c26.269-14.258 79.931-38.068 196.46-87.173 139.56-58.811 187.77-80.21 267.82-118.89 62.486-30.193 130.4-66.471 167.93-89.703 8.8588-5.4838 11.404-7.7129 8.807-7.7129-2.2832 0-13.143-11.489-15.428-16.322-6.2562-13.234-9.8276-40.897-12.61-97.678-4.7815-97.562-3.8746-293.46 2.0022-432.5 4.1083-97.194 7.5129-166.55 12.026-245 2.1863-37.999 3.8719-65.11 9.9475-160 11.513-179.8 15.182-284.19 14.446-411-0.5562-95.936-3.9696-158.13-11.487-209.3-1.075-7.3177-1.9545-13.505-1.9545-13.75 0-2.1544-11.208 5.9465-88.5 63.965-112.85 84.707-169.15 131.52-263.99 219.51-125.03 115.99-200.14 197.93-249.08 271.73-10.364 15.628-23.569 33.01-27.403 36.069-2.401 1.9158-7.7778 1.5307-10.027-0.7182-2.9199-2.9199-2.4884-6.734 2.0513-18.129 5.408-13.574 5.5378-13.808 18.604-33.563 51.747-78.233 122.98-155.83 257.84-280.87 92.619-85.872 163.96-143.73 300.22-243.48 20.956-15.341 24.843-18.561 23-19.051-1.2195-0.32438-8.7423-0.88713-16.717-1.2506s-56.575-2.9004-108-5.6376-145.02-7.6935-208-11.014-134.3-7.1445-158.5-8.4982c-54.17-3.0301-84.455-4.6427-159.5-8.4928-32.175-1.6507-66.825-3.4626-77-4.0265-10.175-0.56386-44.825-2.3692-77-4.0118-299.04-15.267-403.72-21.038-434.5-23.952-11.55-1.0936-22.363-1.997-24.028-2.0077-2.1865-0.014-10.803 4.7498-31 17.138-35.936 22.043-156.07 95.287-213.47 130.15-86.192 52.349-85.795 52.108-192 116.89-46.621 28.436-148.96 90.764-223 135.81-25.025 15.226-66.2 40.283-91.5 55.684-182.85 111.3-191.94 116.78-216.5 130.32-11.275 6.2208-21.229 11.93-22.121 12.688-2.928 2.4878-4.3865 20.901-4.3012 54.301 0.0733 28.698 0.2401 31.402 2.823 45.759 8.3945 46.663 29.727 80.88 62.645 100.48 17.544 10.448 41.201 16.756 62.841 16.756 33.711 7e-4 78.285-15.967 114.11-40.877 40.028-27.831 83.264-76.946 98.784-112.22 3.5323-8.0276 3.6881-8.8451 3.4493-18.097-0.2723-10.546 0.5457-14.012 6.2269-26.385 3.7745-8.221 6.4572-11.056 11.831-12.503 7.5069-2.0214 13.708 1.6478 15.779 9.3355 2.0458 7.5977 1.3617 21.391-1.6002 32.261-3.5544 13.045-3.1337 20.743 1.9691 36.031 9.0106 26.997 26.93 54.998 49.527 77.39 53.388 52.904 128.58 69.527 203.04 44.885 56.52-18.705 108.64-62.867 145.96-123.67l6.3496-10.345-0.2075-11.31c-0.246-13.41 1.1399-19.694 7.3826-33.476 2.3728-5.2383 4.6419-10.649 5.0424-12.024 2.6967-9.2582 7.767-13.626 14.733-12.692 4.7984 0.6436 8.4038 3.8409 9.8774 8.7595 0.9391 3.1345 0.608 5.918-2.2079 18.56-2.1958 9.8582-3.3472 17.738-3.4151 23.372-0.075 6.2098-0.7353 10.251-2.4515 15l-2.3491 6.5 3.1717 7.8982c12.212 30.409 42.36 63.901 77.221 85.785 34.52 21.67 72.179 34.122 115.89 38.321 19.514 1.8741 30.355 1.8738 50.503 0 66.151-6.1578 128.42-34.273 168.57-76.115 16.524-17.22 21.198-26.029 23.446-44.186 2.7542-22.247 8.5854-31.272 20.136-31.166 12.06 0.11103 15.568 12.354 9.8489 34.368-1.375 5.2921-2.5 11.317-2.5 13.388 0 9.1986 12.024 27.144 29.645 44.243 62.86 61.001 153.21 85.636 230.82 62.94 47.764-13.967 84.484-42.401 116.28-90.043 7.7801-11.657 15.239-25.999 23.251-44.709 5.7633-13.459 8.5296-16.766 13.236-15.825 1.5212 0.30424 2.7856 0.22691 2.8097-0.17184 0.024-0.39875 0.4331-4.0879 0.9087-8.1981 0.7238-6.2549 1.2963-7.8442 3.5119-9.75 3.4362-2.9558 7.7018-2.9005 11.23 0.14556l2.8058 2.4225-0.2305 35.17c-0.2061 31.453-1.7758 67.583-7.8629 180.99-6.5632 122.27-8.9221 170.65-8.3537 171.32 0.3817 0.4529 11.888 1.4545 25.57 2.2258 46.371 2.6141 194.34 10.515 317.88 16.972 46.436 2.4274 99.325 5.2652 141.27 7.5798l20.268 1.1185 11.232-2.751c6.1773-1.5131 13.706-4.0366 16.732-5.6078 10.802-5.6104 19-2.8251 19 6.4548v4.4068l8.8287 0.5034c9.5741 0.5459 13.047 2.0109 15.017 6.3351 2.7313 5.9946 0.733 12.054-4.9434 14.989-2.6793 1.3856-5.9132 1.3846-32.429-0.01l-29.453-1.549-8.5538 2.9638c-4.7046 1.6301-13.822 4.1209-20.261 5.535-15.716 3.4518-20.645 5.2845-41.707 15.509-9.9 4.806-21.15 9.9438-25 11.417-3.85 1.4735-10.375 4.2187-14.5 6.1004-4.125 1.8816-12.225 5.1842-18 7.3392-5.775 2.1549-17.925 7.3919-27 11.638-9.075 4.2459-22.6 10.549-30.055 14.007-21.821 10.122-37.272 18.082-55.945 28.823-9.625 5.536-30.325 16.336-46 24s-33.765 17.233-40.2 21.266c-14.414 9.0321-19.658 11.692-36.8 18.664-7.425 3.02-22.05 9.5569-32.5 14.526-10.45 4.9697-26.029 12.365-34.62 16.434-22.683 10.744-31.251 15.826-47.775 28.336-16.687 12.634-24.559 17.638-37.856 24.064l-9.25 4.4704v4.281c0 2.3546-0.4508 12.348-1.0018 22.208-0.551 9.8595-2.5841 48.301-4.5181 85.426-5.7011 109.44-13.355 254.76-13.957 265-0.3072 5.225-1.9077 35.375-3.5565 67-6.2961 120.76-8.9546 163.33-10.959 175.5-2.2288 13.531-2.2255 13.5-1.4165 13.5 0.325 0 6.8277-3.3851 14.45-7.5224zm38.959-659.87c2.475-1.6614 7.8705-5.6913 11.99-8.9552 16.959-13.437 32.291-22.706 54.51-32.952 7.7-3.5511 23.225-10.845 34.5-16.208 11.275-5.3633 26.575-12.222 34-15.242 16.956-6.8962 19.621-8.2516 36.081-18.35 7.3803-4.528 26.019-14.421 41.419-21.984 15.4-7.563 33.175-16.755 39.5-20.427 22.539-13.084 34.813-19.494 58-30.288 12.925-6.0171 30.293-14.136 38.596-18.042s18.653-8.4152 23-10.021 11.954-4.8117 16.904-7.1248 10.678-4.8152 12.728-5.5603c6.6806-2.4274 37.772-17.751 37.772-18.617 0-0.4632-1.9125-0.8475-4.25-0.8539-2.3375-0.01-16.625-0.6726-31.75-1.4805-15.125-0.8078-49.1-2.6068-75.5-3.9977-26.4-1.391-68.7-3.6431-94-5.0047s-72.55-3.8474-105-5.5239c-32.45-1.6766-74.972-3.9133-94.494-4.9706s-35.804-1.6047-36.183-1.2166c-0.5747 0.5892-13.823 243.04-13.823 252.97v3.2518l5.75-3.1919c3.1625-1.7556 7.775-4.5513 10.25-6.2128z"/>
</svg>
