<?xml version="1.0" encoding="UTF-8"?>
<!-- Created with Inkscape (http://www.inkscape.org/) -->
<svg width="2805.3" height="1712" version="1.1" viewBox="0 0 2805.3 1712" xmlns="http://www.w3.org/2000/svg" xmlns:cc="http://creativecommons.org/ns#" xmlns:dc="http://purl.org/dc/elements/1.1/" xmlns:rdf="http://www.w3.org/1999/02/22-rdf-syntax-ns#">
 <metadata>
  <rdf:RDF>
   <cc:Work rdf:about="">
    <dc:format>image/svg+xml</dc:format>
    <dc:type rdf:resource="http://purl.org/dc/dcmitype/StillImage"/>
    <dc:title/>
   </cc:Work>
  </rdf:RDF>
 </metadata>
 <path d="m1202 1547.7c-3.6667-0.6732-29.467-1.403-57.333-1.6215-27.867-0.2187-64.767-0.7696-82-1.2243-17.233-0.4546-45.433-1.1985-62.667-1.653-32.561-0.8587-41.429-0.9611-56-0.6466-4.7667 0.1027-21.154-0.6504-36.415-1.6741-15.716-1.0543-29.881-1.3984-32.667-0.7937-14.718 3.1952-110.08 0.4936-144.25-4.0867-8.1041-1.0863-40.776-1.2943-114.67-0.7303-85.473 0.6526-105.87 1.1635-118 2.9564-13.197 1.9504-20.365 2.0007-71.548 0.5014-31.285-0.9166-57.536-1.2618-58.336-0.7674-0.80003 0.4946-10.303 0.8748-21.119 0.8452-10.815-0.029-31.064 0.5246-44.997 1.2314-47.331 2.4009-86.588 3.9453-117.68 4.6293-29.683 0.6532-31.122 0.5687-33.667-1.9759-1.462-1.462-2.6674-2.2081-2.6786-1.6581-0.06 2.9379-2.6086-3.5844-2.6258-6.7197-0.0425-7.7575 4.5321-13.328 20.87-25.412 26.172-19.359 39.381-27.65 42.777-26.854 2.8014 0.657 3 0.2672 3-5.8868 0-3.6247-0.65586-9.4862-1.4574-13.025-1.7888-7.8981-0.0889-13.246 4.801-15.106 1.8653-0.7092 3.7356-2.1862 4.1562-3.2825 0.42064-1.0961 2.9553-3.3256 5.6325-4.9545 2.6772-1.6288 8.7677-6.0004 13.534-9.7147 4.7667-3.7143 11.186-8.5437 14.265-10.732 6.1614-4.3795 24.363-19.724 37.485-31.601 4.6315-4.1921 16.88-13.74 27.22-21.216 10.339-7.4771 22.983-17.247 28.097-21.711 10.312-9.0016 23.512-19.225 33.629-26.044 3.6511-2.461 9.9892-7.3391 14.085-10.84s14.595-11.006 23.333-16.677c8.738-5.6714 18.587-12.509 21.887-15.194 14.292-11.63 36.78-25.774 53.96-33.937 10.187-4.8404 21.594-11.121 25.35-13.956 3.7554-2.8353 10.097-6.795 14.092-8.7992 3.9955-2.0041 11.464-6.1896 16.598-9.3011 5.1333-3.1114 13.294-7.8217 18.136-10.467 4.8414-2.6456 14.441-8.8737 21.333-13.84 6.8919-4.9665 16.131-10.889 20.531-13.16 24.202-12.496 38.192-20.307 45.333-25.312 4.4-3.0837 11.662-7.4419 16.139-9.6849 5.9109-2.9618 8.6021-5.1965 9.831-8.1633 1.914-4.6209 9.3312-11.62 14.328-13.519 2.707-1.0292 3.145-1.8278 2.3276-4.244-1.7993-5.3182-2.2433-56.957-0.66691-77.566 2.0913-27.341 4.548-45.207 10.694-77.768 10.144-53.749 12.524-63.759 22.11-92.998 4.5721-13.946 9.8785-31.549 11.792-39.118 1.9134-7.5691 4.0715-14.869 4.7957-16.222 0.72423-1.3532 2.1872-6.5982 3.251-11.656 1.0638-5.0573 3.1157-12.447 4.5597-16.421 1.444-3.9744 3.0262-9.3262 3.5161-11.893 0.98918-5.1824 10.459-39.408 21.509-77.737 3.9753-13.789 9.9097-32.239 13.188-41 3.278-8.7613 8.6495-23.119 11.937-31.905 3.2872-8.7866 10.138-25.737 15.223-37.667 5.0857-11.93 11.464-27.091 14.173-33.691 7.1456-17.405 11.715-28.013 16.94-39.333 2.5389-5.5 7.1289-17.2 10.2-26 3.0711-8.8 7.633-21.4 10.138-28 2.5046-6.6 6.3068-17.1 8.4495-23.333 2.1426-6.2333 6.6715-17.487 10.064-25.008 3.3927-7.5213 6.1685-14.288 6.1685-15.038s1.7313-4.7959 3.8474-8.9916c2.116-4.1958 5.1847-12.129 6.8193-17.629 3.3674-11.331 8.9709-23.093 13.721-28.801 5.832-7.0088 6.7788-9.77 4.2924-12.517-1.7982-1.987-2.0536-4.2162-1.4-12.222 1.4004-17.153 4.8184-46.873 6.2632-54.459 0.76818-4.0333 2.1975-12.733 3.1762-19.333 4.9017-33.055 7.3454-44.918 13.046-63.333 3.7252-12.034 1.5524-11.249 36.902-13.331 13.567-0.79894 32.303-2.0724 41.636-2.8298 11.55-0.93731 20.706-0.945 28.667-0.0241 6.4333 0.7442 19.151 1.4189 28.261 1.4993s16.976 0.40081 17.48 0.71204 19.15 0.88905 41.436 1.284 50.12 1.4024 61.854 2.2386c23.687 1.6882 83.885-0.10854 119.33-3.5617 32.298-3.1463 48.507-3.5197 228.16-5.2552 20.252-0.19565 37.352-0.67953 38-1.0753 1.4631-0.89404 31.785-4.5097 53.178-6.3409 8.8-0.75329 22.9-1.956 31.333-2.6727 8.4334-0.71668 19.233-1.8787 24-2.5822 4.7667-0.70352 16.167-1.9181 25.333-2.699 21.546-1.8356 49.165-4.9293 66-7.393 10.543-1.5428 27.705-1.9018 82-1.7151 37.767 0.12987 75.308 0.0874 83.424-0.0944 10.04-0.22485 17.712 0.36544 24 1.8466 9.8298 2.3155 32.798 1.848 43.909-0.89383 14.567-3.5946 99.032-5.8132 297.33-7.8098 149.59-1.5062 164.1-1.4548 199.33 0.70697 31.908 1.9576 42.916 2.1045 68.667 0.91571 17.659-0.81523 37.028-0.96258 45.663-0.34739 8.2481 0.58757 19.648 0.58773 25.333 3.6e-4 14.997-1.5494 37.319-0.0831 38.317 2.517 0.6405 1.6692 1.1417 1.5148 2.8088-0.86522 2.6324-3.7584 6.9002-3.7048 8.6377 0.1084 1.09 2.3923 0.1577 6.812-4.5701 21.667-3.2667 10.264-8.1431 26.761-10.836 36.661-2.6932 9.9-10.807 36.3-18.03 58.667-18.863 58.407-27.653 86.093-34.08 107.33-5.761 19.041-23.345 69.007-26.474 75.228-3.4985 6.9563-39.579 116.19-46.056 139.44-3.6779 13.2-7.9162 28.2-9.4184 33.333-4.1979 14.345-10.73 39.103-12.664 48-5.0346 23.16-8.3432 35.334-21.562 79.333-1.8728 6.2333-6.7031 24.233-10.734 40-12.358 48.337-14.652 56.923-18.071 67.649-1.815 5.693-5.5544 19.051-8.31 29.684s-7.0226 26.118-9.4822 34.411c-2.4596 8.2926-4.4609 16.093-4.4473 17.333 0.013 1.2407-2.0347 10.356-4.5516 20.256-5.0056 19.689-8.3085 37.226-9.5425 50.667-1.5238 16.597-7.63 44.67-15.27 70.201l-3.6509 12.201 3.8441 0.7689c5.7016 1.1403 21.938 17.866 23.701 24.415 1.9012 7.0602 2.0264 45.573 0.1858 57.08-1.8652 11.66-4.6543 20.418-9.7403 30.587-2.1789 4.3561-4.81 10.777-5.8471 14.269-2.3357 7.8652-16.579 27.036-23.82 32.062-7.7684 5.3911-13.539 6.5716-34.564 7.07-15.096 0.3579-20.426 1.0151-26.806 3.3048-4.3802 1.5719-17.57 5.7886-29.312 9.3704-22.511 6.8672-25.808 8.2451-63.986 26.743-13.2 6.3956-28.5 13.529-34 15.851s-14.456 6.6639-19.903 9.6475c-5.4468 2.9835-16.447 7.7589-24.445 10.612-7.998 2.853-23.942 9.5941-35.43 14.98-19.863 9.312-31.496 14.177-38.888 16.262-1.8333 0.5172-8.2369 3.2311-14.23 6.0308-5.9932 2.7997-14.467 6.5931-18.83 8.4295-4.3632 1.8365-16.891 7.8297-27.84 13.318-20.477 10.265-48.824 22.96-61.766 27.662-11.688 4.2461-31.034 11.975-34.667 13.85-1.8333 0.9462-14.733 7.232-28.667 13.969-30.817 14.9-47.481 21.979-105.33 44.746-16.133 6.349-34.133 13.943-40 16.874s-13.556 6.4697-17.088 7.8617c-3.5316 1.3922-9.5316 4.4928-13.333 6.8906-3.8019 2.3977-11.112 6.3661-16.246 8.8188-5.1333 2.4526-18.333 8.8336-29.333 14.18-11 5.3463-22.55 10.466-25.667 11.377-3.9821 1.1643-5.6666 2.3776-5.6666 4.0816 0 1.3337-1.5478 3.4391-3.4394 4.6784-3.0592 2.0045-4.7908 2.0843-15.667 0.7224-21.496-2.6919-30.983-2.9765-95.561-2.868-89.466 0.1505-112.85 0.6129-122.12 2.4147-7.6375 1.4849-48.525 2.814-104.55 3.3981-13.567 0.1415-34.567 0.6753-46.667 1.1864-37.614 1.5885-83.027 1.9025-90 0.6223zm106-13.007c7.7152-0.9205 19.703-1.1655 30.667-0.6268 11.09 0.5451 21.071 0.3337 26-0.5503 9.5389-1.7108 9.329-1.703 40.926-1.5173 16.683 0.097 30.131-0.5816 40.667-2.0555 10.703-1.497 19.853-1.9473 28.588-1.4066 7.523 0.4657 16.088 0.1765 20.667-0.6978 4.3011-0.821 8.42-1.4282 9.1533-1.3494 0.7334 0.079 31.633 0.4053 68.667 0.7252 58.633 0.5066 86.013 1.7345 94.777 4.2501 1.2964 0.3721 2.6672-0.6157 3.5533-2.5604 1.117-2.4515 2.7826-3.3173 7.3775-3.8352 3.2643-0.368 10.065-2.7612 15.114-5.3184 9.0132-4.5659 30.861-15.786 75.845-38.951 12.467-6.4199 28.367-13.962 35.333-16.76 6.9667-2.7978 24.067-9.7133 38-15.368s31.308-12.652 38.609-15.55c7.3017-2.8981 24.102-10.573 37.333-17.056 29.78-14.59 38.965-18.729 56.724-25.561 27.668-10.644 53.047-21.714 74.667-32.568 25.789-12.947 51.891-24.691 73.333-32.993 8.4333-3.2654 22.879-9.5668 32.101-14.003 9.2224-4.4364 23.59-10.577 31.929-13.645 8.3386-3.0684 20.593-8.4806 27.232-12.027 6.6389-3.5465 16.271-8.1988 21.404-10.338 5.1334-2.1395 19.833-8.9945 32.667-15.233 34.084-16.569 37.067-17.79 62.658-25.647 12.838-3.9415 25.923-8.1155 29.077-9.2755 6.8909-2.5343 30.074-5.1322 35.403-3.9674 7.5529 1.6507 18.002-0.6861 23.106-5.1675 7.1317-6.2618 15.189-17.821 19.228-27.586 1.9766-4.7784 5.0706-11.988 6.8755-16.021 8.3572-18.675 11.268-46.945 6.9769-67.768-2.6658-12.938-6.3088-21.338-9.7181-22.41-8.1381-2.5589-12.4-5.1982-13.138-8.1351-0.4438-1.7685-0.1634-3.859 0.6231-4.6456 0.7867-0.7866 1.1035-3.0642 0.704-5.0613-0.4247-2.1236 1.2061-10.761 3.9281-20.806 5.3451-19.723 10.661-47.187 12.873-66.508 2.4297-21.224 7.8609-46.554 18.154-84.667 2.4758-9.1667 6.3406-24.167 8.5887-33.333 2.248-9.1667 5.3577-21.167 6.9104-26.667 5.4107-19.166 13.095-48.841 19.162-74 3.3601-13.933 7.8429-31.033 9.9617-38 11.111-36.531 15.595-52.516 23.314-83.113 4.6558-18.455 10.681-40.754 13.389-49.554 5.8022-18.854 11.581-40.786 10.921-41.447-1.4923-1.4922-21.653 63.943-28.233 91.635-0.9829 4.1369-2.6758 10.437-3.7618 14-1.0862 3.5631-3.0074 11.278-4.2694 17.145-1.2621 5.8667-3.1849 14.567-4.2729 19.333-2.6764 11.725-14.034 50.084-21.12 71.333-7.1732 21.509-13.406 41.909-16.631 54.435-1.3545 5.2608-5.2537 16.765-8.665 25.565-3.4112 8.8-7.9552 24.1-10.098 34s-6.0786 27.3-8.7468 38.667c-2.6683 11.367-5.6016 24.567-6.5184 29.333-2.3247 12.086-11.047 51.662-12.668 57.477-2.5773 9.2469-5.3526 27.324-6.7332 43.857-0.7654 9.1666-2.3073 19.667-3.4262 23.333-1.1191 3.6667-2.6063 12.967-3.3048 20.667-1.2478 13.752-4.0708 31.428-9.2878 58.155-1.448 7.4185-2.9714 21.218-3.3854 30.667-0.4139 9.4481-1.3524 18.427-2.0858 19.953-1.711 3.5605-7.2766 6.8218-16.112 9.4412-3.8567 1.1433-9.112 3.1385-11.679 4.4337s-9.0737 3.3492-14.46 4.5644c-5.3864 1.2151-13.202 3.9299-17.368 6.0329-4.166 2.103-13.859 5.7623-21.54 8.1318-7.681 2.3695-16.365 5.6962-19.299 7.3927-2.9333 1.6965-15.304 6.3839-27.491 10.417-12.846 4.2506-24.746 9.0793-28.318 11.49-3.3882 2.2867-11.216 6.1423-17.395 8.5681s-13.029 5.6879-15.221 7.2493c-2.1926 1.5613-4.3695 2.8387-4.8374 2.8387-0.4678 0-8.1752 3.5301-17.127 7.8447-8.9523 4.3146-23.177 10.046-31.61 12.738-14.576 4.651-42 17.19-75.333 34.445-2.2 1.1388-8.5 4.1625-14 6.7193-5.5 2.5566-15.1 7.057-21.333 10.001-6.2334 2.9436-14.633 6.7136-18.667 8.3779s-9.4333 4.6385-12 6.6097c-2.5667 1.9711-7.6667 5.1316-11.333 7.0234-3.6667 1.8917-8.4667 4.6661-10.667 6.1654-2.2 1.4992-9.7 4.61-16.667 6.913-6.9666 2.3028-13.267 4.6472-14 5.2097-0.7333 0.5625-6.7333 2.6508-13.333 4.6405-6.6 1.9899-19.2 6.9366-28 10.993s-20.8 9.0279-26.667 11.048c-5.8666 2.0205-20.114 8.235-31.661 13.81-11.547 5.5754-26.135 12.265-32.418 14.866-6.2835 2.6011-15.136 6.9834-19.673 9.7383-4.5364 2.7549-12.372 6.7465-17.413 8.8703-5.0406 2.1236-11.819 5.5445-15.063 7.602-3.2443 2.0574-15.62 8.498-27.502 14.312-11.882 5.8144-28.803 14.791-37.603 19.948-19.132 11.212-29.592 14.505-58 18.258-19.355 2.5572-22.145 2.5823-67.14 0.6029-33.29-1.4645-38.28-1.4076-48.14 0.549-11.255 2.2332-23.165 2.2238-78.72-0.063-12.197-0.502-25.406-0.2165-33.855 0.7315-7.6201 0.855-21.12 1.4289-30 1.2753-8.8798-0.1536-31.745-0.1375-50.812 0.036-60.659 0.5512-71.779 0.2493-93.542-2.5399-24.911-3.1926-69.677-4.1466-79.124-1.6864-3.8145 0.9934-18.474 1.5744-40.246 1.5952-21.013 0.02-35.696 0.5838-37.999 1.4591-5.0413 1.9167-99.859 1.8003-133.09-0.1635-13.933-0.8233-35.833-1.313-48.667-1.0882-34.359 0.6018-51.529 0.2293-62-1.3451-15.272-2.2964-39.095-5.3823-53.333-6.9087-59.851-6.4158-64.072-6.6478-147.33-8.1002-75.907-1.324-85.413-1.2479-106.67 0.8542-14.008 1.3856-38.52 2.4792-61.333 2.7364-103.21 1.164-141.07 1.9127-160 3.1632-11.367 0.7511-42.41 2.058-68.985 2.9042-38.586 1.2286-48.725 1.2017-50.333-0.1334-2.3205-1.9258-2.5581-8.705-0.60238-17.188 0.74084-3.2135 1.1126-6.0771 0.82607-6.3635-1.747-1.747-51.892 33.643-53.46 37.729-0.47614 1.2408-0.21259 2.9057 0.58565 3.6997 1.8167 1.8072 61.323 1.3261 71.881-0.5809 3.9847-0.7198 14.485-1.3211 23.333-1.3362 8.8486-0.015 25.088-0.6618 36.088-1.4372 17.082-1.2041 45.595-2.0889 96.667-2.9998 6.2333-0.1107 31.433 0.3097 56 0.9352 38.288 0.9748 46.856 0.8286 60-1.023 9.3392-1.3157 22.109-2.0349 32.667-1.84 9.5333 0.176 55.052-0.112 101.15-0.6408 55.304-0.6341 87.736-0.493 95.333 0.4146 11.028 1.3174 54.93 4.2845 61.181 4.1348 1.65-0.04 6.75 0 11.333 0.085 4.5833 0.087 21.833-0.049 38.333-0.3005 49.229-0.7508 74.139-0.4038 147.33 2.0529 53.091 1.7819 120.83 3.7383 128 3.6965 4.4-0.025 22.1-0.1369 39.333-0.2476 17.233-0.1106 35.233 0.3103 40 0.9351 12.034 1.5776 96.564 0.7647 112-1.0771zm40.245-21.926c17.098-0.1963 36.798 0.1659 43.776 0.8047 8.8536 0.8105 19.933 0.5776 36.667-0.7707 17.571-1.4157 28.612-1.6117 41.313-0.7335 28.786 1.9906 64.671 1.5971 76.39-0.8376 8.5188-1.7698 14.041-1.9409 32.277-1 12.1 0.6244 25.871 0.9624 30.602 0.7514 4.7309-0.2112 12.858 0.2612 18.06 1.0497 9.5298 1.4445 34.695 0.047 38.204-2.122 3.6997-2.2867-5.0568-2.99-38.866-3.122-35.917-0.1401-46.261-1.0059-45.672-3.8228 0.1875-0.8961-1.979-1.9381-5.0516-2.4295-3.0756-0.4917-5.1657-1.4976-4.8798-2.3482 0.329-0.979 5.7058-1.488 15.718-1.488 23.981 0 68.899-1.0226 65.218-1.4847-1.8334-0.2303-23.433-1.3904-48-2.5781-50.897-2.4608-58.875-3.2218-59.698-5.6947-0.4682-1.4069 1.9032-1.602 11.89-0.9776 6.861 0.4291 31.596 1.7119 54.967 2.8509 44.003 2.1446 50.427 3.0336 47.489 6.573-1.1422 1.3764-1.1862 1.9778-0.1448 1.9778 0.8231 0 1.4966 0.6 1.4966 1.3334 0 0.8338-8.8658 1.3826-23.667 1.4652-38.748 0.2158-43.144 2.0984-6 2.5693 17.783 0.2255 33.383 0.4599 34.667 0.5211 2.0745 0.099 2.3748-1.6087 2.7076-15.397 0.4418-18.307 1.4952-17.201-17.041-17.89-6.9666-0.2592-20.767-1.6928-30.667-3.1856-9.9-1.493-26.1-3.0523-36-3.4655-44.126-1.8413-168.6-10.948-191.17-13.987-17.23-2.3195-73.444-4.277-136.16-4.7412-34.467-0.2552-71.967-1.104-83.333-1.8862-23.16-1.5938-86.637-0.8894-104 1.154-35.132 4.1348-137.28 5.3235-149.33 1.7379-2.5667-0.7633-24.767-2.0523-49.333-2.8645-69.847-2.3092-103.72-3.7294-134-5.6174-35.778-2.231-150.24-2.2697-182.67-0.061-13.2 0.8988-34.8 2.2644-48 3.0345-13.2 0.7702-33.9 2.372-46 3.5598-24.049 2.3606-68.994 2.8682-103.33 1.1672-16.772-0.831-24.803-0.5996-37.56 1.082-8.9247 1.1762-18.525 2.1393-21.333 2.1398-2.8086 7e-4 -9.3066 0.8624-14.44 1.915s-18.596 2.5826-29.916 3.3998c-24.421 1.7628-33.417 3.4346-33.417 6.2094 0 1.5473 1.2188 1.8108 5.6667 1.2249 8.8638-1.1673 84.634-1.5359 85.766-0.4171 0.55642 0.55 0.76166 1.2443 0.45611 1.5428-0.30556 0.2987-19.456 0.9304-42.556 1.4039-23.1 0.4736-43.35 1.1407-45 1.4825-2.1961 0.4551-3 1.5644-3 4.1399v3.5183l26.333-0.9254c14.483-0.5088 29.333-1.4677 33-2.1308 3.6667-0.663 16.717-1.2413 29-1.285 18.998-0.068 22.333 0.2192 22.333 1.9205 0 1.6807-2.927 2.0004-18.333 2.0024-10.083 0-26.733 0.8949-37 1.9857-10.267 1.0908-26.917 1.9898-37 1.9976-15.401 0.013-18.333 0.3342-18.333 2.0143 0 2.3447 9.8839 2.5955 27.333 0.6936 15.869-1.7296 99.57-4.5912 103.73-3.5464 6.9721 1.7499 3.5787 3.5195-6.7331 3.5112-17.471-0.015-109.62 4.8104-119.17 6.2393-4.76 0.7122-4.8466 0.8364-5.711 8.1903-0.48269 4.1071-1.247 8.9388-1.6984 10.738l-0.82077 3.2702 15.865-0.989c8.7258-0.544 31.765-1.5094 51.198-2.1454s54.233-1.8389 77.333-2.6732c23.1-0.8344 48.996-1.1516 57.547-0.7052 8.5506 0.4466 19.651 0.2134 24.667-0.518s28.62-1.6104 52.453-1.953c23.995-0.3452 47.201-1.315 52-2.1734 9.6736-1.7301 48.257-2.0125 127.33-0.9321 44.507 0.608 77.542 2.3231 109.33 5.6759 22.004 2.3205 43.43 4.8668 58 6.8926 12.864 1.7888 27.161 2.364 62.667 2.5215 25.3 0.112 55.9 0.8811 68 1.7085 28.7 1.9628 118.51 2.0318 123.58 0.095 2.3544-0.8992 16.427-1.3892 37.754-1.3148 25.981 0.091 36.516-0.378 44.667-1.9871 13.35-2.6353 48.979-1.7142 82.667 2.1371 27.371 3.1292 36.304 3.6963 46.245 2.9363 4.1682-0.3187 21.568-0.7399 38.667-0.9362zm-1120.2-12.502c0-0.8336 1.35-1.8096 3-2.1687 5.235-1.1396 75.827-3.3978 106.21-3.3978 27.989 0 33.456 0.4245 33.456 2.5981 0 0.5388-20.25 1.3704-45 1.8481-24.75 0.4776-56.85 1.2662-71.333 1.7523-19.297 0.6476-26.333 0.4787-26.333-0.632zm-1.9282-8.1171c-0.553-0.8948-0.79539-1.8033-0.53863-2.019 0.49186-0.4132 63.26-3.0155 105.21-4.3619 23.798-0.7639 34.588-0.112 34.588 2.0889 0 0.9626-45.568 3.047-110.79 5.068-20.938 0.6488-27.7 0.4644-28.467-0.776zm1409.9-6.2137c-1.1-0.2503-22.7-1.4248-48-2.6101-65.624-3.0746-72.337-3.6102-73.072-5.8304-0.5147-1.5544 1.3881-1.7263 11.226-1.0143 6.5153 0.4715 28.046 1.5092 47.846 2.306 60.065 2.4171 87.715 4.3723 88.336 6.2464 0.418 1.2608-2.4778 1.6291-11.892 1.512-6.8444-0.085-13.344-0.3593-14.444-0.6096zm-26.667-9.4689c-4.0333-0.2238-20.533-1.6224-36.667-3.1082-16.133-1.4858-33.833-2.8418-39.333-3.0134-5.5699-0.1738-10-0.9026-10-1.6452 0-2.4386 14.293-2.2864 52.667 0.561 20.9 1.5508 49.85 3.1746 64.333 3.6083 21.221 0.6356 26.333 1.1487 26.333 2.6431 0 1.5262-4.4213 1.8106-25 1.6076-13.75-0.1356-28.3-0.4296-32.333-0.6532zm76.288 32.267c2.4082-1.081 6.8548-2.5844 9.8812-3.3405 3.0266-0.7561 12.327-5.4609 20.667-10.455 16.988-10.172 38.106-21.529 45.164-24.289 7.5893-2.9671 19.998-10.616 20.028-12.347 0.016-0.8816 7.6656-6.0598 17-11.507 9.3343-5.4473 22.072-13.007 28.305-16.8 14.518-8.8334 39.096-21.963 41.113-21.963 4.15 0 0.3872 3.1111-11.446 9.4635-12.438 6.677-33.667 19.645-33.667 20.565 0 0.7569 22.46-9.3087 44.667-20.018 11.733-5.6583 26.433-12.25 32.667-14.648 6.2333-2.3979 17.333-7.2012 24.667-10.674 7.3334-3.4728 19.033-8.2914 26-10.708 36.719-12.737 49.01-18.261 62.973-28.301 3.4682-2.4938 11.329-6.5597 17.468-9.0352 6.1389-2.4753 13.214-5.7114 15.722-7.191 2.5078-1.4798 7.137-3.5998 10.287-4.7112 3.15-1.1114 7.3376-3.15 9.3058-4.5304 1.9682-1.3803 5.9786-3.285 8.9119-4.2327s7.5587-3.123 10.278-4.8339c11.34-7.1336 57.939-28.894 71.302-33.296 14.275-4.7024 49.86-20.555 53.792-23.963 1.1212-0.9718 8.4351-4.4105 16.253-7.6414 7.8181-3.2309 16.078-7.442 18.355-9.358 2.2771-1.9161 6.6632-4.1595 9.7468-4.9854 5.5264-1.4802 7.8189-2.2019 27.606-8.6908 5.5-1.8036 13.6-5.0576 18-7.231s13.387-5.4953 19.971-7.382c11.327-3.2457 14.805-4.5989 11.822-4.5989-2.0824 0-52.751 12.989-71.025 18.207-35.148 10.037-78.14 26.165-93.898 35.225-9.4757 5.4478-15.554 7.686-15.514 5.7124 0.032-1.5816 14.362-9.9514 27.977-16.341 6.2333-2.9254 10.861-5.3529 10.283-5.3944-1.4221-0.1021-23.679 8.5321-28.741 11.15-4.8767 2.5218-7.0287 0.4768-2.5713-2.4438 4.213-2.7604 20.527-9.5129 35.696-14.774 6.9667-2.4165 19.867-7.22 28.667-10.675 8.8-3.4545 24.7-9.1778 35.333-12.718 22.613-7.5294 37.984-13.816 30.667-12.542-13.155 2.2905-48.88 11.607-60.05 15.66-25.855 9.381-70.104 29.661-87.098 39.918-17.149 10.35-20.206 11.744-19.21 8.7577 1.419-4.2571 34.243-22.611 61.73-34.517 15.858-6.8689 28.328-12.657 27.712-12.863-3.3664-1.1221-40.01 12.024-57.662 20.687-7.0152 3.4426-13.205 6.4651-13.755 6.7168-0.55 0.2516-1-0.4818-1-1.6299 0-4.2144 44.744-23.172 75.333-31.918 11.81-3.3769 46.728-16.79 43.868-16.852-5.5443-0.1189-58.184 16.778-81.868 26.278-9.9 3.9715-23.092 9.0433-29.315 11.271-12.123 4.3394-46.612 21.135-51.865 25.257-1.7488 1.3725-4.4488 2.4792-6 2.4595-2.4688-0.031-2.2388-0.53 1.8466-4.0025 5.0001-4.2502 35.9-20.39 48-25.072 60.63-23.459 65.707-25.218 106-36.724 44.126-12.6 90.012-22.148 106.51-22.161 3.5821 0 10.329-0.7085 14.993-1.5679 4.664-0.8593 8.8932-1.1493 9.3981-0.6444 1.7992 1.7992-1.9065 3.6395-10.343 5.1361-4.7088 0.8353-9.4614 2.2206-10.561 3.0783-2.5242 1.968-12.299 3.9891-32.667 6.7545-25.896 3.5158-51.406 10.064-72.389 18.582-7.8892 3.2026-6.189 3.8905 3.4452 1.3941 4.41-1.1428 22.858-5.3863 40.995-9.43 18.137-4.0437 39.346-8.8065 47.129-10.584 11.961-2.7311 22.605-4.9899 38.389-8.1463 1.5969-0.3194 3.804 0.3199 4.9046 1.4206 1.1007 1.1006 2.6442 2.0012 3.4299 2.0012 2.754 0 1.3948 2.7455-1.9977 4.0353-1.8846 0.7165-9.0846 2.6024-16 4.191-6.9156 1.5885-12.565 3.2375-12.553 3.6643 0.013 0.4268 0.5154 1.5562 1.12 2.5096 0.8882 1.4001 2.2311 1.3028 6.9796-0.5057 3.234-1.2316 11.13-4.0282 17.547-6.2146l11.667-3.9753v-6.5977c0-3.7324-0.5391-6.2645-1.2412-5.8305-0.6827 0.4219-1.6019 0.1835-2.0427-0.5298s-1.6572-0.9685-2.7031-0.5672c-2.3174 0.8893-2.7061-0.8529-4.5012-20.179-0.7492-8.0667-2.5706-22.345-4.0476-31.73-1.6716-10.621-2.4406-20.437-2.0372-26 0.3566-4.9151 1.2303-16.136 1.9416-24.936 0.7114-8.8 1.9219-24.7 2.6899-35.333 2.9205-40.436 16.33-117.13 25.293-144.67 3.2857-10.094 8.4368-30.295 12.657-49.641 1.797-8.2359 4.115-17.004 5.1512-19.484 1.0363-2.4802 3.1919-9.8216 4.7903-16.314 2.4921-10.123 13.554-43.818 22.508-68.561 6.4925-17.941 15.851-50.492 28.277-98.358 7.3739-28.403 16.337-61.242 19.917-72.976 6.6209-21.698 9.5472-30.179 29.814-86.411 6.2928-17.459 11.84-33.959 12.327-36.667 1.1684-6.4941 12.407-33.437 18.261-43.776 6.9708-12.313 13.972-28.782 19.192-45.146 4.8169-15.101 10.54-27.333 12.788-27.333 1.6152 0 0.682 4.1636-2.8387 12.667-1.5183 3.6667-4.5993 12.606-6.8468 19.866-2.2475 7.2597-10.025 25.26-17.282 40-7.2579 14.74-14.85 31.901-16.87 38.134-7.519 23.192-15.774 46.781-25.897 74-12.173 32.731-22.456 65.681-31.834 102-3.6924 14.3-9.9591 38.6-13.926 54-8.9362 34.693-15.083 55.505-22.25 75.333-13.339 36.902-18.618 52.51-21.277 62.899-1.5625 6.1057-3.9404 14.701-5.2843 19.101-1.3438 4.4-3.149 11.6-4.0116 16-2.7317 13.936-10.634 45.479-12.567 50.161-2.2751 5.5116-14.435 60.114-18.078 81.172-3.6717 21.23-6.4264 42.891-8.0539 63.333-0.759 9.5333-2.3649 28.141-3.5685 41.35-2.0352 22.333-2.0332 25.081 0.027 39.211 1.2184 8.357 2.7437 15.85 3.3896 16.65 0.646 0.8007 1.6078 9.4119 2.1377 19.136s1.5671 18.054 2.3049 18.51c2.1815 1.3482-0.3252-34.431-4.1425-59.131-0.7035-4.5511-1.0459-9.3511-0.7611-10.667s1.1186-10.492 1.8528-20.392c1.6651-22.452 15.265-125.58 18.814-142.67 1.4469-6.9667 4.986-21.367 7.8648-32 13.91-51.38 22.406-87.632 21.546-91.931-0.2124-1.0618 1.1076-5.2618 2.9333-9.3333 4.3698-9.7449 18.126-52.899 24.887-78.069 2.9544-11 6.8154-25.1 8.5799-31.333 1.7644-6.2333 7.4009-26.633 12.526-45.333 5.1246-18.7 13.334-46.6 18.244-62s11.539-36.4 14.733-46.667c3.1933-10.267 8.1468-24.967 11.008-32.667s8.9748-25.7 13.586-40c8.6146-26.711 12.793-36.64 18.074-42.952 1.6656-1.9905 5.2744-10.391 8.0195-18.667 2.7452-8.2761 9.9259-27.648 15.957-43.048 6.0313-15.4 13.184-35.2 15.894-44 12.123-39.359 35.325-109.02 36.828-110.58 3.525-3.644 1.9884 3.2442-6.733 30.179-14.909 46.045-22.025 68.332-27.372 85.733-2.7043 8.8-9.6488 27.86-15.432 42.357-5.7835 14.496-12.666 32.796-15.294 40.667-2.9456 8.8218-6.4841 16.506-9.226 20.037-2.522 3.2472-6.5184 11.618-9.23 19.333-11.125 31.653-25.377 73.428-30.344 88.94-2.9348 9.1667-10.035 31.367-15.778 49.333-9.0001 28.155-17.648 58.471-30.048 105.33-12.393 46.84-17.118 63.637-20.129 71.561-4.4693 11.761-11.167 32.431-11.167 34.463 0 0.86833-1.5142 4.4266-3.3649 7.9074-2.1436 4.0316-3.5265 9.0675-3.81 13.875-0.6172 10.469-10.462 52.366-22.184 94.407-6.4707 23.208-8.9491 36.902-15.888 87.787-3.7002 27.133-7.3423 53.833-8.0935 59.333-1.6469 12.059-3.9693 47.795-3.2403 49.86 1.5196 4.3045 5.9404 38.603 6.1011 47.334l0.1864 10.139 0.9637-10.039c0.53-5.5216 1.3864-11.372 1.9034-13 0.5701-1.7965 0.38-2.9608-0.4835-2.9608-0.9632 0-1.4207-8.9417-1.4152-27.667 0.013-28.026 2.2747-52.019 9.2895-98.333 1.444-9.5333 3.564-24.087 4.7113-32.343 4.6133-33.195 36.506-174.85 44.801-198.99 2.8978-8.4333 7.6838-23.433 10.636-33.333 5.3923-18.085 8.3895-26.969 21.142-62.667 3.7987-10.633 9.2141-28.333 12.034-39.333 16.63-64.859 31.11-111.16 43.366-138.67 4.5744-10.267 9.2491-21.667 10.388-25.333 1.1391-3.6667 4.456-14.167 7.3711-23.333s5.284-17.567 5.2643-18.667c-0.02-1.1 3.0518-8.6755 6.8254-16.834 3.7736-8.159 11.355-28.649 16.847-45.534 5.4923-16.885 11.697-33.952 13.787-37.926 3.7821-7.1899 11.098-29.137 24.126-72.372 3.7565-12.467 9.4584-31.067 12.671-41.333 3.2125-10.267 7.0825-23.467 8.6-29.333s3.1224-11.957 3.5665-13.535c0.807-2.8663 0.8011-2.8669-8.9801-1.0016-5.3833 1.0266-11.908 1.8673-14.5 1.8682-3.7868 1e-3 -5.1618 0.76225-7 3.874-3.31 5.6034-2.7952 6.7774 0.933 2.1276 4.9652-6.1925 5.6262-2.9033 1.1341 5.6429-4.4055 8.3813-15.445 33.676-17.032 39.024-2.7448 9.251-15.441 37.206-26.567 58.497-6.87 13.146-12.913 25.313-13.429 27.036-0.5159 1.7236-2.8973 6.7338-5.2921 11.134-2.3947 4.4-5.4218 11.3-6.7267 15.333-3.6785 11.369-13.576 36.629-17.108 43.663-1.7502 3.4853-8.1778 21.198-14.283 39.362-6.1056 18.164-11.714 32.82-12.464 32.57-4.2436-1.4145-40.242 101.6-52.79 151.07-1.5812 6.2333-6.7866 23.633-11.568 38.667-4.7811 15.033-10.657 35.733-13.058 46-5.0921 21.776-11.762 44.917-15.377 53.35-1.3982 3.2622-4.707 15.693-7.3526 27.624-2.6458 11.931-6.8708 28.893-9.3892 37.693s-6.4384 22.6-8.7112 30.667c-7.2724 25.812-12.162 41.203-14.681 46.209-7.6692 15.243-19.416 59.441-22.447 84.457-2.9079 24-3.9059 61.893-2.4063 91.357 0.8017 15.753 1.3509 32.843 1.2204 37.976-0.2501 9.8342 1.8613 20.425 4.5191 22.667 2.5144 2.1208 4.8208 10.301 3.3257 11.796-2.1292 2.1292-6.4595-4.3286-9.2507-13.796-2.965-10.057-4.4733-24.978-2.6393-26.112 0.6936-0.4286 0.9256-1.8367 0.5153-3.1291-0.4101-1.2923-1.2409-15.151-1.8461-30.797-1.1428-29.545-0.039-68.759 2.5527-90.629 2.6904-22.709 12.003-60.243 19.519-78.667 6.0943-14.94 9.2412-24.725 21.048-65.451 5.44-18.765 10.483-35.565 11.208-37.333 0.724-1.7688 2.5852-10.331 4.1357-19.027 1.5505-8.6962 4.3263-19.796 6.1683-24.667 3.6997-9.7824 8.8348-27.837 16.55-58.189 2.7963-11 8.1552-29.3 11.909-40.667 3.7536-11.367 8.0563-25.467 9.5615-31.333 9.2784-36.164 31.508-105.15 44.47-138 3.9061-9.9 7.9937-20.4 9.0836-23.333 1.09-2.9333 2.7985-5.3333 3.7966-5.3333 1.1843 0 5.345-10.659 11.971-30.667 5.5854-16.867 12.044-34.723 14.353-39.68 4.8982-10.519 16.256-41.334 15.51-42.08-1.1352-1.1352-9.0018 16.715-19.872 45.093-6.3206 16.5-14.467 37.5-18.102 46.667s-8.1999 21.167-10.142 26.667c-1.9425 5.5-7.4179 18.4-12.168 28.667-4.7497 10.267-11.543 27.067-15.097 37.333-5.9339 17.142-11.527 31.572-23.256 60-4.6439 11.255-12.826 38.738-15.391 51.694-0.8376 4.2318-3.9045 14.732-6.8153 23.333-2.9107 8.6016-6.7439 22.239-8.5182 30.306-1.7742 8.0667-4.9852 20.967-7.1352 28.667-2.1501 7.7-4.3465 16.1-4.8809 18.667-0.5344 2.5667-3.2436 9.7667-6.0207 16-2.7769 6.2333-6.8536 17.333-9.059 24.667-4.2679 14.19-17.892 68.418-21.104 84-5.3526 25.966-11.714 53.063-14.555 62-4.4611 14.032-7.0928 27.332-9.2335 46.667-1.0149 9.1667-2.4654 21.467-3.2233 27.333-3.4459 26.675-4.1819 55.332-2.1231 82.667 2.4368 32.354 4.2492 46.993 6.3244 51.087 2.0136 3.972 0.162 7.0738-5.0806 8.5113-2.1439 0.5878-10.993 2.2905-19.664 3.7838s-24.682 5.6929-35.581 9.3325c-10.898 3.6396-23.604 7.4965-28.234 8.571-4.6307 1.0746-14.419 4.4016-21.753 7.3935-7.3333 2.9919-18.133 6.8637-24 8.6041-5.8666 1.7403-15.167 4.6625-20.667 6.4937s-15.852 5.1613-23.004 7.4002-19.452 7.0656-27.333 10.726c-7.8809 3.6603-17.408 7.3141-21.172 8.1196-4.0252 0.8614-11.162 4.2185-17.333 8.153-15.241 9.717-37.346 20.579-57.062 28.04-9.4808 3.5874-28.081 12.344-41.333 19.458s-28.499 15.048-33.88 17.631c-22.658 10.873-49.383 24.612-56.215 28.898-17.872 11.213-25.143 15.45-31.979 18.634-4.0219 1.8734-16.622 9.2717-28 16.441-11.378 7.169-26.688 16.05-34.021 19.735-7.3333 3.6852-17.833 9.3853-23.333 12.667-19.82 11.826-54.177 33.376-62.637 39.287-13.462 9.4075-38.993 23.854-55.03 31.139-9.3234 4.235-10.234 5.2113-7.2045 7.7254 1.3887 1.1526 5.9948-1.0117 20.333-9.5536 10.196-6.0741 30.685-17.489 45.532-25.366 14.847-7.8773 34.59-18.782 43.875-24.233 9.2844-5.4508 17.387-9.5977 18.006-9.2152 2.4605 1.5207 0.736 3.3146-8.208 8.5382-5.1334 2.998-9.3334 5.77-9.3334 6.1598 0 0.7966 23.318-11.425 38.863-20.369 9.8588-5.6723 24.988-12.458 27.777-12.458 4.112 0-0.056 3.1677-10.974 8.3407-6.7833 3.214-18.033 9.1709-25 13.238-21.323 12.447-59.877 31.989-61.334 31.088-0.7569-0.4679-0.9668-1.5133-0.4661-2.3233 1.6036-2.5948-69.182 35.493-76.867 41.359-0.7898 0.6031-2.3573 36.51-1.6573 37.964 0.7029 1.4604 2.3661 1.2397 7.2788-0.9658zm12.43-11.285c-0.425-0.6878 1.7896-2.993 4.9213-5.1227 6.712-4.5644 61.962-37.399 69.694-41.418 8.2676-4.2977 10.035-5.7864 5.6667-4.7716-7.4023 1.7195-3.4175-2.092 10-9.5649 17.5-9.7471 32.081-18.035 46.333-26.338 9.0822-5.2908 44.271-22.201 46.199-22.201 0.2575 0 0.468 0.8116 0.468 1.8036 0 1.0085-7.4663 5.2693-16.939 9.6667-9.3164 4.3246-25.966 13.195-37 19.712-11.033 6.5169-25.611 14.82-32.394 18.452-6.7834 3.6318-12.333 6.8362-12.333 7.121s9.0667-3.9687 20.148-9.4522c19.666-9.7312 24.585-11.502 23.581-8.4905-0.2712 0.8137-15.771 9.3911-34.444 19.061-30.955 16.03-72.21 39.483-86.192 49-6.1708 4.2001-6.5975 4.3409-7.7085 2.5432zm-12.718-6.6168c0-2.031 56.36-36.974 82.997-51.458 7.8816-4.2856 14.09-8.0329 13.795-8.3272-1.2116-1.2114-48.233 22.679-67.042 34.063-19.786 11.975-23.083 13.548-23.083 11.014 0-2.5841 39.389-25.253 74.667-42.972 20.167-10.129 41.863-21.275 48.214-24.768 10.404-5.7224 14.825-6.8558 12.581-3.2256-0.443 0.7167-7.4319 5.0278-15.531 9.58-8.0992 4.5523-14.48 8.5223-14.18 8.8224 0.3002 0.3 4.9194-1.5506 10.265-4.1125 8.8835-4.2573 13.146-5.0395 11.314-2.0763-0.3927 0.6354-14.652 8.2822-31.688 16.993-30.466 15.578-38.859 20.366-79.231 45.205-19.682 12.11-23.077 13.766-23.077 11.262zm383.29-226.87c-1.6749-2.71 9.1152-9.3862 30.246-18.714 8.3204-3.673 25.928-12.041 39.128-18.595 22.114-10.981 49.415-22.66 84.642-36.212 14.407-5.5422 52.073-15.576 81.358-21.674 17.537-3.6515 47.481-11.538 56.898-14.985 3.0602-1.1203 6.2744-1.598 7.1425-1.0614 1.1627 0.7186 1.3207-0.198 0.5996-3.4809-0.5384-2.451-1.4617-5.3761-2.0521-6.5002-1.2062-2.2968-4.5812-16.596-5.8327-24.71-0.4524-2.9333-0.1761-12.233 0.6139-20.667 0.79-8.4333 1.9528-32.733 2.584-54 1.942-65.433 5.506-87.418 25.397-156.67 2.8436-9.9 7.3421-26.1 9.9965-36 8.4693-31.588 12.872-47.26 14.047-50 0.6288-1.4667 2.3773-9.078 3.8856-16.914 3.9956-20.758 15.972-61.228 25.377-85.753 9.3525-24.389 18.864-53.286 21.978-66.774 1.1716-5.0744 7.1903-24.526 13.375-43.226 10.776-32.584 27.108-84.17 37.332-117.92 2.6531-8.7578 6.3616-19.258 8.2413-23.333 4.8946-10.612 14.177-30.133 28.884-60.743 7.0471-14.667 16.077-35.367 20.066-46 3.9894-10.633 10.246-25.933 13.904-34s9.625-23.367 13.261-34c5.7611-16.85 19.658-51.404 28.566-71.03 1.5887-3.5 3.5295-6.125 4.3129-5.8333 1.8899 0.70365 2.4519-0.88684-10.67 30.197-6.3465 15.033-14.756 36.758-18.689 48.276-3.9323 11.519-10.552 28.619-14.711 38-4.1588 9.3814-10.199 24.257-13.422 33.057-3.2234 8.8-9.6666 23.8-14.318 33.333-30.882 63.291-34.098 70.458-34.098 75.98 0 1.0379-0.8514 2.367-1.892 2.9534s-4.0118 8.2662-6.6029 17.066c-2.5909 8.8-5.9743 19.6-7.5185 24s-7.2992 22.7-12.789 40.667c-5.4897 17.967-13.483 42.867-17.763 55.333s-9.1063 28.067-10.725 34.667c-3.788 15.442-13.784 46.512-23.272 72.331-9.2673 25.221-21.292 65.137-25.551 84.82-3.721 17.195-4.1717 19.025-9.732 39.516-2.2884 8.4333-5.3476 19.833-6.7984 25.333-1.4506 5.5-5.1044 18.7-8.1192 29.333-18.749 66.126-19.886 70.963-23.973 102-1.8292 13.892-3.0204 31.797-3.4152 51.333-0.3334 16.5-1.5411 40.944-2.6839 54.319-2.212 25.889-1.2115 40.778 3.0251 45.014 1.0666 1.0666 2.4881 5.311 3.1589 9.4319 0.6707 4.121 1.5801 8.6292 2.0211 10.018 1.1026 3.4741-0.4331 5.7675-2.6372 3.9382-1.2076-1.0021-3.0515-0.8411-6.403 0.5593-8.106 3.3869-36.568 10.977-64.997 17.333-29.299 6.5505-47.065 11.071-44.277 11.265 0.9475 0.066 6.0475-0.7315 11.333-1.7727 28.112-5.5374 46.148-8.8444 62.944-11.541 10.267-1.6483 18.97-3.4474 19.34-3.998 1.0551-1.569 23.268-2.101 23.718-0.5681 0.2152 0.7334-1.8848 1.7795-4.6667 2.3248-5.1441 1.0083-39.994 6.7779-54.199 8.9728-4.2942 0.6635-12.394 2.1335-18 3.2666-5.6059 1.1331-17.992 3.6247-27.526 5.537-31.71 6.3604-80.344 23.862-120.48 43.356-11.361 5.5184-20.098 8.9954-21.491 8.5532-2.3745-0.7537-43.653 17.038-50.466 21.751-5.8368 4.0382-6.6739 4.3504-7.6084 2.8381zm175.01-75.405c-0.4431-0.4431-1.5931-0.4904-2.5556-0.1052-1.0636 0.4256-0.7477 0.7415 0.8056 0.8055 1.4055 0.058 2.1931-0.2572 1.75-0.7003zm9.3333-2.6667c-0.443-0.443-1.593-0.4904-2.5556-0.1052-1.0636 0.4256-0.7477 0.7416 0.8056 0.8056 1.4055 0.058 2.1931-0.2573 1.75-0.7003zm126.85-8.8611c-0.097-0.1833-0.902-7.8333-1.7886-17-0.8867-9.1667-2.974-25.895-4.6386-37.174-2.7702-18.771-2.8982-21.989-1.5113-38 1.656-19.118 3.2041-40.269 5.4283-74.159 2.9456-44.887 10.766-83.14 32.028-156.67 4.4532-15.4 8.6639-30.1 9.3569-32.667 1.8702-6.9254 9.3847-31.753 19.169-63.333 4.7715-15.4 10.536-35.5 12.811-44.667 6.0017-24.187 8.4857-32.354 18.738-61.606 5.0646-14.45 12.848-38.45 17.296-53.333 4.4485-14.884 10.419-34.561 13.267-43.728 2.8485-9.1667 8.866-29.867 13.372-46 12.659-45.323 19.756-66.938 26.167-79.704 3.2354-6.442 7.0798-14.913 8.543-18.824 1.4633-3.911 6.0072-13.342 10.097-20.958 4.0903-7.6161 9.5431-18.947 12.117-25.181 2.5744-6.2333 9.1713-21.196 14.66-33.249 5.4887-12.054 14.199-34.254 19.357-49.333 12.344-36.091 29.996-77.417 33.068-77.417 1.9888 0 1.2221 2.1663-8.65 24.44-9.0743 20.474-17.963 44.269-24.64 65.96-2.3252 7.5536-7.5658 21.054-11.646 30-4.08 8.9464-10.868 24.371-15.084 34.276-4.2165 9.9054-11.206 24.605-15.533 32.667-4.3267 8.0613-8.9919 17.657-10.367 21.324-1.3752 3.6667-4.6312 10.867-7.2356 16-7.7213 15.219-11.786 26.971-23.06 66.667-20.796 73.225-36.034 123.18-47.789 156.67-5.2757 15.031-12.783 40.014-16.683 55.518-3.9 15.504-11.279 41.004-16.398 56.667s-10.612 33.278-12.206 39.144c-1.5944 5.8667-4.0462 14.567-5.4484 19.333-1.4022 4.7667-2.9368 10.467-3.4104 12.667-0.4735 2.2-4.158 15.4-8.1878 29.333-12.486 43.174-21.27 79.099-24.775 101.33-4.2004 26.643-4.5778 30.353-6.9163 68-1.0477 16.867-2.6416 38.27-3.5421 47.563-1.507 15.552-1.4011 18.575 1.3292 38 4.7374 33.703 6.8457 52.926 6.0802 55.437-0.5917 1.9411-2.7336 3.2104-3.3748 2zm-712.96 279.48c3.9237-2.6685 11.364-6.7985 16.533-9.1776 13.853-6.3757 35.892-19.256 59.268-34.639 11.367-7.4801 23.667-15.313 27.333-17.406 3.6666-2.0932 10.867-6.4815 16-9.7519 5.1333-3.2704 18.633-10.827 30-16.792 11.367-5.9654 29.367-16.298 40-22.962 10.633-6.6636 22.933-13.951 27.333-16.195 4.4-2.2435 14.9-8.3349 23.333-13.536 8.4334-5.2016 28.533-16.035 44.667-24.075 26.348-13.13 51.596-26.493 68.791-36.409 3.3686-1.9426 14.169-6.5715 24-10.286 22.449-8.4825 40.937-17.426 57.244-27.693 8.2424-5.1892 15.733-8.7727 21.333-10.206 4.7469-1.215 14.331-4.7871 21.298-7.9379 6.9666-3.1509 17.467-7.2444 23.333-9.0969 5.8667-1.8524 19.667-6.1788 30.667-9.6142s26.3-8.6445 34-11.576c15.601-5.939 18.6-6.9074 43.333-13.992 9.5333-2.7306 19.988-6.1272 23.232-7.548 3.2438-1.4208 13.986-4.0015 23.872-5.7349s18.214-3.392 18.508-3.6859c0.2938-0.2938-0.3563-7.0515-1.4447-15.017-5.7071-41.766-6.0201-80.91-0.9633-120.48 1.4525-11.367 3.029-24.867 3.5033-30 1.096-11.862 5.4584-33.991 7.9653-40.407 2.4067-6.159 12.098-48.396 13.98-60.926 0.7708-5.1333 2.5097-13.233 3.8641-18 1.3544-4.7667 5.0098-19.467 8.123-32.667 8.5134-36.097 11.61-46.702 17.953-61.494 3.1827-7.4217 6.202-15.522 6.7096-18 0.5076-2.4784 2.0967-8.5529 3.5315-13.499 1.4348-4.946 4.6695-18.041 7.188-29.1 2.5185-11.059 6.9769-27.112 9.9073-35.674 2.9306-8.5616 6.2403-20.074 7.355-25.582 2.6489-13.092 13.152-44.045 22.617-66.651 4.1448-9.9 10.874-27.273 14.955-38.606 4.0803-11.333 10.714-27.533 14.742-36 6.8348-14.368 14.628-33.845 31.766-79.394 13.949-37.073 21.934-56.367 31.729-76.667 5.4845-11.367 12.158-26.276 14.829-33.132 2.6713-6.8558 5.6946-13.756 6.7185-15.333 1.024-1.5775 5.7883-12.678 10.588-24.669 7.4072-18.506 15.025-34.041 24.29-49.533 3.4396-5.7511 12.483-24.989 12.483-26.555 0-0.86617-1.2625-1.2058-3-0.8069-9.8171 2.2537-51.498 0.48776-67.578-2.8631-7.492-1.5613-13.187-1.8228-23.333-1.0716-21.682 1.6052-118.04 1.421-181.86-0.34747-61.992-1.7178-71.016-1.3966-101.56 3.6144-12.884 2.1139-25.342 2.6321-78 3.2446-148.28 1.7248-202.1 3.3928-238.67 7.3973-6.6 0.72275-22.5 1.9451-35.333 2.7163-12.833 0.77123-25.433 1.6944-28 2.0515-16.607 2.3105-63.5 4.6056-94.667 4.6333-42.638 0.0379-97.144 2.7944-131.33 6.642-36.636 4.1229-67.031 5.2764-142 5.3891-71.556 0.1076-97.43 1.1244-119.53 4.6978-9.6429 1.5592-25.374 2.249-59.138 2.5933-25.3 0.25796-52.63 1.113-60.734 1.9-9.5841 0.93079-57.168 1.3145-136.13 1.0978-101.17-0.27769-121.76-0.0291-123.59 1.493-1.2104 1.0044-4.2002 5.5044-6.6438 10s-6.9683 12.769-10.055 18.386c-3.0865 5.6165-7.9066 15.581-10.711 22.144-6.9072 16.161-27.026 53.497-35.046 65.038-4.0752 5.8642-7.9837 13.754-10.403 21-2.1313 6.3838-5.9445 14.757-8.4739 18.607-7.798 11.869-16.195 32.664-34.862 86.333-3.1883 9.1667-8.0084 21.767-10.711 28-13.054 30.105-17.453 40.555-23.289 55.333-3.4751 8.8-8.8896 22-12.032 29.333-3.1427 7.3333-8.5703 21.133-12.061 30.667-3.4911 9.5333-8.7955 23.933-11.788 32-5.9178 15.954-15.663 48.48-27.365 91.333-4.1052 15.033-8.6849 31.533-10.177 36.667-1.4921 5.1333-3.834 14.133-5.2042 20s-3.6644 13.384-5.0982 16.704-3.5616 10.236-4.7286 15.366c-1.167 5.1308-6.0645 20.895-10.883 35.032-10.274 30.141-13.467 43.077-23.918 96.897-8.0003 41.2-11.425 76-11.425 116.1 0 13.328 0.38516 26.159 0.85591 28.513 0.82922 4.1461 1.0059 4.2448 5.6667 3.1666 2.6459-0.612 10.511-1.0932 17.477-1.0692 16.67 0.057 23.628 3.0351 34.668 14.836 4.3993 4.7029 7.9988 9.2204 7.9988 10.039 0 1.0843 7.8698 1.1812 29 0.3572 37.154-1.4488 34.353-1.4675 70.822 0.4726 17.136 0.9116 32.286 2.2622 33.667 3.0013 3.4216 1.8311 3.2875 7.4905-0.2038 8.5986-1.4931 0.4739-18.743 0.1471-38.333-0.7261-21.63-0.9642-46.686-1.2114-63.799-0.6294l-28.181 0.9583-0.53645 12.266c-0.95115 21.747-9.5115 33.592-28.957 40.068-14.042 4.6763-22.978 4.4777-38.12-0.8474-15.051-5.293-21.24-9.3184-27.273-17.738-4.6347-6.4683-4.7524-6.9409-4.7348-19 9e-3 -6.8017-0.35631-12.367-0.81393-12.367-0.86099 0-5.0886 2.7805-16.538 10.877-3.6667 2.593-16.254 9.7067-27.972 15.808s-27.318 15.433-34.667 20.737c-7.3486 5.3036-18.161 12.294-24.028 15.534-21.8 12.04-33.629 18.983-44.554 26.15-6.1716 4.0489-18.472 10.667-27.333 14.707-15.97 7.2807-36.697 20.097-52.112 32.222-4.4 3.4609-14.868 10.605-23.261 15.876-8.3937 5.2709-17.394 11.502-20 13.847-2.6062 2.3451-12.239 9.6166-21.405 16.159-9.1667 6.5423-20.267 15.147-24.667 19.121s-17.9 14.46-30 23.303-25.3 19.15-29.333 22.906c-10.841 10.096-37.113 31.594-44 36.004-7.0249 4.4982-17.591 12.935-16.973 13.553 0.73606 0.736 33.267-2.1233 40.973-3.6014 4.0333-0.7736 13.333-1.9202 20.667-2.5478 7.3333-0.6276 20.233-1.889 28.667-2.8032 12.138-1.3156 22.836-1.3289 51.333-0.064 35.632 1.5816 53.128 1.0906 85.333-2.3953 12.761-1.3813 33.273-2.7393 93.333-6.1792 41.079-2.3527 145.98-1.9784 186.67 0.6661 25.011 1.6255 79.484 3.798 136.67 5.4504 22.367 0.6464 46.367 1.875 53.333 2.7303 13.861 1.7016 82.736 0.8341 117.33-1.4779 33.767-2.2564 89.411-3.4964 106.67-2.377 9.1667 0.5946 41.567 1.3653 72 1.7125 78.238 0.8928 151.59 4.186 178.29 8.0048 7.1717 1.0256 21.139 2.2448 31.039 2.7095 9.9 0.4646 22.8 1.3948 28.667 2.067 5.8667 0.6723 26.503 2.1579 45.859 3.3015 19.356 1.1436 35.597 2.3293 36.091 2.6349 0.4945 0.3056 15.01 1.1727 32.256 1.9271 17.246 0.7543 34.305 1.9955 37.909 2.7583 8.2799 1.7525 24.482 3.6138 33.418 3.839 5.8549 0.1475 7.9166-0.5416 14-4.679zm-572.13-79.736c-3.2225-3.8828 2.1591-18.657 13.142-36.079 2.7739-4.4 7.0868-11.427 9.5844-15.616 9.0524-15.182 22.008-32.583 31.175-41.875 10.595-10.738 30.268-24.218 41.699-28.571 7.0293-2.6772 8.4543-2.7914 17.143-1.374 17.214 2.8081 18.268 3.3665 32.361 17.157 12.241 11.978 13.35 13.496 14.84 20.308 2.4531 11.217 0.9464 28.732-4.4708 51.971-2.6496 11.367-4.8301 22.874-4.8456 25.571-0.034 5.9264-3.1122 9.3851-7.8625 8.8343-3.3474-0.3881-3.5161-0.7979-3.8944-9.4547-0.3817-8.7369 2.6222-26.246 7.1246-41.526 2.9449-9.9944 2.6055-32.313-0.5705-37.521-4.3374-7.113-20.676-20.896-27.017-22.793-7.5642-2.2621-16.125-2.2379-21.627 0.061-8.6986 3.6345-29.106 18.71-37.283 27.542-12.104 13.073-35.631 49.186-44.271 67.952-7.1228 15.472-7.8609 16.639-10.788 17.064-1.5063 0.2187-3.5043-0.5248-4.4399-1.6521zm-334.97-1.0789c-2.3929-1.9195-5.1029-19.516-5.1003-33.116 1e-3 -7.9954-2.255-25.345-5.1218-39.38-2.4994-12.236-18.849-34.893-30.118-41.737-2.2504-1.3668-6.6401-2.901-9.7549-3.4094-4.9614-0.8097-6.74-0.3221-14.351 3.9342-15.594 8.7206-29.091 20.128-47.95 40.526-20.195 21.843-21.918 24.21-21.989 30.2-0.0279 2.3738-2.0738 7.0111-4.9999 11.333-3.0694 4.5338-6.0302 11.372-7.7864 17.982-2.5529 9.6096-3.1763 10.708-6.291 11.08-2.427 0.2901-3.9079-0.4287-4.9693-2.4119-2.2505-4.2051 1.776-20.187 7.4312-29.497 2.5293-4.1636 5.111-10.312 5.7371-13.664 0.62613-3.3515 2.0463-7.4792 3.1559-9.1727 5.1461-7.8539 44.095-47.615 53.454-54.568 12.151-9.0284 25.188-16.484 30.888-17.666 15.405-3.1919 36.614 10.756 50.686 33.333 7.1945 11.543 9.3024 17.646 11.939 34.567 1.5864 10.18 4.7082 46.887 4.7082 55.36 0 2.6048-4.317 7.9728-6.4118 7.9728-0.59318 0-2.0135-0.75-3.1562-1.6666zm220.51-0.4266c-2.7009-1.8918-2.9382-3.1522-2.9382-15.606 0-7.4515-0.6546-24.967-1.4547-38.924-1.3437-23.44-1.7653-26.14-5.5253-35.376-5.4842-13.472-9.0454-17.97-16.143-20.389-11.364-3.8722-25.123 1.5119-42.877 16.778-16.506 14.193-37.82 37.143-43.598 46.944-3.0264 5.1333-7.1534 12.033-9.1712 15.333-4.1946 6.8603-9.73 18.786-11.449 24.667-2.0299 6.9452-11.115 5.7002-11.115-1.5231 0-6.5839 12.156-30.739 26.017-51.697 5.0311-7.6074 28.655-32.101 42.238-43.793 11.811-10.167 26.649-18.077 37.05-19.752 17.843-2.8736 31.593 6.2181 39.606 26.188 6.2876 15.671 6.7747 18.606 8.3959 50.578 1.6668 32.873 0.86527 44.015-3.3683 46.822-2.3254 1.5419-3.1625 1.5051-5.6667-0.2488zm681.73-60.023c-1.4667-0.359-6.7186-1.5948-11.671-2.7462-16.265-3.7814-19.274-8.4953-21.092-33.045-0.6557-8.8506-2.0952-19.392-3.1988-23.425s-2.0328-11.233-2.0649-16c-0.032-4.7667-0.9387-16.467-2.0148-26s-2.5483-28.3-3.2713-41.705c-1.3588-25.185-3.0178-38.861-5.4904-45.262-0.7862-2.0351-2.1271-16.01-2.9798-31.054-1.4492-25.57-1.713-27.323-4.0434-26.871-4.0198 0.7783-13.759-2.4947-16.682-5.6061-4.551-4.8443-6.9037-12.461-8.8497-28.65-2.1728-18.076-9.9787-43.657-17.336-56.813-4.0461-7.2351-4.8723-10.17-5.5448-19.701-0.8596-12.181 0.4696-18.396 5.2289-24.446 2.2644-2.8788 2.8556-5.5229 2.9252-13.083 0.08-8.6398 0.7038-10.734 7.0784-23.744 4.1386-8.4469 9.2522-16.607 12.533-20 4.8916-5.0588 5.5068-6.3866 5.245-11.322-0.5457-10.292 7.2428-22.535 16.944-26.634 12.182-5.1475 25.936 8.5317 23.893 23.764-0.8966 6.6845-6.073 13.449-13.721 17.931-5.7744 3.384-9.6821 3.7527-17.728 1.6726-2.3867-0.617-14.617 33.301-14.739 40.875-0.087 5.3413-0.073 5.3547 6.9137 7.2728 8.7748 2.4089 18.897 2.1847 37.89-0.83921 13.707-2.1823 14.786-2.5654 13.578-4.8228-1.5907-2.9722 3.8226-15.313 11.931-27.199 13.901-20.378 49.623-46.837 76.268-56.491 11.082-4.0156 14.251-4.5906 25.333-4.5975 13.889-8e-3 24.389 2.4999 32.084 7.6642 5.3366 3.5817 20.655 22.206 27.501 33.436 4.5319 7.4339 13.171 35.644 11.92 38.922-0.3452 0.90403 9.9304 1.3526 30.543 1.3333 31.063-0.0291 31.063-0.0289 34.51 3.2053 1.8958 1.7789 3.9461 5.0789 4.5562 7.3333 1.3663 5.0487-0.5533 21.135-3.9097 32.766-1.3757 4.7667-3.0809 12.867-3.7893 18-0.7086 5.1333-3.4034 16.233-5.9884 24.667-2.5851 8.4333-6.29 22.351-8.2334 30.927-5.2982 23.384-8.1026 26.731-24.727 29.512l-9.7986 1.6391-1.6835 17.294c-2.6885 27.618-5.4449 43.603-13.673 79.294-3.5136 15.241-5.3103 29.894-5.3103 43.308 0 6.1129-0.8535 18.22-1.8965 26.904-1.0432 8.6839-2.5711 22.989-3.3955 31.789-3.7372 39.893-5.8172 41.733-52.041 46.033-28.546 2.6555-97.187 5.6953-102 4.517zm55.333-13.827c58.16-2.9628 79.448-6.0418 82.609-11.948 1.2172-2.2743 2.852-14.93 5.4392-42.108 0.6981-7.3333 1.8533-17.533 2.5671-22.667 0.7137-5.1334 1.3173-15.086 1.3413-22.116 0.047-13.564 2.4936-32.67 5.8775-45.884 5.5846-21.808 10.461-48.333 11.608-63.141 1.6575-21.394 4.6423-43.87 6.4556-48.612 0.7895-2.0644 1.4353-6.7232 1.4353-10.353 0-5.9802-0.3961-6.8404-4.2214-9.1667-8.5886-5.223-15.765-5.9153-43.056-4.1539-13.964 0.9012-29.889 2.2035-35.389 2.8939-18.596 2.3343-47.182 3.8068-81.333 4.1896-29.751 0.3335-34.617 0.6857-38.939 2.8184-6.9311 3.4206-7.5919 4.5755-8.969 15.673-2.7836 22.434-1.499 62.367 2.633 81.852 1.3996 6.6 3.4888 25.962 4.6425 43.026 1.1536 17.064 2.9679 38.042 4.0316 46.616 1.0636 8.5744 1.9339 18.733 1.9339 22.575s0.883 10.376 1.9622 14.519c1.0794 4.1437 2.338 13.023 2.797 19.732 0.9558 13.97 2.5973 21.639 4.9437 23.101 4.9809 3.1022 22.28 5.6466 34.297 5.0446 6.9666-0.349 23.767-1.2 37.333-1.8911zm-107.49-249.06c0.4096-2.75 1.1368-8.4924 1.6159-12.761 1.0424-9.2875 4.6693-14.242 13.822-18.88 7.5787-3.8404 13.885-4.5135 50.052-5.3422 35.376-0.8106 62.085-1.9889 64.666-2.853 3.4607-1.1584 56.143-5.0499 68.001-5.023 20.837 0.047 35.493 7.4078 38.737 19.455 1.3899 5.1618 0.1878 18.038-2.2861 24.484-0.6837 1.7818-0.013 1.9719 4.37 1.2304 11.548-1.9557 12.044-2.6377 16.462-22.644 1.6193-7.3333 5.2525-20.533 8.0739-29.333 2.8213-8.8 5.5144-19.3 5.9845-23.333 0.47-4.0333 1.94-11.233 3.2664-16 1.3264-4.7667 3.1723-13.347 4.102-19.067 1.8864-11.607 1.2352-13.345-4.9637-13.252-2.0603 0.0311-12.746 0.15213-23.746 0.26904-11 0.11693-22.597 0.78888-25.771 1.4933-3.1744 0.70441-18.174 1.539-33.333 1.8546-15.159 0.3156-32.062 1.1793-37.562 1.9193-6.7571 0.90915-17.572 0.90144-33.348-0.0237-20.088-1.1781-25.114-1.0587-36 0.8556-6.9588 1.2237-18.952 2.7489-26.652 3.3893-16.524 1.3743-58.927 6.5771-60.261 7.3937-0.51 0.31238-5.984-0.77159-12.164-2.4088-19.4-5.1393-24.733-1.6606-22.819 14.884 0.5454 4.7121 2.6478 10.632 5.9192 16.667 7.2376 13.351 15.507 42.033 17.226 59.747 1.8061 18.612 3.7598 22.141 12.315 22.238 3.0903 0.035 3.6459-0.6062 4.2944-4.9594zm70.156-127.7c12.353-2.973 26.377-3.5709 48.588-2.0715 14.112 0.95269 25.09 1.0047 32.667 0.15465 6.2765-0.70411 21.561-1.6014 33.965-1.9938 12.404-0.39251 22.75-0.91003 22.99-1.15 0.6439-0.64391-6.1116-26.087-8.3469-31.437-1.0566-2.5287-6.7742-11.058-12.706-18.954-12.381-16.48-16.364-19.072-32.957-21.439-8.4038-1.1988-11.491-1.0929-17.533 0.60131-18.464 5.1775-29.321 10.887-51.675 27.177-18.858 13.742-27.264 23.323-38.054 43.374l-4.7847 8.8914 10.257-0.69431c5.6412-0.38185 13.557-1.4885 17.59-2.4593zm-737.93 292.48c-7.1322-2.7277-25.771-15.553-29.117-20.035-5.8429-7.8266-6.7977-10.768-6.634-20.438 0.36124-21.333 8.4248-32.04 33.896-45.009 13.723-6.987 15.98-7.7245 24.057-7.8622 7.3498-0.1252 10.236 0.5173 16.452 3.6622 8.2472 4.1727 17.352 13.424 23.512 23.89 3.9084 6.6405 3.93 6.7924 3.1151 21.889-0.4513 8.361-1.6086 17.088-2.5717 19.393-2.5327 6.0616-13.17 14.847-24.738 20.432-8.9289 4.3107-11.378 4.8902-22.045 5.2153-6.6462 0.2026-13.752-0.3043-15.927-1.136zm34.594-16.097c14.557-7.4158 16.719-10.387 18.295-25.138 1.5429-14.447 0.80871-16.74-8.7625-27.375-6.5712-7.3013-11.534-10.251-20.722-12.315-5.4704-1.2291-6.4211-0.9386-19.944 6.0944-20.582 10.704-25.543 16.244-27.375 30.571-1.4431 11.284 1.9259 16.951 15.175 25.526 12.93 8.3678 13.286 8.4854 24 7.9196 8.1991-0.4329 11.681-1.3843 19.333-5.2827zm223.33 11.515c-14.71-3.0515-18.54-4.4949-23.514-8.8614-13.362-11.732-17.845-29.252-12.257-47.903 1.9601-6.5424 15.182-21.353 24.678-27.642 7.1844-4.7587 28.529-12.118 35.147-12.118 8.4525 0 28.288 11.993 36.492 22.064 10.583 12.992 11.95 23.109 5.8299 43.14-4.6622 15.259-19.87 27.097-40.399 31.445-10.905 2.31-14.322 2.2937-25.977-0.1239zm22.088-11.307c15.552-2.8488 29.438-12.868 32.591-23.514 2.7508-9.287 3.1716-20.841 0.9149-25.122-2.9957-5.6817-11.496-13.915-14.366-13.915-1.3573 0-3.0812-1.1464-3.8311-2.5475-1.8429-3.4436-9.646-8.1192-13.55-8.1192-6.4586 0-23.968 6.9719-31.577 12.573-17.956 13.219-23.535 29.108-15.669 44.631 4.4184 8.7193 9.9306 13.108 17.739 14.124 3.4798 0.4529 8.427 1.3272 10.994 1.943 6.5799 1.5786 7.8651 1.5744 16.755-0.054zm69.499-43.926c-2.5827-3.6873-0.9893-7.6252 3.4513-8.5295 1.6288-0.3317 18.262-0.9425 36.962-1.3574 23.17-0.5141 36.973-1.4098 43.333-2.8122 18.111-3.9931 222.19-5.6392 226.78-1.8292 2.6526 2.2013 2.3414 6.2319-0.6025 7.8075-1.5947 0.8534-20.847 1.0906-53.667 0.6613-74.346-0.9725-153.99 1.1494-171.18 4.5605-10.066 1.9974-21.865 2.8775-48.143 3.5908l-34.81 0.9449zm546.88-0.5395c-4.7518-10.429 8.4534-14.356 56.589-16.831 15.555-0.7996 31.882-2.0311 36.282-2.7366 4.4-0.7056 24.8-1.8278 45.333-2.4936 46.398-1.5047 118.8-4.8979 145.33-6.8115 26.662-1.9227 104.98-2.3517 155.33-0.8509 22.367 0.6666 42.997 1.1375 45.845 1.0464 5.204-0.1664 10.155 2.7224 10.155 5.9251 0 0.8727-1.2185 2.6894-2.7079 4.0372-2.566 2.3223-4.1185 2.3674-29.667 0.8623-32.383-1.9078-155.39-1.2994-182.96 0.905-24.488 1.9578-92.842 5.3246-141.33 6.9615-21.267 0.7179-44.067 1.8738-50.667 2.5686-6.6 0.6949-22.5 1.8699-35.333 2.6112-26.837 1.5501-39.734 3.4007-42.755 6.1344-3.302 2.9882-7.7678 2.3603-9.4486-1.3285zm-827.22-6.4846c-2.6776-1.4934-2.3905-7.1205 0.4216-8.2639 2.4387-0.9917 101.26-2.5437 129-2.026 17.04 0.3181 20.667 1.258 20.667 5.3561 0 5.555 4.95 5.2755-102.42 5.7835-25.165 0.1191-46.615-0.2633-47.667-0.8497zm294.98-325.82c-1.7474-1.7474-130.17-3.4287-224.89-2.9444-131.2 0.67078-131.39 0.66819-153.33-2.0272-21.062-2.5874-24.357-4.0728-20.845-9.3953 2.489-3.7721 7.5374-4.0161 28.062-1.3563 15.508 2.0097 30.586 2.2131 135.45 1.8273 64.9-0.23878 144.1 0.11013 176 0.77524 112.25 2.3406 169.31 1.094 214.67-4.6899 47.955-6.1152 61.874-7.0384 112-7.4279 26.033-0.20231 57.008-0.76891 68.834-1.2591 21.946-0.9098 27.166-0.14136 27.166 3.9992 0 4.9065-3.7592 6.0483-19.913 6.0483-8.6476 0-18.955 0.65051-22.905 1.4456-4.2736 0.86019-22.106 1.3739-44.037 1.2686-45.385-0.21795-81.421 1.7666-111.15 6.1208-30.784 4.5094-44.35 5.4913-98.667 7.1418-53.498 1.6256-65.203 1.709-66.439 0.4734zm-407.4-14.253c-2.4352-2.9342-0.46825-43.669 3.3252-68.864 5.7308-38.062 9.6394-56.797 21.281-102 2.4551-9.5333 5.7505-23.333 7.3231-30.667 1.5726-7.3333 5.2179-19.933 8.1008-28 2.8829-8.0667 7.0208-22.167 9.1953-31.333 4.362-18.388 14.943-52.715 21.988-71.333 2.4974-6.6 8.1122-22.2 12.478-34.667 8.9325-25.51 14.411-40.266 19.305-52 1.8353-4.4 5.2339-14.57 7.5525-22.601 4.4256-15.328 13.915-38.124 18.622-44.734 1.5246-2.141 4.5139-5.1332 6.643-6.6492 3.7212-2.6497 6.3915-2.8064 68.947-4.0462 35.792-0.70936 81.576-2.1961 101.74-3.3039 20.167-1.1078 54.667-2.6193 76.667-3.3588s43.6-1.9662 48-2.726c4.4-0.75977 41-2.2653 81.333-3.3457 147.87-3.9607 166.76-4.7948 195.33-8.6226 22.354-2.9948 41.653-3.5574 107.33-3.1287 36.667 0.23934 67.052 0.45326 67.524 0.47539 2.3409 0.10987 2.2266 4.9093-0.2155 9.0484-7.3663 12.485-22.549 68.009-29.918 109.41-1.786 10.035-5.1222 28.745-7.4138 41.578-2.2918 12.833-6.5451 34.733-9.452 48.667-18.349 87.948-20.496 104.05-19.645 147.32 0.2872 14.591 0.9487 26.955 1.4702 27.477 0.5213 0.52139 6.2058 0.13571 12.632-0.85707s15.284-1.9213 19.684-2.0633c4.4-0.14203 9.6258-0.68708 11.613-1.2112 5.9916-1.5806 15.167 3.9432 27.998 16.855 11.529 11.602 16.062 18.526 20.265 30.958 4.4685 13.217-1.5843 29.632-17.691 47.979-7.8518 8.944-17.008 16.878-19.478 16.878-0.4224 0-5.4042 2.6778-11.071 5.9506-11.093 6.4073-29.181 11.383-41.38 11.383-14.649 0-30.376-7.9643-38.473-19.483-10.348-14.719-12.687-18.932-15.328-27.604-2.4579-8.0699-2.5928-10.01-1.2063-17.333 2.3983-12.666 3.9089-16.764 10.171-27.592 7.1258-12.321 11.912-17.054 23.914-23.646 10.288-5.6511 9.9652-4.8347 7.517-19.009-2.1308-12.336-1.8684-46.322 0.5395-69.88 1.9665-19.24 7.9581-55.717 12.175-74.12 2.6759-11.679 14.208-71.297 19.214-99.333 5.0612-28.345 18.221-83.003 24.922-103.51l5.0688-15.514-58.98-0.98297c-57.443-0.95735-73.275-0.60104-91.123 2.0508-19.44 2.8884-61.567 5.7365-98 6.6257-21.267 0.51902-67.467 1.6511-102.67 2.5157-35.2 0.86462-73 2.4391-84 3.4989-11 1.0598-36.5 2.2359-56.667 2.6136-20.167 0.37771-46.567 1.2849-58.667 2.0159-35.544 2.1474-99.247 3.9964-138.18 4.0105l-36.175 0.0133-3.4745 4.5553c-4.3964 5.7639-11.819 21.988-15.435 33.736-4.8507 15.761-12.975 39.336-17.36 50.376-3.9588 9.9662-6.7743 17.798-17.255 48-2.2903 6.6-6.2226 17.4-8.7383 24-6.5995 17.314-17.349 52.103-21.855 70.731-2.1372 8.8352-6.1205 22.031-8.8519 29.323s-6.3533 19.264-8.0487 26.603c-1.6954 7.3389-7.0188 28.944-11.83 48.01-4.8109 19.067-9.3767 37.967-10.146 42-5.359 28.086-10.566 62.938-11.255 75.333-1.3349 24.013-2.2865 31.362-4.3251 33.401-2.4035 2.4035-3.6672 2.433-5.5784 0.13013zm835.56-25.633c7.6984-1.5748 13.897-4.14 24.702-10.224 12.146-6.838 15.806-9.7189 23.162-18.231 20.526-23.752 20.199-38.47-1.3321-59.947-5.4242-5.4103-10.941-10.441-12.26-11.178-3.8361-2.1469-21.547-2.5524-35.996-0.82422-10.828 1.2951-15.262 2.5533-23.598 6.6974-5.6455 2.8065-12.417 6.9923-15.047 9.3019-7.0965 6.2308-14.948 20.378-17.444 31.431-1.9801 8.7683-1.9818 10.149-0.021 16.893 1.1741 4.0393 4.0795 9.9329 6.4561 13.097 2.3766 3.164 5.767 7.9069 7.5342 10.54 5.7193 8.5206 16.974 14.377 27.843 14.488 3.1474 0.0321 10.347-0.88751 16-2.0438zm37.61 637.38c0-0.3667-2.4 0.5576-5.3334 2.0541-2.9333 1.4965-5.3333 3.0208-5.3333 3.3875 0 0.3666 2.4-0.5576 5.3333-2.0542 2.9334-1.4965 5.3334-3.0208 5.3334-3.3874zm471.33-189.99c8.8-2.9481 31.3-9.2937 50-14.101s40.9-10.89 49.333-13.518c14.574-4.5401 15.102-4.8282 10.667-5.8191-2.5667-0.5734-6.7667-0.4974-9.3333 0.1688-2.5667 0.6662-12.167 2.762-21.333 4.6574-10.072 2.0826-24.316 6.3846-36 10.873-10.633 4.0846-26.42 9.7976-35.081 12.695-16.126 5.3952-27.962 10.169-25.585 10.32 0.7333 0.046 8.5333-2.3278 17.333-5.276zm127.33-41.287c2.6796-0.8582 2.8104-1.0752 0.6667-1.1067-1.4667-0.022-3.8667 0.4764-5.3333 1.1067-3.3976 1.46 0.108 1.46 4.6666 0zm-1632.4-3c11.115-3.2526 17.802-8.4138 21.087-16.276 0.97032-2.3223 1.9534-9.9358 2.1846-16.919 0.39691-11.988 0.21771-12.989-3.2112-17.939-5.1698-7.4627-13.593-13.48-21.134-15.097-5.5928-1.1994-7.0967-1.0389-10.863 1.16-2.4044 1.4036-10.072 4.1354-17.038 6.0706-12.852 3.57-18.667 6.2958-18.667 8.7507 0 0.7461-1.1847 2.9822-2.6326 4.9692-1.8548 2.5453-2.8934 6.8278-3.5152 14.494-0.79332 9.7816-0.58505 11.363 2.06 15.643 4.0938 6.6239 8.4062 9.3412 22.164 13.966 14.532 4.8846 16.611 4.9674 29.565 1.1767zm1640.7 0.7836c-0.9167-0.3699-2.4167-0.3699-3.3334 0-0.9166 0.3699-0.1666 0.6725 1.6667 0.6725s2.5833-0.3026 1.6667-0.6725zm-55.975-1.3249c-0.9027-0.3652-2.7027-0.3874-4-0.049-1.2972 0.3381-0.5587 0.6369 1.6413 0.6641 2.2 0.027 3.2615-0.2494 2.3587-0.6147zm14.975-1.7156c4.6397-0.9597 4.8132-1.1131 1.3333-1.1796-2.2-0.042-6.4 0.4199-9.3333 1.0266-4.6398 0.9597-4.8132 1.1131-1.3334 1.1797 2.2 0.042 6.4-0.4199 9.3334-1.0267zm68.656-72.743c1.3765-7.3334 2.9029-18.733 3.3921-25.333 0.4893-6.6 1.9681-16.5 3.2864-22s2.7925-16 3.276-23.333c0.9501-14.409 3.7671-33.891 6.7476-46.667 1.9237-8.2458 8.4459-38.031 12.7-58 1.3281-6.2333 4.5864-20.633 7.2407-32 2.6542-11.367 6.3014-27.867 8.1048-36.667 1.8033-8.8 5.6205-22.3 8.4825-30 2.8621-7.7 6.4036-18.2 7.8701-23.333 1.4664-5.1333 4.8754-17.133 7.5752-26.667 2.6999-9.5333 6.995-23.633 9.5446-31.333 10.617-32.064 20.064-65.222 25.832-90.667 1.5793-6.9667 3.98-16.567 5.3348-21.333 7.5425-26.538 9.3717-33.27 10.639-39.153 0.7684-3.5676 6.3905-21.568 12.494-40 19.492-58.868 27.387-83.875 30.366-96.18 1.5981-6.6 5.8409-21.214 9.4286-32.475 3.5878-11.261 6.2714-20.727 5.9636-21.034-1.2256-1.2256-10.537 23.232-20.88 54.843-5.9984 18.333-13.867 39.633-17.486 47.333-7.0737 15.051-17.42 46-27.189 81.333-3.3453 12.1-7.2527 26.2-8.6829 31.333-1.4303 5.1333-4.3959 16.533-6.5903 25.333-2.1943 8.8-7.0467 24.7-10.783 35.333-3.7363 10.633-8.5949 24.733-10.797 31.333-2.2021 6.6-8.5059 25.5-14.008 42-10.83 32.475-15.299 48.716-21.647 78.667-2.2539 10.633-6.8387 31.333-10.188 46-16.66 72.941-21.714 101.02-30.727 170.67-2.5073 19.376-3.2366 30.82-3.1021 48.667 0.097 12.833 0.4289 21.833 0.7381 20 0.3091-1.8333 1.6882-9.3333 3.0646-16.667zm157.23-583.33c0.065-1.7778-0.071-1.7778-1.2192 0-0.7109 1.1-1.2594 3.2-1.2192 4.6667l0.073 2.6667 1.1458-2.6667c0.6303-1.4667 1.179-3.5667 1.2192-4.6667zm20.824-61.667c7.1318-21.45 14.429-42.525 16.216-46.834 6.0865-14.676 20.662-56.115 26.556-75.499 3.233-10.633 8.8439-28.333 12.469-39.333 3.6248-11 7.5602-23.846 8.7452-28.546 1.1851-4.7004 7.2234-23.9 13.418-42.667 6.1951-18.766 13.716-42.82 16.713-53.454 2.9969-10.633 7.7869-26.658 10.644-35.61 5.7839-18.119 5.8836-18.593 3.529-16.735-2.026 1.5982-29.143 2.7416-91 3.8372-59.122 1.0471-67.256 0.94417-86-1.0887-17.498-1.8978-60.398-2.0376-215.33-0.70184-91.941 0.79267-132.11 1.6246-208 4.3078-37.922 1.3408-69.702 3.2311-76.667 4.5603-10.17 1.9407-35.557 2.138-42.028 0.32656-5.782-1.6188-17.448-1.7826-113.29-1.591-48.553 0.0971-65.169 0.56436-73.841 2.0767-6.1548 1.0733-13.362 1.939-16.016 1.9237-2.6539-0.0153-12.025 0.86502-20.825 1.9563-16.03 1.9878-53.492 5.6772-76 7.4847-27.331 2.1948-59.889 5.4627-78.667 7.8959-17.497 2.2672-34.352 2.7688-134.67 4.0078-79.496 0.9818-120.8 2.0046-134.67 3.3346-49.354 4.7341-111.89 6.2933-133.76 3.3353-5.3697-0.72604-23.97-1.3215-41.333-1.3233-17.364-1e-3 -39.67-0.62832-49.57-1.3923-24.894-1.9211-89.46-1.9783-108-0.0957-8.4333 0.85632-20.253 1.9292-26.266 2.3841l-10.933 0.82712-2.1742 5.4339c-2.924 7.3079-8.6273 32.878-8.6273 38.68 0 2.5626-0.61697 6.282-1.3711 8.2654-0.75408 1.9834-1.9227 8.4724-2.597 14.42-0.67423 5.9477-1.8472 14.714-2.6066 19.481-2.1514 13.505-4.4423 38.906-3.9081 43.333 0.43068 3.5693 0.81883 3.0669 3.6052-4.6667 5.3834-14.942 12.472-29.618 19.467-40.302 14.306-21.853 14.357-21.954 12.478-24.963-2.3149-3.7068-0.0144-7.2645 5.0678-7.8377 2.126-0.23976 4.4355-0.98976 5.1322-1.6667 1.6821-1.6344 6.5281-1.5693 8.2077 0.1104 0.89472 0.89472 13.057 0.92536 36.543 0.092 19.361-0.68697 35.572-1.0203 36.024-0.7407 2.1921 1.3548 177.15 0.93202 196.62-0.47512 11.733-0.84766 37.423-1.5433 57.089-1.5459 28.585-4e-3 39.147-0.52108 52.667-2.5795 26.377-4.016 31.75-4.2297 119.58-4.7565 86.739-0.52024 100.07-1.0907 152-6.5021 41.987-4.3757 76.473-6.1984 117.33-6.2017 30.379-3e-3 57.509-1.391 103.33-5.2889 18.858-1.6041 60.448-4.8865 85.333-6.7347 19.303-1.4336 143.04-3.9994 220.67-4.5756 46.861-0.34789 55.356-0.73659 70-3.2029 29.832-5.0243 39.199-5.3738 100.16-3.7379 64.849 1.7402 161.57 1.9046 181.84 0.30911 11.043-0.86923 15.852-0.57403 28 1.7189 18.172 3.43 55.019 5.1234 68.061 3.1279 5.0996-0.78023 16.679-1.753 25.731-2.1619 15.794-0.71324 16.488-0.63264 17.175 1.9943 0.4098 1.5668 1.4684 2.4488 2.4756 2.0624 0.9678-0.37137 3.0232 0.34807 4.5678 1.5987l2.8082 2.274-3.4544 12.659c-3.9088 14.325-11.998 40.7-48.046 156.66-6.8392 22-14.557 47.5-17.15 56.667-2.5931 9.1667-6.8595 23.239-9.481 31.272-2.6214 8.0331-5.6334 18.765-6.6933 23.848s-3.6795 14.711-5.8213 21.394c-5.436 16.963-5.7674 18.152-5.0588 18.152 0.3452 0 6.4629-17.55 13.595-39zm-22.642-137.62c1.9393-4.6416 2.4714-7.0267 1.308-5.8632-1.2028 1.2028-4.7375 10.487-3.9926 10.487 0.414 0 1.622-2.0807 2.6846-4.6238zm16.269-33.376c13.054-24.852 23.324-47.942 35.88-80.667 1.358-3.5396-5.7555 7.1486-8.4303 12.667-1.4219 2.9333-4.7581 9.2333-7.4139 14-2.6557 4.7667-7.8801 16.467-11.61 26-3.7296 9.5333-8.8732 21.533-11.43 26.667-4.2176 8.4671-11.333 25.494-11.333 27.119 0 1.3643 1.3614-1.0844 14.337-25.785z"/>
</svg>
