<?xml version="1.0" encoding="UTF-8"?>
<!-- Created with Inkscape (http://www.inkscape.org/) -->
<svg width="3508" height="2480" version="1.1" viewBox="0 0 3508 2480" xmlns="http://www.w3.org/2000/svg" xmlns:cc="http://creativecommons.org/ns#" xmlns:dc="http://purl.org/dc/elements/1.1/" xmlns:rdf="http://www.w3.org/1999/02/22-rdf-syntax-ns#">
 <metadata>
  <rdf:RDF>
   <cc:Work rdf:about="">
    <dc:format>image/svg+xml</dc:format>
    <dc:type rdf:resource="http://purl.org/dc/dcmitype/StillImage"/>
    <dc:title/>
   </cc:Work>
  </rdf:RDF>
 </metadata>
 <path d="m1218.5 2240.4c-9.4336-1.6605-22.555-5.5715-30.401-9.0617-6.7386-2.9974-37.9-11.69-49.953-13.936-30.95-5.7646-55.283-13.993-72.081-24.375-14.563-9.0002-39.115-19.916-54.404-24.186-3.7613-1.0506-8.9363-2.9659-11.5-4.2562-2.5638-1.2903-10.061-4.2669-16.661-6.6147-14.686-5.2242-45.192-20.088-55.872-27.224-15.017-10.033-17.857-11.641-26.969-15.275-5.0373-2.0085-12.309-5.3787-16.159-7.4893-8.4991-4.6592-18.362-8.6468-37.5-15.162-7.975-2.7148-19.225-7.1154-25-9.779-5.775-2.6637-15-6.2692-20.5-8.0122s-13.825-4.6863-18.5-6.5407c-4.675-1.8543-12.55-4.1021-17.5-4.9951-11.4-2.0565-50.903-15.184-61.195-20.336-4.2927-2.1489-8.9299-4.2534-10.305-4.6768s-7-2.9209-12.5-5.55c-5.5-2.6292-12.925-5.5641-16.5-6.5222-6.722-1.8014-16.394-6.1875-21.329-9.6725-2.3138-1.6339-3.2694-1.7972-5.246-0.8966-3.4206 1.5585-7.1986-0.1028-8.0627-3.5455-0.4436-1.7674 0.26588-6.5574 1.9678-13.285 3.4352-13.58 6.67-34.262 6.67-42.645 0-7.8467-1.6292-32.018-3.0732-45.595-1.9323-18.168-2.2241-62.895-0.50149-76.85 1.1672-9.4559 1.5393-22.087 1.5023-51-0.0271-21.137 0.0208-57.556 0.10641-80.931 0.28427-77.64 0.31435-107.25 0.13612-134-0.0971-14.575 0.30116-46.75 0.88503-71.5 0.60392-25.6 0.77132-66.124 0.3883-94-0.71256-51.858-0.0942-68.877 3.6114-99.397 1.5658-12.896 1.9446-21.544 1.7743-40.5-0.23324-25.961 0.35493-30.501 6.6958-51.686 1.5852-5.296 2.9386-13.909 3.9644-25.229 0.85663-9.4532 1.7627-17.863 2.0135-18.688 1.6164-5.3175 4.7834-32.316 5.5531-47.34 0.50268-9.8122 1.6042-21.819 2.4479-26.682s1.9822-13.71 2.5301-19.66c0.54788-5.9502 1.6551-14.194 2.4604-18.318 2.2818-11.687 4.5057-33.233 4.5057-43.654 0-10.648 1.2456-20.086 4.203-31.846 1.4122-5.6156 2.2458-13.514 2.7971-26.5 0.43194-10.175 1.5475-22.325 2.479-27 1.4222-7.1376 1.6009-12.267 1.1146-32-0.57791-23.451-0.57374-23.515 1.9968-30.5 7.4644-20.284 8.731-28.246 7.0124-44.083-1.4028-12.926-0.9159-20.971 1.9013-31.417 2.1339-7.9119 2.1932-14.117 0.5684-59.5-0.68917-19.25-1.0056-44.83-0.70328-56.844 0.42531-16.9 0.20037-24.143-0.99379-32-1.1199-7.3681-1.3776-13.861-0.93911-23.656 0.33244-7.425 0.58994-15.033 0.57221-16.908-0.0177-1.8741 0.64688-4.444 1.4769-5.7107 1.7781-2.7137 8.5018-4.7862 12.924-3.9835 1.6999 0.30857 8.9644 1.2391 16.143 2.0679s19.779 2.8264 28 4.4392c8.2211 1.6128 20.347 3.2494 26.947 3.637 12.354 0.72546 19.486 2.6881 47.5 13.07 6.7156 2.4888 8.8073 2.7803 20 2.7868 6.875 4e-3 16.55-0.16696 21.5-0.37988 9.8135-0.42212 14.895 0.83286 30.726 7.5878 8.9565 3.8217 28.369 8.8994 37.774 9.8803 9.5009 0.99094 13.194 2.3035 19.135 6.7999 6.4787 4.9035 9.4743 5.6582 22.58 5.6888 11.988 0.028 29.182 2.2514 38.319 4.955 3.556 1.0522 12.315 3.9715 19.465 6.4873s14.8 4.5856 17 4.5995c5.6815 0.036 18.958 3.1316 33.5 7.8108 31.832 10.243 41.422 12.709 64.796 16.661 8.087 1.3674 17.629 3.1393 21.204 3.9375 11.937 2.6653 31.384 7.4969 42.5 10.56 13.431 3.7004 42.103 8.7568 57 10.052 28.188 2.4508 28.597 2.5232 41.236 7.287 6.7298 2.5366 15.008 5.3303 18.396 6.2083l6.1605 1.5964 5.1035-3.4516c2.8069-1.8984 6.1471-3.9853 7.4226-4.6375s4.7214-3.2909 7.6575-5.8637c15.858-13.896 29.209-24.583 44.922-35.959 4.3443-3.1452 12.259-9.1513 17.588-13.347 10.146-7.9877 30.786-22.547 43.215-30.483 4.0141-2.5629 23.398-16.186 43.075-30.274 42.247-30.248 61.967-44.143 85.724-60.407 18.078-12.375 33.98-24.14 47-34.77 4.125-3.3678 12-9.0699 17.5-12.671 5.5-3.6013 12.475-8.4397 15.5-10.752 5.6231-4.2982 37.836-26.727 78-54.31 24.51-16.832 27.693-19.253 30.112-22.902 0.8866-1.3373 3.3616-3.6041 5.5-5.0374 2.1385-1.4333 6.9512-5.2295 10.695-8.4361l6.8069-5.8301h7.3914c4.9861 0 9.9303 0.78433 15.193 2.4102 9.3756 2.8964 25.201 6.5898 28.235 6.5898 1.2023 0 7.4466 1.7561 13.876 3.9024 6.4297 2.1463 14.165 4.2217 17.19 4.6119s11.513 2.9272 18.862 5.6378c18.769 6.923 22.619 7.5914 47.138 8.1848 23.234 0.56227 40.405 2.8604 50.178 6.716 5.3785 2.1218 17.973 5.0166 40.822 9.3827 6.9405 1.3262 18.949 4.6734 27 7.5258 27.598 9.7778 31.983 10.588 70.5 13.027 8.8 0.55721 19.6 1.6721 24 2.4775 4.4 0.8054 9.8622 1.48 12.138 1.4992 4.5198 0.0381 16.17 3.1665 32.061 8.6089 6.4679 2.2152 15.248 4.2146 24 5.4652 16.581 2.3693 23.093 4.2415 41.078 11.809 25.715 10.82 37.909 12.905 72.659 12.419 24.446-0.34136 46.386 1.1933 52.998 3.7072 2.9236 1.1116 4.3371 0.13516 16.768-11.582 4.7859-4.5113 12.622-10.784 17.414-13.94 17.912-11.796 40.873-29.612 45.658-35.428 4.9086-5.9655 14.187-14.26 34.986-31.274 6.555-5.3622 16.941-14.512 23.079-20.334 10.224-9.6956 22.403-19.482 46.974-37.745 5.0525-3.7554 13.686-10.318 19.186-14.583s12.25-9.2674 15-11.115c2.75-1.8481 8.6-7.0275 13-11.51 5.7128-5.8198 11.145-10.053 19-14.806 6.05-3.661 20.225-12.936 31.5-20.61 11.275-7.6745 27.25-18.475 35.5-24.001s18.825-12.729 23.5-16.006 12.244-8.1144 16.821-10.749 12.451-7.5385 17.5-10.897c11.681-7.7702 16.86-10.394 20.517-10.394 4.9874 0 5.6588 1.9346 5.6953 16.41 0.018 7.1996 0.4265 23.139 0.9075 35.421 0.8767 22.388 0.1853 40.497-2.6981 70.669-1.1499 12.032-1.2494 20.157-0.8024 65.5 0.099 10.011-0.4443 21.219-1.3807 28.5-2.6486 20.594-1.6406 51.241 2.4765 75.288 1.5828 9.2455 1.9489 16.485 2.0227 40 0.05 15.791-0.3805 32.087-0.9557 36.212-0.7319 5.2486-0.7202 16.806 0.039 38.5 1.7567 50.206 0.8003 72.76-4.7284 111.5-0.8241 5.775-2.1366 21.75-2.9165 35.5-1.5239 26.867-1.8702 30.053-6.4148 59-3.7434 23.844-6.6798 53.58-8.0976 82-0.6036 12.1-2.415 33.25-4.0253 47s-3.3903 34.225-3.9555 45.5c-0.5653 11.275-1.4616 25.9-1.992 32.5-0.5303 6.6-0.9749 16.815-0.9879 22.7s-0.7675 18.71-1.6766 28.5c-1.5086 16.246-1.8375 42.54-1.02 81.55 0.095 4.5375-0.4164 18.6-1.1367 31.25s-1.7002 33.35-2.1777 46c-0.4774 12.65-1.5786 32-2.4471 43s-2.0561 26.525-2.6391 34.5c-1.3333 18.237-3.5385 39.54-5.4348 52.5-0.8047 5.5-1.951 16.506-2.5472 24.458-0.5963 7.9521-1.2971 14.803-1.5575 15.224-0.2603 0.4212-0.6954 8.5399-0.9668 18.042s-0.7355 18.073-1.0314 19.048c-0.2959 0.975-1.1321 9.3-1.8582 18.5-1.1047 13.996-1.0971 19.259 0.046 32.227 4.9035 55.616 5.1217 61.855 3.9345 112.5-0.6519 27.812-0.6062 31.046 0.5529 39.082 0.6809 4.7205 0.6912 8.5517 0.031 11.491-0.8593 3.8244-0.7323 4.6846 0.9571 6.4829 3.5772 3.8077 2.4439 8.36-2.9013 11.654-6.3571 3.9171-36.233 27.807-47.194 37.738-5.7986 5.2539-17.949 16.047-27 23.985-9.0513 7.9378-22.806 20.763-30.567 28.5-21.035 20.972-33.085 32.506-40.878 39.129-3.8436 3.2664-10.594 9.35-15 13.519-8.5791 8.1172-19.904 16.774-28.012 21.414-2.75 1.5736-7.475 5.161-10.5 7.9721s-7.075 6.2083-9 7.5493-6.2 4.6188-9.5 7.284-8.7 6.4303-12 8.3671c-6.5907 3.868-18.671 12.852-28 20.823-11.716 10.011-20.079 16.308-26 19.579-3.3 1.8228-8.286 5.3656-11.08 7.8729-2.794 2.5074-8.9367 6.7126-13.65 9.3451s-10.528 6.4822-12.92 8.5549c-2.3922 2.0727-5.9245 4.8394-7.8495 6.1481-1.925 1.3088-6.9248 5.6164-11.111 9.5724-5.9273 5.602-9.9085 8.3082-18 12.236-6.693 3.2487-12.757 7.117-17.045 10.873-3.6605 3.2065-14.651 11.68-24.423 18.83-9.7723 7.15-22.083 16.871-27.357 21.601-5.2738 4.7307-11.046 9.3548-12.827 10.276-2.2506 1.1639-3.2378 2.3877-3.2378 4.0138 0 3.436-3.6732 7.6092-6.6975 7.6092-1.4038 0-5.1781 1.1783-8.3872 2.6185-6.7874 3.046-10.548 2.6948-11.493-1.0734-0.5223-2.0807-1.3922-2.5224-6.1353-3.115-3.0397-0.3798-12.56-0.3391-21.157 0.091-21.521 1.0753-33.394 0.7941-41.63-0.986-33.411-7.2215-55.465-9.5206-95-9.9034-11.272-0.1091-20.285-0.8422-30.5-2.4806-28.409-4.5565-43.679-7.1677-56.5-9.6615-8.6258-1.6778-19.225-2.839-31.5-3.4511-10.175-0.5074-26.15-2.0877-35.5-3.5118s-27.35-4.1352-40-6.0247-27.295-4.0892-32.544-4.8881c-5.9357-0.9035-12.865-2.8275-18.328-5.0888-7.1718-2.9688-11.178-3.9019-21.826-5.0837-10.479-1.1629-15.918-2.4118-27.672-6.3533l-14.63-4.9058-18.346-0.6192c-11.763-0.3969-22.044-1.3329-28.653-2.6082-5.6689-1.094-13.838-2.3641-18.154-2.8223-4.3159-0.4583-8.6346-1.1737-9.5971-1.5897-1.4961-0.6467-1.75-0.1929-1.75 3.1281 0 2.1365-0.7447 4.9476-1.6548 6.247-1.7738 2.5324-26.43 19.002-42.845 28.619-5.5 3.2223-14.725 9.0908-20.5 13.041-5.775 3.9503-14.775 9.537-20 12.415-5.225 2.8779-13.194 7.9944-17.709 11.37-4.5147 3.3757-16.215 10.592-26 16.037-9.7852 5.4449-27.916 15.861-40.291 23.146-30.959 18.227-43.833 25.262-86 46.995-82.057 42.293-90.139 46.686-103.5 56.254-2.75 1.9695-12.425 8.0102-21.5 13.424-15.572 9.2893-19.535 11.009-33.5 14.536-2.2 0.5556-6.25 1.9116-9 3.0132s-8.6 2.928-13 4.0586-15.318 4.5153-24.262 7.5216c-16.276 5.4705-17.019 5.8756-27.021 14.741-3.8355 3.3994-8.3541 3.6747-21.716 1.3227zm10.159-27.163c0.088-6.5381 0.8855-15.076 1.7973-19.249 3.4691-15.879 4.4845-22.092 6.0392-36.955 1.7992-17.2 2.0263-16.464-5.4107-17.514-2.5215-0.3561-8.1846-1.7065-12.585-3.0011-4.4-1.2945-10.475-2.6578-13.5-3.0295s-12.025-1.9652-20-3.541c-7.975-1.5759-22.6-3.8072-32.5-4.9583-9.9-1.1512-20.925-2.9304-24.5-3.9538-3.575-1.0235-8.8512-2.3454-11.725-2.9377-2.8737-0.5923-9.0784-2.6307-13.788-4.5298-4.7098-1.8991-11.125-3.9847-14.256-4.6347s-12.676-3.7793-21.212-6.954c-8.5355-3.1747-18.444-6.5731-22.019-7.552-7.7913-2.1335-39.011-13.867-43.979-16.529-5.6868-3.0469-18.491-7.727-26.804-9.7969-10.191-2.5376-31.087-10.871-40.178-16.022-3.9969-2.2649-10.478-5.5186-14.403-7.2305-3.9248-1.7118-8.9359-4.1392-11.136-5.3941-4.9814-2.8416-24.537-10.862-34.385-14.103-4.062-1.3368-13.287-5.1286-20.5-8.4263-14.125-6.4579-29.991-12.202-38.694-14.009-6.628-1.3761-15.474-5.1715-41.356-17.743-17.963-8.7256-20.436-9.6627-25-9.4761-6.9237 0.2831-20.07-4.8471-22.001-8.586-2.0979-4.0605-3.425-9.9657-3.9601-17.621-0.7017-10.038 1.029-49.95 2.4607-56.747 1.2131-5.7592 0.71864-26.453-2.1447-89.753-0.5349-11.825-1.1964-28.25-1.47-36.5-0.27363-8.25-0.94426-19.5-1.4903-25-0.67511-6.8-0.62689-22.48 0.15067-49 0.68799-23.465 0.83637-48.958 0.3725-64-0.85051-27.58-0.9041-31.925-0.6721-54.5 0.23133-22.51-0.60792-69.459-1.3286-74.325-0.37338-2.5212 0.0639-7.3435 1.104-12.175 1.0164-4.7214 1.662-11.682 1.5753-16.984-0.11362-6.9451 0.44818-11.144 2.4753-18.5 1.4422-5.2338 2.9714-12.666 3.3981-16.516 2.3704-21.386 3.2912-27.346 5.0812-32.886 1.2594-3.8979 2.3237-11.297 2.9363-20.413 0.52849-7.8645 1.6373-18.803 2.4641-24.308 2.2223-14.796 3.9095-38.691 3.7347-52.893-0.41982-34.115-0.0987-50.525 1.2371-63.212 0.80484-7.6448 1.6803-14.251 1.9456-14.68s1.1676-9.7414 2.0054-20.694c2.6347-34.446 3.6617-45.605 5.192-56.414 0.81758-5.775 2.1444-16.575 2.9485-24 0.80408-7.425 1.6609-14.175 1.904-15s1.1408-8.475 1.9948-17c0.85398-8.525 2.0487-18.875 2.6549-23 0.60623-4.125 1.2225-11.775 1.3694-17 1.2591-44.777 3.8841-96.445 5.4616-107.5 0.47088-3.3 0.88665-16.35 0.92392-29 0.0678-23.01 0.9172-34.121 3.8987-51 1.2749-7.2178 1.6297-18.076 1.7917-54.831 0.11109-25.207 0.51642-49.187 0.90074-53.288 0.38431-4.1012 0.83713-15.217 1.0063-24.703 0.31919-17.901 1.2266-22.543 5.0198-25.678 5.7758-4.7736 61.2 2.7797 128.49 17.512 5.775 1.2642 13.483 3.4255 17.128 4.8028 7.527 2.8439 14.81 4.408 40.372 8.6711 9.9 1.651 22.5 4.3232 28 5.9382 26.584 7.8058 38.335 10.198 61.993 12.618 7.6961 0.78723 14.631 1.6763 15.411 1.9756 0.7802 0.29937 7.8063 1.2153 15.614 2.0354s22.247 2.8339 32.089 4.4751 23.293 3.4712 29.893 4.0667 15.15 1.9029 19 2.9053c3.85 1.0024 11.5 2.1143 17 2.4708s13.15 1.3069 17 2.112c3.85 0.80512 11.95 1.729 18 2.0531 10.09 0.5405 28.206 3.8991 42.5 7.879 3.025 0.84229 9.8563 1.9846 15.181 2.5386 10.324 1.0741 28.558 3.9938 38.154 6.1093 5.3748 1.185 5.9152 1.1425 6.8559-0.53834 0.5616-1.0036 1.8203-2.509 2.797-3.3452 1.5169-1.2988 1.7028-2.7062 1.2746-9.6495-0.3715-6.0255 0.065-10.918 1.6867-18.907 2.0812-10.253 2.1671-19.607 0.205-22.318-1.3795-1.9061-9.518-5.6374-20.857-9.5625-10.439-3.6136-13.408-4.194-25.797-5.0432-26.526-1.8182-61.879-8.1817-87.5-15.75-5.225-1.5434-11.975-3.1158-15-3.494-3.025-0.37826-7.75-1.2974-10.5-2.0425-2.75-0.74511-11.975-2.5315-20.5-3.9698-20.613-3.4776-37.12-7.432-56.5-13.535-23.558-7.4184-32.958-9.7949-43.05-10.884-6.6809-0.72116-12.572-2.279-22.5-5.9498-7.3972-2.7351-15.389-5.4923-17.758-6.1272-6.4771-1.7352-27.326-4.1532-30.292-3.5133-3.4401 0.74224-19.332-1.2683-23.374-2.9572-1.7554-0.73346-5.2772-2.9255-7.8263-4.8712-3.9075-2.9826-5.6987-3.6334-11.417-4.1476-11.537-1.0376-32.069-6.5453-46.282-12.415l-13.5-5.5754-20.532 0.30092c-22.768 0.33367-26.697-0.26502-41.468-6.3176-4.4-1.803-10.475-3.8496-13.5-4.5478s-6.8182-1.9374-8.4293-2.7537c-1.8292-0.9268-8.0259-1.7976-16.5-2.3186-8.0937-0.49762-18.01-1.8592-24.571-3.3735-9.5041-2.1939-20.494-4.0044-37.197-6.1283l-4.1971-0.53368-1.1712 4.3033c-1.2536 4.606-0.69609 18.573 1.1179 28.006 0.57841 3.0076 1.1782 27.993 1.3875 57.798 0.24059 34.261 0.79355 55.395 1.5917 60.834 1.5988 10.895 0.75788 26.249-2.0823 38.018-2.1679 8.9834-2.2069 9.9102-0.98829 23.5 1.1242 12.537 1.0759 15.287-0.4237 24.148-0.93077 5.5-3.038 13.825-4.6827 18.5-4.8148 13.686-5.0263 15.195-3.7635 26.862 1.3606 12.57 0.51501 33.208-1.8084 44.138-0.98763 4.6463-1.6579 13.207-1.7615 22.5-0.14019 12.569-0.68217 17.46-3.3443 30.18-2.182 10.426-3.177 17.943-3.177 24.001 0 9.8797-3.1378 39.106-5.3486 49.818-0.79457 3.85-1.7577 11.05-2.1403 16-0.38257 4.95-1.1178 11.25-1.6337 14-1.8562 9.8926-2.7806 18.211-3.3898 30.5-0.68597 13.84-2.5603 29.794-5.4627 46.5-1.0511 6.05-2.3875 17.079-2.9698 24.509-0.58951 7.5224-1.9664 16.608-3.1068 20.5-7.2609 24.783-7.117 23.76-7.9471 56.491-0.42542 16.775-1.286 33.63-1.9123 37.455-1.2216 7.4605-2.6018 27.93-4.0483 60.045-0.62335 13.839-0.5412 25.083 0.26666 36.5 1.275 18.019 1.2219 27.074-0.52181 89-0.64271 22.825-1.2656 70.3-1.3841 105.5-0.11856 35.2-0.56907 77.725-1.0011 94.5s-0.71479 35.225-0.62826 41c0.70917 47.333 0.12312 94.31-1.3139 105.32-1.222 9.3635-1.44 17.675-1.0094 38.47 0.30209 14.59 0.97678 30.392 1.4993 35.117 1.7898 16.184 3.3157 44.589 2.7714 51.591-0.29927 3.85-1.7029 13.525-3.1192 21.5s-2.5807 14.577-2.5876 14.67c-7e-3 0.094 1.3431 0.4683 3 0.8323 2.7276 0.599 4.5774 2.3683 10.726 10.258 1.1494 1.475 4.3513 2.9728 9.2101 4.3084 4.0965 1.126 12.233 4.2709 18.082 6.9888s11.047 4.939 11.552 4.9358c0.50487 0 5.6429 2.2043 11.418 4.9055 12.781 5.9784 44.845 16.397 58.5 19.009 5.5 1.052 13.15 3.0896 17 4.528s12.857 4.5687 20.015 6.9561c7.1581 2.3875 15.933 5.8181 19.5 7.6236 3.5669 1.8055 14.862 6.0869 25.101 9.5142 20.206 6.7639 33.547 12.174 41.385 16.78 2.75 1.6164 8.8804 4.4212 13.623 6.2328 11.752 4.4887 17.156 7.3514 25.377 13.443 8.7222 6.4627 42.152 22.89 57.498 28.254 6.3259 2.2112 13.527 5.0251 16.002 6.2532s6.3 2.8062 8.5 3.5069c21.119 6.7265 47.757 18.385 61.442 26.892 14.274 8.8726 39.57 17.609 64.058 22.124 15.837 2.9197 44.818 10.898 56.85 15.649 10.775 4.2557 24.706 8.0671 30.15 8.2493l2.5 0.084 0.1588-11.749zm17.421 6.2094c4.7547-2.4587 33.484-12.405 44.42-15.378 5.5-1.4954 11.445-3.4776 13.21-4.4049 1.7657-0.9274 6.2214-2.3844 9.9016-3.2379 9.3942-2.1787 20.216-8.0161 42.997-23.193 18.166-12.103 35.578-22.329 53.146-31.213 9.7602-4.936 24.271-12.506 32.246-16.821 7.975-4.3156 25.975-13.95 40-21.41 24.319-12.936 56.194-31.37 77.258-44.68 5.3667-3.3913 15.742-9.4819 23.055-13.535 18.177-10.073 25.826-14.82 35.072-21.77 4.3368-3.2596 10.984-7.4869 14.771-9.394s13.064-7.6503 20.615-12.763c7.5511-5.1123 16.429-10.8 19.729-12.64 6.3501-3.5402 35.452-22.6 39.23-25.693 2.0889-1.7101 2.2715-2.8731 2.8766-18.326 0.4406-11.252 0.2816-17.772-0.4999-20.5-0.6302-2.2-1.5669-10.773-2.0814-19.05-0.9071-14.594-1.5147-18.45-2.9074-18.45-0.3672 0-6.2815 3.2739-13.143 7.2752-11.513 6.7138-32.02 17.077-113.98 57.598-16.775 8.294-35.45 18.084-41.5 21.755s-13.925 8.3175-17.5 10.324-9.2703 5.696-12.656 8.198c-8.8018 6.504-20.287 13.054-31.976 18.235-5.5728 2.4703-13.041 6.2719-16.596 8.448-22.635 13.854-65.123 36.33-79.521 42.066-5.525 2.2012-14.254 6.7698-19.398 10.153-10.886 7.1593-15.088 9.371-27.352 14.4-9.2814 3.8058-24.014 11.968-38 21.053-8.9135 5.7898-21.466 13.453-34.406 21.004-8.4226 4.9149-8.579 5.0762-8.2806 8.5407 0.2055 2.3847-0.3523 4.3658-1.7181 6.1022-1.6343 2.0777-2.2265 5.0969-3.0855 15.732-1.1346 14.047-3.1628 27.176-5.5791 36.115-1.5998 5.918-3.1851 27-2.0304 27 0.3848 0 2.0407-0.6935 3.6798-1.5412zm-5.2458-107.21c0.6789-8.1125 1.695-17.9 2.2581-21.75s0.9278-18.7 0.8104-33c-0.1175-14.3 0.3004-42.65 0.9285-63 0.6282-20.35 1.1063-49.6 1.0625-65-0.2282-80.335-0.3132-76.783 2.4657-103 1.4574-13.75 3.5483-31.975 4.6464-40.5 1.0982-8.525 2.4584-20.45 3.0227-26.5s2.3604-19.208 3.9913-29.24 3.6448-26.618 4.4753-36.858 2.2043-24.307 3.0528-31.26c0.8486-6.9532 1.9632-24.567 2.477-39.142 0.5137-14.575 1.6089-35.95 2.4337-47.5s1.5045-27.3 1.5105-35c0.01-7.7 0.8925-22.775 1.9698-33.5 1.7936-17.854 2.4792-28.264 5.0716-77 0.8253-15.515 1.6319-25.926 3.9513-51 0.5342-5.775 0.9911-24.45 1.0154-41.5 0.048-33.418 0.1404-34.242 7.1424-63.5 3.2015-13.377 3.2367-35.68 0.076-48-2.7916-10.88-2.8946-25.02-0.273-37.5 1.0398-4.95 2.2151-11.632 2.6118-14.848l0.7212-5.848-6.1329 4.7627c-4.8414 3.7596-6.7724 6.116-9.1694 11.189-3.3726 7.1382-13.124 17.737-21.453 23.316-2.75 1.8422-9.2185 7.4171-14.374 12.389-7.4339 7.1681-11.951 12.869-21.823 27.539-17.817 26.478-22.791 33.517-31.803 45-4.4 5.6067-10.475 13.678-13.5 17.935-3.025 4.2575-7.1671 9.6711-9.2046 12.03-2.0376 2.3591-5.526 7.7901-7.752 12.069-6.1539 11.828-21.549 30.9-43.257 53.585-5.3028 5.5416-8.7493 10.214-10.858 14.72-2.8992 6.1954-3.1487 7.6725-4.0613 24.044-0.9411 16.884-0.8909 17.805 1.5668 28.714 2.1495 9.5421 3.4048 12.722 8.1826 20.728 6.1536 10.312 11.287 16.556 15.328 18.646 1.4272 0.738 7.7565 2.1015 14.065 3.03 11.723 1.7254 25.87 6.3801 37.999 12.503 3.2091 1.6199 12.859 4.9799 21.445 7.4666 18.05 5.2278 21.229 6.6873 29.427 13.51 7.2541 6.0369 32.723 35.388 35.841 41.304 2.0423 3.8752 2.2241 5.6058 2.25 21.415 0.024 14.475-0.3678 19.147-2.4718 29.498-1.4339 7.0544-2.4999 15.712-2.4998 20.301 1e-4 5.4829-0.6731 10.048-2.1388 14.502-5.5452 16.851-10.959 29.53-18.056 42.288-6.6158 11.893-9.1713 15.394-17.706 24.254-6.9955 7.2629-11.684 13.261-15.701 20.087-3.1502 5.3526-8.0403 12.463-10.867 15.801s-9.3615 11.694-14.522 18.569c-6.0613 8.0752-15.437 18.518-26.487 29.5-15.666 15.571-17.55 17.829-22.397 26.859-2.9107 5.4225-5.952 12.398-6.7585 15.5-0.8065 3.1026-5.6328 13.741-10.725 23.641-11.046 21.475-12.604 25.62-16.73 44.5-3.9132 17.908-7.8003 29.148-13.043 37.713-2.2145 3.618-6.2639 10.975-8.9989 16.35-2.7349 5.3744-6.7547 11.796-8.9328 14.271-4.7088 5.3495-12.826 9.6669-18.174 9.6669-5.131 0-11.109-3.187-13.541-7.2189-3.3332-5.5258-5.4777-23.576-5.0731-42.7 0.2685-12.696-0.099-19.571-1.5683-29.337l-1.919-12.755 2.6758-16.745c1.8845-11.793 2.6738-20.489 2.669-29.407 0-6.9641 0.6406-16.046 1.432-20.182 1.5269-7.9804 1.6526-6.3345-3.4489-45.156-0.6505-4.95-2.2942-11.7-3.6526-15-1.3585-3.3-3.5172-8.925-4.797-12.5-6.7538-18.865-14.157-36.297-18.121-42.668-2.4527-3.9425-5.3206-9.1175-6.373-11.5-2.7306-6.1813-8.5781-29.491-10.494-41.832-0.89657-5.775-2.3834-14.55-3.304-19.5-3.4131-18.352-1.4814-48.306 3.9981-62 1.1004-2.75 3.7098-10.522 5.7987-17.27 4.2561-13.75 11.109-27.402 20.307-40.452 3.3811-4.7972 11.466-16.722 17.966-26.5 6.5-9.7779 13.272-19.834 15.05-22.346 4.8205-6.8152 10.676-24.384 11.768-35.312 2.6499-26.505 2.2921-30.782-3.8165-45.62-4.0844-9.9209-8.0761-16.801-17.574-30.291-12.489-17.738-14.977-27.005-10.874-40.512 1.1708-3.8544 2.1287-8.9723 2.1287-11.373 0-5.4923-2.8848-15.86-7.4438-26.752-4.3485-10.389-7.8902-16.295-17.698-29.512-4.2032-5.6638-9.8061-13.582-12.451-17.597-4.1274-6.2649-6.5731-8.5861-17.261-16.381-6.8485-4.9952-15.656-12.007-19.572-15.582s-9.8698-8.5962-13.23-11.158c-7.778-5.9296-19.769-19.622-25.92-29.599-2.6255-4.2584-5.9739-9.3175-7.4408-11.242s-4.3452-6.3913-6.3964-9.9251c-2.0511-3.5339-5.6652-8.9339-8.0312-12-4.0441-5.2404-16.556-25.97-16.556-27.43 0-0.3682-1.617-4.0305-3.5933-8.1384-3.1543-6.5565-3.6599-8.677-4.1381-17.356-0.95179-17.273 1.658-26.844 11.248-41.249 6.7898-10.199 12.006-15.455 21.357-21.522 3.0947-2.0075 8.85-5.8393 12.79-8.515 3.9396-2.6756 15.865-8.9394 26.5-13.92 10.635-4.9801 22.037-10.365 25.337-11.966 9.4817-4.6009 32.15-13.049 41.998-15.652 4.9489-1.3081 12.149-3.4455 16-4.7498 6.5307-2.2118 11.18-2.9174 36.881-5.5973 7.7798-0.81121 11.392-1.7507 17-4.4208 11.472-5.4628 14.762-6.1493 21.953-4.5816 3.3921 0.73947 12.692 1.4184 20.667 1.5088 12.104 0.13718 15.574 0.53301 21 2.3954 4.2792 1.4688 10.6 2.5185 18.5 3.0722 6.6 0.46262 13.35 1.2995 15 1.8597 1.65 0.56022 6.5 1.2764 10.778 1.5916 8.6862 0.63991 26.176 4.7772 31.65 7.4872 1.9649 0.97266 6.4975 3.3113 10.072 5.1969s10.182 4.9078 14.683 6.7159c6.5512 2.6319 9.8983 4.8236 16.785 10.991 17.204 15.406 19.462 17.015 27.755 19.777 4.3379 1.4447 9.8631 4.1349 12.278 5.9783l4.3909 3.3517 0.5524-4.7021c0.3038-2.5862 1.701-11.002 3.1049-18.702 2.873-15.758 3.1462-21.244 2.0163-40.5-0.6108-10.412-0.423-16.284 0.8213-25.67 0.8873-6.6935 1.6133-16.036 1.6133-20.761 0-4.7249 0.6545-12.748 1.4544-17.83 0.8-5.0816 1.91-14.864 2.4669-21.739s1.9043-15.373 2.9944-18.884 2.4712-10.711 3.0691-16 1.9977-14.523 3.1108-20.52c2.318-12.489 1.5805-14.602-3.2808-9.3976-2.7055 2.8963-3.1161 3.01-9.0743 2.5132-3.4323-0.28618-11.19-1.4719-17.24-2.635-6.05-1.163-15.275-2.5715-20.5-3.1299s-14.225-2.3218-20-3.9187c-19.351-5.351-28.423-7.1369-40.5-7.9729-6.6-0.45689-13.307-1.3464-14.904-1.9768s-9.0223-1.8309-16.5-2.6678-16.152-2.1543-19.275-2.9273c-3.1237-0.77306-11.449-2.1065-18.5-2.9632s-16.646-2.2214-21.321-3.0325c-16.275-2.8239-33.564-5.3987-43.327-6.4525-5.4047-0.58341-11.786-1.4999-14.182-2.0367-2.3952-0.53678-8.3232-1.2528-13.173-1.591s-11.293-1.226-14.318-1.9728-9.4088-1.8015-14.186-2.3439c-4.7775-0.54238-12.652-2.1586-17.5-3.5916-23.981-7.0891-29.195-8.4834-33.814-9.0403-17.177-2.0713-46.667-8.1113-53.866-11.032-3.2262-1.3091-8.6262-2.8715-12-3.472-3.3738-0.60049-10.409-2.1329-15.634-3.4053s-12.425-2.8065-16-3.4089c-10.863-1.8306-29.929-5.2102-40.5-7.1788-12.822-2.3878-45.217-6.2836-46.896-5.6396-1.0006 0.38396-1.3569 7.8537-1.6141 33.836-0.18155 18.339-0.24682 36.043-0.14506 39.343 0.7284 23.62 0.31698 66.814-0.68587 72.01-2.7351 14.169-4.2043 32.989-4.2538 54.49-0.0285 12.375-0.44461 25.2-0.92473 28.5-1.192 8.1928-2.8266 35.588-4.0573 68-1.3704 36.091-2.5269 57.049-3.2088 58.153-0.30833 0.4989-1.2794 7.6436-2.1578 15.877-1.5644 14.662-2.981 25.89-6.0526 47.97-2.5301 18.188-5.3888 47.888-6.449 67-0.54915 9.9-1.9592 24.3-3.1334 32-1.9766 12.962-2.0879 16.448-1.5001 47 0.65226 33.902-0.17829 54.11-2.9991 72.972-0.82025 5.4848-1.9646 17.172-2.5431 25.971-0.7527 11.45-1.7082 18.139-3.3607 23.528-1.27 4.141-2.5944 10.004-2.9432 13.029-2.4001 20.815-3.8374 29.484-6.051 36.5-1.8641 5.9077-2.5282 10.223-2.5392 16.5-8e-3 4.675-0.62888 11.2-1.3793 14.5-1.088 4.7846-1.3034 17.748-1.0632 64 0.29884 57.544 0.32855 111.55 0.0894 162.5-0.0684 14.575 0.45602 36.85 1.1654 49.5 1.4891 26.553 3.4113 71.773 3.762 88.5 0.13262 6.325 0.57282 16.458 0.97822 22.517 0.5516 8.2445 0.34137 13.404-0.83534 20.5-1.6873 10.175-3.3959 54.55-2.2936 59.568 0.71372 3.2495 0.73221 3.2597 15.591 8.5861 4.675 1.6759 14.575 5.9647 22 9.5308 19.357 9.2967 37.803 16.95 42.884 17.792 6.8221 1.1307 30.499 9.7554 42.116 15.341 5.775 2.7769 13.875 6.1451 18 7.485 15.597 5.066 50.585 20.928 66 29.921 6.1029 3.5604 26.69 11.413 34.856 13.295 7.3632 1.6971 20.063 6.375 27.397 10.091 6.8148 3.4533 34.186 13.93 42.344 16.207 3.797 1.06 13.654 4.3875 21.904 7.3944s17.475 6.0384 20.5 6.7366 10 2.98 15.5 5.0707c14.271 5.4247 24.093 7.6246 48.5 10.863 11.825 1.5689 26.225 3.8022 32 4.963 5.775 1.1609 15.016 2.7776 20.536 3.5929 5.5197 0.8153 12.045 2.203 14.5 3.0839 5.0379 1.8075 11.224 3.1883 15.014 3.3511l2.5498 0.1096zm28.633-2.749c26.172-17.018 48.622-30.037 60.25-34.941 11.316-4.7725 17.813-8.1891 25.783-13.558 8.2458-5.5547 12.376-7.7127 22.5-11.756 12.688-5.0667 66.366-33.512 76.01-40.279 1.3802-0.9686 10.83-5.8296 21-10.802s22.766-12.024 27.99-15.67c17.694-12.347 47.286-29.306 67.285-38.561 6.168-2.8543 14.14-6.9152 17.715-9.0242s13.148-6.757 21.273-10.329 23.824-11.285 34.887-17.141c11.063-5.8555 22.865-11.892 26.227-13.415 3.3621-1.5225 10.613-5.4216 16.113-8.6645 9.1054-5.3687 14.738-8.1435 19.885-9.7961 1.64-0.5266 1.8059-1.2856 1.2751-5.8348-0.3356-2.8762-1.0876-14.526-1.6712-25.889-0.9911-19.298-0.9268-21.302 0.9749-30.409 1.2067-5.7787 2.0359-13.554 2.0359-19.09v-9.3407h-3.9484c-8.7675 0-31.166-9.2729-38.395-15.895-10.336-9.4693-16.099-21.556-19.836-41.605-1.7237-9.248-1.9574-13.389-1.4669-26 0.3209-8.25 1.3047-18.6 2.1863-23 3.1214-15.578 3.0559-22.045-0.341-33.624-4.2847-14.607-7.0511-29.634-8.2827-44.993-0.9001-11.224-1.7888-15.531-5.9413-28.791-3.9194-12.515-5.4346-16.053-7.6789-17.931-1.5377-1.2864-13.355-8.5496-26.261-16.141-12.906-7.5909-27.205-16.794-31.776-20.452-4.5705-3.6578-10.512-7.9488-13.203-9.5357-2.6913-1.5869-8.1923-5.5452-12.224-8.7962-4.0321-3.2511-9.8061-7.4909-12.831-9.4218-6.9952-4.4653-14.088-12.082-17.475-18.765-2.5358-5.004-6.9432-16.982-10.137-27.549-1.9446-6.4332-1.1063-16.012 2.0543-23.474 9.0959-21.476 11.037-26.468 13.223-34.004 1.3524-4.663 3.1097-11.572 3.9052-15.353 3.6872-17.528 14.244-36.572 26.773-48.293 9.7182-9.0924 19.293-14.9 33.478-20.307 5.5077-2.0992 13.784-5.8221 18.391-8.2731 12.616-6.7115 13.612-6.9363 34.785-7.8505l19.496-0.8419 6.5039 3.6091c3.588 1.991 10.315 7.3022 15.004 11.847 7.9451 7.6999 9.5472 8.7339 24.542 15.839 12.077 5.723 17.082 7.6017 20.25 7.6017 4.0757 0 4.2087-0.1021 4.2323-3.25 0.014-1.7875 0.439-5.05 0.9455-7.25 2.8047-12.181 5.2504-29.841 6.0344-43.575 1.0608-18.584 4.1599-37.79 7.6525-47.425 3.9172-10.806 5.7397-17.437 4.9968-18.18-0.3721-0.372-4.6089 1.3151-9.4151 3.7491-13.289 6.7299-20.831 14.628-27.264 28.549-9.8388 21.291-12.382 25.714-18.081 31.451-3.0833 3.1036-8.1509 6.888-11.261 8.4098-9.5415 4.6682-13.979 3.6034-42.584-10.219-13.6-6.5712-19.981-12.314-24.989-22.488-3.1694-6.4387-3.2864-7.0841-2.7188-15 0.9202-12.833 2.3316-23.575 4.1748-31.772 1.236-5.4971 1.5342-9.9543 1.1165-16.69-0.6503-10.486-2.8379-17.773-9.0622-30.185-9.5685-19.08-23.291-58.377-25.98-74.396-1.365-8.1334-1.4691-11.874-0.6211-22.317 1.0579-13.028 2.916-22.807 5.5159-29.029 0.8336-1.995 1.5156-5.5342 1.5156-7.8648 0-8.3094 8.732-21.526 19.278-29.179 2.8719-2.084 9.4046-7.5436 14.517-12.132 8.1881-7.3496 11.126-9.2239 24.669-15.737 15.308-7.3622 26.761-11.051 41.656-13.416 3.6411-0.57812 10.841-2.873 16-5.0996 12.286-5.3028 12.38-5.3602 12.38-7.5635 0-1.6574-1.0501-1.9681-8.5-2.5154-4.675-0.3434-12.04-1.207-16.366-1.9192-10.393-1.7107-23.726-0.23138-31.89 3.5384-7.0856 3.2715-15.041 3.7085-22.743 1.2493-3.025-0.96574-7.4836-2.2397-9.908-2.8311-8.4538-2.0621-12.318-8.9044-12.374-21.913-0.041-9.5488 3.8185-18.495 9.7073-22.5 2.7275-1.8549 5.2316-4.6852 6.5601-7.4148 3.4709-7.1316 10.59-16.433 14.183-18.529 4.6877-2.7354 13.309-11.063 17.617-17.017 2.0055-2.7715 6.5866-8.3432 10.18-12.382 10.228-11.494 29.095-22.282 54.242-31.015 6.4393-2.2364 15.278-6.1407 19.642-8.6762 6.5107-3.783 9.1575-4.7316 14.753-5.2879 6.5569-0.65179 6.8443-0.79309 7.4797-3.6778 8.1325-36.921 11.111-62.786 11.516-100 0.2579-23.675 2.0577-40.549 6.453-60.5 1.6357-7.425 3.4357-17.775 3.9999-23 0.5643-5.225 1.2672-10.175 1.5622-11 0.2949-0.825 0.9425-7.8 1.439-15.5s2.033-19.4 3.4144-26c2.3736-11.34 3.3606-24.5 1.8375-24.5-0.3824 0-5.4449 4.667-11.25 10.371-10.537 10.353-15.447 13.722-22.055 15.131-4.6277 0.98653-12.658 5.0834-25.387 12.951-5.7327 3.5435-14.691 8.4372-19.908 10.875-5.2165 2.4377-12.668 6.4916-16.559 9.0086-3.8909 2.517-11.028 6.6724-15.86 9.2342-16.902 8.9602-39.455 24.77-55.091 38.617-4.1533 3.6784-9.8339 7.9043-12.623 9.3908s-10.247 6.3888-16.572 10.894c-6.325 4.5052-13.75 9.6967-16.5 11.537s-7.5619 5.6931-10.693 8.5624c-3.6736 3.3665-10.389 7.6489-18.932 12.073-9.4647 4.901-15.112 8.5848-19.807 12.921-3.6123 3.3362-9.9428 8.1021-14.068 10.591s-11.55 7.0094-16.5 10.046c-4.95 3.0362-14.062 8.3576-20.25 11.825-10.978 6.1523-12.276 7.2203-10.277 8.4556 1.9907 1.2303 5.4538 20.017 5.129 27.823-0.104 2.4982 0.5387 4.6925 1.8699 6.3849 2.2709 2.887 2.6822 8.2551 0.7783 10.159-0.8345 0.83432-1.2916 4.9732-1.3752 12.45-0.3186 28.51-7.2867 45.132-27.962 66.7-4.4813 4.675-8.8462 9.87-9.6998 11.544-3.3257 6.5242-6.0865 20.927-7.1796 37.456-0.8325 12.588-3.4573 21.891-9.6713 34.277-11.875 23.669-24.259 34.318-35.866 30.84-5.1661-1.5478-9.3005-6.5594-14.627-17.73-3.4698-7.2772-6.1775-11.174-12.24-17.615-17.696-18.802-22.435-30.402-23.742-58.118-0.4173-8.8481-1.038-14.243-1.5364-13.352-0.4599 0.82184-1.2827 7.7426-1.8285 15.379-0.5457 7.6369-1.4491 16.294-2.0075 19.239-0.5584 2.9445-1.0153 9.7785-1.0153 15.187s-0.7301 14.684-1.6224 20.614c-1.2808 8.5096-1.4498 13.624-0.8027 24.28 1.1978 19.724 0.7023 28.986-2.3003 42.994-2.2558 10.524-2.6197 14.329-2.2954 24.006 0.212 6.325 0.3314 14.875 0.2654 19s-0.1584 18.256-0.2052 31.403c-0.081 22.859-1.4592 38.311-4.0157 45.035-2.3035 6.0586-6.1889 28.212-7.6092 43.387-0.8586 9.1717-2.428 20.608-3.4877 25.415-2.4616 11.165-2.4213 22.93 0.1155 33.761 4.3175 18.434 3.7491 33.906-2.1861 59.5-5.4144 23.349-5.8463 27.756-5.8795 60-0.017 16.5-0.4524 34.275-0.9675 39.5-2.4498 24.848-6.2871 78.072-7.4981 104-0.2954 6.325-1.2171 15.775-2.0482 21s-1.9388 21.2-2.4616 35.5c-0.5227 14.3-1.4132 31.175-1.9788 37.5-0.5657 6.325-1.4574 23.425-1.9816 38-0.5338 14.841-2.0445 36.179-3.4339 48.5-1.3645 12.1-2.7647 26.275-3.1117 31.5s-2.1684 19.175-4.0475 31c-1.8792 11.825-3.8908 27.125-4.4702 34-0.5795 6.875-1.7002 16.325-2.4905 21s-1.9298 13.9-2.5322 20.5-1.9776 19.425-3.0561 28.5c-2.5028 21.061-3.5175 55.095-2.0571 69 0.8465 8.0601 0.7191 23.745-0.5482 67.5-0.908 31.35-1.5352 70.275-1.3939 86.5 0.1978 22.703-0.1067 32.017-1.3213 40.424-0.8681 6.0082-1.5783 13.107-1.5783 15.776v4.8517l3.2171-1.6637c1.7694-0.915 6.8319-4.014 11.25-6.8867zm270.5-1034.9c-12.975-4.7822-23.566-12.264-36.471-25.763-8.3565-8.7414-10.935-12.255-15.691-21.38-6.0514-11.61-8.4661-21.007-7.2569-28.241 1.0152-6.0723 3.5235-13.412 6.1569-18.017 6.0126-10.513 22.248-10.832 34.71-0.68139 5.2835 4.3034 5.4261 4.3525 7.1414 2.4572 2.2086-2.4405 6.624-2.4934 8.7852-0.10521 0.9669 1.0684 1.655 3.5137 1.655 5.8813 0 3.4306 0.5198 4.4491 3.3871 6.636 4.3773 3.3388 11.748 13.703 16.68 23.454 5.15 10.182 7.2549 20.632 6.7738 33.629-0.3297 8.905-0.7082 10.669-3.2033 14.927-4.4957 7.6714-13.571 10.555-22.666 7.2029zm8.4595-26.558c-0.079-11.905-0.9825-15.093-7.5575-26.652-4.6784-8.225-8.2851-12.356-14.272-16.348-2.0623-1.375-5.6287-3.9635-7.9255-5.7522-8.1316-6.3329-13.1-9.2478-15.763-9.2478-2.2138 0-2.9832 0.71867-4.3042 4.0202-0.8847 2.2111-1.6086 6.4952-1.6086 9.52 0 11.194 11.22 28.347 28.205 43.116 6.7623 5.8804 18.327 12.443 21.295 12.085 1.8627-0.2246 1.9952-0.9618 1.9307-10.741zm709.57 970.55c9.075 0.026 20.478 0.3693 25.341 0.7628l8.8409 0.7156-0.7099-8.5222c-0.8831-10.602 1.1386-53.228 3.0356-64.003 2.492-14.155 2.6571-15.78 1.6655-16.396-0.5349-0.3322-13.28-0.2207-28.323 0.2477-15.043 0.4685-30.95 0.9159-35.35 0.9944-9.5757 0.1707-36.724-2.0067-43.309-3.4736-2.58-0.5747-16.616-1.2234-31.191-1.4415-26.25-0.3928-47.784-2.3163-66.878-5.9736-4.1921-0.803-11.447-1.9254-16.122-2.4941s-13.045-2.1183-18.601-3.4434c-12.881-3.0725-33.406-4.8248-59.399-5.0712-11.275-0.1069-27.025-0.9109-35-1.7868-7.975-0.8758-19.225-2.0707-25-2.6553s-11.102-1.2764-11.838-1.5372-7.4245-1.1491-14.863-1.9738c-7.4388-0.8248-16.062-2.141-19.162-2.925-3.1002-0.784-9.1196-1.9382-13.377-2.5649-4.2569-0.6267-9.2069-1.5931-11-2.1475-3.0779-0.9516-9.6787-1.376-58.26-3.7458-11-0.5366-22.025-1.4108-24.5-1.9428-2.475-0.5319-8.775-1.2695-14-1.639s-11.75-1.3044-14.5-2.0775c-2.75-0.7732-10.4-1.5289-17-1.6794l-12-0.2737 0.2086 2.5c0.1147 1.375 0.6672 9.25 1.2279 17.5 0.5606 8.25 1.523 17.025 2.1387 19.5 0.7054 2.8358 0.8868 8.604 0.4905 15.597l-0.629 11.097 9.2817 0.634c5.1049 0.3487 13.91 1.5425 19.567 2.6529 7.5084 1.4738 14.302 2.0189 25.162 2.0189 17.254 0 24.651 1.2197 41.552 6.8519 7.8632 2.6203 14.758 4.2217 20 4.6454 13.196 1.0665 19.606 2.4743 27.582 6.0573 4.1702 1.8733 10.695 3.8693 14.5 4.4355 3.8047 0.5662 11.418 1.6841 16.918 2.4842 5.5 0.8002 21.7 3.2842 36 5.5202 35.403 5.5355 38.127 5.8647 53 6.405 14.018 0.5091 26.611 2.1864 45.211 6.0215 11.439 2.3586 26.562 4.8536 36.789 6.0695 2.75 0.327 8.375 1.221 12.5 1.9868s15.375 1.6608 25 1.9889c49.433 1.685 56.339 2.3665 90.5 8.9313 17.417 3.3469 17.612 3.3653 28.5 2.6909 5.225-0.3236 16.925-0.5672 26-0.5412zm54.793-14.797c3.6927-3.4375 14.967-12.325 25.053-19.75 10.087-7.425 21.977-16.536 26.422-20.247 4.9421-4.1255 11.803-8.5618 17.657-11.418 7.0367-3.4325 11.43-6.436 16.574-11.332 3.85-3.664 8.4574-7.6657 10.239-8.8925 1.7812-1.2269 5.6062-4.2671 8.5-6.7561 2.8937-2.4889 8.5613-6.3482 12.595-8.576 4.0333-2.2279 10.252-6.4433 13.82-9.3675 3.5675-2.9243 9.2676-6.8773 12.667-8.7845 3.3992-1.9072 10.455-7.0098 15.68-11.339 21.746-18.018 30.982-25.181 37.068-28.747 6.9733-4.0865 19.937-14.028 28.842-22.119 3.0746-2.7934 10.923-8.6015 17.441-12.907s16.193-11.872 21.5-16.815c5.3072-4.9429 12.799-11.69 16.649-14.994 7.9756-6.8437 21.068-19.475 35.823-34.563 5.5713-5.6967 19.328-18.522 30.571-28.5 11.243-9.9783 25.682-22.867 32.087-28.642 6.4051-5.775 17.692-15.072 25.082-20.659 7.3902-5.5875 15.225-11.713 17.41-13.612 3.8238-3.3235 3.9226-3.5619 2.6277-6.3409-1.0613-2.2777-1.4183-14.397-1.6903-57.388-0.2429-38.393-0.7868-59.081-1.8403-70-5.1971-53.866-5.4238-63.947-1.9994-88.924 0.786-5.7332 1.4225-14.958 1.4145-20.5-0.015-10.78 1.8838-32.469 5.0421-57.576 3.0463-24.217 5.8526-53.82 6.9675-73.5 0.5608-9.9 1.4628-21.825 2.0045-26.5 0.5416-4.675 1.4473-21.55 2.0126-37.5s1.4858-36.195 2.0456-44.989c0.5839-9.1723 0.754-29.637 0.399-48-0.3749-19.396-0.205-37.134 0.431-45.011 0.5773-7.15 1.5242-22.675 2.1042-34.5 0.5799-11.825 1.7297-31.4 2.5551-43.5 0.8253-12.1 1.4941-25.375 1.4862-29.5-0.01-4.125 1.3289-19.403 2.9707-33.952s3.4526-37.049 4.0239-50c0.5714-12.951 1.7007-30.298 2.5096-38.548 1.494-15.238 2.0437-19.595 7.5058-59.5 2.0905-15.272 3.3574-29.728 3.944-45 0.5102-13.284 2.1636-33.56 4.0364-49.5 3.1521-26.829 3.1675-27.199 2.4427-58.5-0.4011-17.325-0.6344-43.2-0.5184-57.5 0.6359-78.348 0.5801-82.695-1.1868-92.5-2.1979-12.196-4.1805-46.99-3.305-58 0.3718-4.675 1.389-13.225 2.2605-19 1.1479-7.6073 1.5143-16.285 1.3298-31.5-0.4548-37.495-0.3245-45.872 0.8387-53.93 3.1387-21.742 4.3879-76.422 2.3272-101.86l-0.7123-8.794-4 2.9249c-2.2 1.6087-8.1937 5.2452-13.319 8.0812-5.1256 2.8359-14.576 8.7734-21 13.194-6.4243 4.4209-17.306 11.808-24.181 16.415-6.875 4.6072-23.075 15.512-36 24.233-12.925 8.7211-26.875 17.847-31 20.281-4.1455 2.4454-11.749 8.4844-17 13.502-5.225 4.9926-12.65 11.273-16.5 13.957-3.85 2.6838-11.275 8.1732-16.5 12.199-9.6373 7.4247-16.331 12.495-37 28.027-6.325 4.7529-16.675 13.655-23 19.783s-18.225 16.732-26.445 23.566c-8.22 6.8339-17.67 14.715-21 17.514s-8.0537 7.6099-10.497 10.691c-2.4434 3.0814-6.4934 7.1305-9 8.998s-10.044 7.5054-16.75 12.529c-6.7062 5.0233-15.481 11.234-19.5 13.803-7.2864 4.6562-21.807 16.274-21.807 17.448 0 0.34012-5.338 4.1788-11.862 8.5304l-11.862 7.912-0.6012 15.5c-0.7156 18.449-2.3339 39.352-3.2766 42.322-0.5792 1.8248-0.1621 1.6781 2.9171-1.0254 5.4795-4.8111 17.087-11.241 24.927-13.81 3.8704-1.2678 8.2118-3.2632 9.6476-4.4343 4.8074-3.9214 33.912-22.053 35.399-22.053 0.5166 0 4.1601-2.0074 8.0965-4.4608 3.9364-2.4535 13.404-7.429 21.038-11.057 7.6347-3.6278 15.95-7.9841 18.479-9.6808 2.5287-1.6967 12.248-10.62 21.598-19.83 11.569-11.396 18.643-17.568 22.144-19.321 2.8292-1.4168 7.9841-5.0529 11.455-8.0803 6.5937-5.7505 33.944-21.861 54.056-31.841 7.383-3.6637 13.819-7.7147 17.559-11.052 3.2474-2.8976 7.4527-6.3479 9.3451-7.6672s5.6907-4.2741 8.4407-6.5661c13.705-11.422 29.336-20.425 56.08-32.299 8.4202-3.7386 10.407-3.874 13.118-0.89343 2.1117 2.322 2.0958 2.1546 3.8274 40.25 0.125 2.75-0.422 9.5-1.2157 15-0.8971 6.2172-1.7724 25.131-2.3139 50-0.479 22-1.3689 42.925-1.9775 46.5-1.4231 8.3597-1.9656 59.193-0.7363 69 0.6187 4.9365 0.5727 11.26-0.1346 18.5-0.5911 6.05-1.536 18.425-2.0998 27.5-0.6973 11.223-1.8059 19.611-3.4664 26.228-1.3426 5.3503-2.9407 14.125-3.5512 19.5-0.6104 5.3747-2.4044 19.672-3.9866 31.772s-3.1656 25.6-3.5188 30c-0.3531 4.4-1.4748 11.825-2.4925 16.5s-2.1525 11.875-2.5218 16c-0.3692 4.125-2.2025 13.729-4.0739 21.342s-3.8595 17.738-4.4181 22.5-1.8999 14.283-2.9807 21.158c-1.0809 6.875-2.9127 19.7-4.0707 28.5-1.1581 8.8-3.404 21.625-4.991 28.5-4.2652 18.477-6.0341 36.528-6.4674 66-0.2782 18.917-3.1226 66.964-4.9432 83.5-0.7873 7.15-1.7133 17.725-2.0578 23.5-0.3446 5.775-1.2917 16.575-2.1047 24s-1.9055 21.825-2.4277 32-1.447 20.3-2.055 22.5c-0.6081 2.2-1.4514 14.125-1.8742 26.5-0.7499 21.955-2.8788 54.358-5.1573 78.5-0.6229 6.6-1.4988 19.2-1.9465 28-0.4476 8.8-1.5781 20.275-2.5122 25.5-1.3916 7.7844-1.7437 17.266-1.9501 52.5-0.1385 23.65-0.7313 51.1-1.3173 61-0.5859 9.9-1.3617 33.525-1.7238 52.5-0.5725 29.999-0.4157 36.653 1.2017 51 2.0305 18.013 2.309 42.997 0.9528 85.5-0.8872 27.804-1.2264 29.026-8.7412 31.5-2.5381 0.8355-6.8999 3.6178-9.8462 6.2805-2.9093 2.6293-8.0976 6.3509-11.53 8.2701-3.4319 1.9193-8.2055 5.1853-10.608 7.2578-8.2399 7.1084-26.089 20.21-43.917 32.235-5.198 3.5062-12.826 9.9153-16.951 14.242-7.7506 8.1303-16.818 15.848-25.5 21.704-2.75 1.855-8.2625 5.9911-12.25 9.1912-3.9875 3.2002-10.738 8.611-15 12.024-8.3086 6.6528-30.322 26.329-46.758 41.794-5.5531 5.225-16.12 14.9-23.482 21.5-7.362 6.6-17.913 16.296-23.448 21.546-5.5343 5.2503-14.112 12.856-19.062 16.902s-14.406 12.918-21.013 19.717c-6.607 6.7988-16.957 16.639-23 21.868-6.043 5.2285-14.65 12.69-19.127 16.58l-8.1394 7.0737-0.6859 8.657c-0.3772 4.7613-1.3417 11.807-2.1432 15.657-1.9221 9.2325-4.3598 63.5-2.8524 63.5 0.2968 0 3.5608-2.8125 7.2535-6.25zm-1254.8-26c1.7525-1.7875 4.7162-6.4687 6.586-10.403 1.8699-3.934 5.8808-11.331 8.9132-16.439 6.5239-10.988 9.4323-19.332 13.563-38.908 3.3464-15.86 7.3786-27.495 12.476-36 6.1942-10.335 13.257-25.494 14.416-30.941 0.6368-2.9928 3.9413-10.643 7.3433-17 5.9125-11.048 6.954-12.331 23.596-29.059 11.393-11.452 20.763-21.993 27.112-30.5 5.3355-7.15 11.842-15.475 14.459-18.5 2.6168-3.025 6.5799-8.7986 8.8069-12.83 4.8202-8.7265 9.5868-14.9 19.82-25.67 11.169-11.755 21.583-31.36 30.014-56.507 2.2862-6.8188 2.7411-9.5968 2.2927-14-0.3943-3.8712 0.2102-9.2179 2.0471-18.108 2.1341-10.328 2.6066-15.341 2.6066-27.655v-15.04l-8.75-9.7828c-4.8125-5.3805-11.481-12.963-14.82-16.849-9.3009-10.828-14.617-13.978-32.351-19.164-8.3319-2.437-19.521-6.3942-24.864-8.7939-14.703-6.6032-23.654-9.4236-35.215-11.097-6.6357-0.9604-12.415-2.4554-15.703-4.0621-11.773-5.7522-27.424-28.639-32.097-46.934-3.0566-11.968-3.5951-21.588-2.3502-41.989l1.0362-16.982 4.5607-9.1872c3.4936-7.0375 6.6074-11.387 13.307-18.588 24.637-26.48 35.753-40.142 41.301-50.76 2.1554-4.125 5.9932-9.975 8.5283-13s6.1533-7.86 8.0403-10.744c1.887-2.8844 5.4132-7.678 7.8358-10.652 9.5946-11.78 32.551-43.804 42.726-59.603 8.4847-13.175 23.446-29.677 33.315-36.746 8.8692-6.3529 16.537-14.439 19.091-20.134 1.7454-3.8911 5.2621-8.1907 12.71-15.541 8.9072-8.7892 10.988-11.506 15.413-20.12 7.2846-14.183 9.9435-21.885 11.856-34.339 1.4518-9.4568 1.5317-13.369 0.5944-29.093l-1.083-18.167-4.1764-9.1804c-5.1829-11.393-7.4711-13.898-15.246-16.691-10.849-3.8978-17.734-8.2179-27.057-16.978-12.224-11.487-14.916-13.406-23.103-16.474-3.85-1.4424-10.6-4.6665-15-7.1647-8.9051-5.056-21.892-8.7314-34.607-9.7942-4.1837-0.34968-9.1337-1.0925-11-1.6508s-7.2183-1.1711-11.893-1.3619c-5.3503-0.21834-12.947-1.5198-20.5-3.5122l-12-3.1653-19.5 1.0135c-10.725 0.55745-26.7 1.8833-35.5 2.9463-8.8 1.063-20.95 2.4851-27 3.1602-6.508 0.72615-14.267 2.3593-19 3.9993-4.4 1.5246-11.6 3.6723-16 4.7727-21.057 5.2662-74.837 29.857-95.435 43.638-13.323 8.9135-17.414 12.804-25.265 24.026-5.911 8.4489-8.3446 17.983-7.5177 29.452 0.46199 6.4077 1.341 9.2862 5.5875 18.298 5.6294 11.947 13.229 24.649 18.583 31.059 1.9509 2.3358 5.2346 7.0404 7.2973 10.454 12.647 20.933 28.899 41.207 38.1 47.528 2.5576 1.757 7.3837 5.6852 10.725 8.7293s11.216 9.1278 17.5 13.519c14.786 10.333 17.946 13.26 23.627 21.883 2.5841 3.9228 7.9494 11.453 11.923 16.734 3.9734 5.281 9.2505 12.734 11.727 16.562 7.9324 12.262 17.649 39.661 17.649 49.766 0 2.2605-0.9 7.3579-2 11.327-3.5976 12.982-2.5554 17.112 7.7698 30.791 11.685 15.48 22.747 37.871 25.139 50.886 1.7679 9.6167 1.1127 25.312-1.8603 44.566-1.6301 10.557-8.0854 26.964-13.968 35.5-3.0322 4.4-10.101 14.975-15.709 23.5-5.6076 8.525-12.427 18.65-15.155 22.5-8.7457 12.344-15.147 24.573-18.32 35-1.6739 5.5-4.3119 13.375-5.8622 17.5-5.9801 15.912-7.5495 38.899-4.028 59 7.5573 43.139 9.7992 51.267 18.51 67.106 6.2613 11.385 8.7319 17.114 16.987 39.394 1.834 4.95 4.5081 11.628 5.9424 14.84s3.0695 9.2872 3.6339 13.5 1.6531 11.935 2.4193 17.16c3.1579 21.535 3.7868 30.44 2.5483 36.084-0.6537 2.9787-1.4121 12.166-1.6852 20.416-0.2853 8.6177-1.584 21.953-3.0521 31.34l-2.5554 16.34 2.0956 14.16c1.6783 11.34 1.9713 16.693 1.4713 26.884-0.7091 14.457 1.1248 33.775 3.2064 33.775 0.6785 0 2.6675-1.4625 4.4199-3.25zm1204.8-62.166c4.2472-0.1667 13.879-0.3661 21.405-0.4433 12.081-0.1238 13.747-0.345 14.234-1.8902 0.3031-0.9625 0.9905-10.3 1.5276-20.75 0.537-10.45 1.6549-22.75 2.4842-27.333 0.9709-5.3665 1.4883-14.267 1.4532-25-0.031-9.3946 0.455-18.848 1.1131-21.667 0.6421-2.75 1.5513-18.275 2.0203-34.5s1.2991-35.125 1.8446-42c0.5456-6.875 1.4878-18.8 2.0938-26.5 0.6061-7.7 2.0031-24.125 3.1046-36.5s1.9891-24.608 1.9725-27.185l-0.03-4.685-8.7779 0.5687c-13.71 0.8882-14.046 0.6345-32.105-24.199-10.002-13.753-10.552-43.762-1.4198-77.457 2.1289-7.8554 5.6304-14.294 13.423-24.683 10.144-13.525 23.175-24.026 40.665-32.772 6.4224-3.2114 9.5641-5.3761 10.189-7.0207 1.4964-3.9358 3.0194-24.439 4.0163-54.067 0.5182-15.4 1.6664-34.3 2.5515-42 1.9455-16.923 2.0852-52.399 0.3547-90.077-1.2597-27.427-0.8105-37.534 3.7461-84.28 0.9263-9.5035 1.3221-19.14 0.9446-23-0.3573-3.6542-0.178-11.999 0.3984-18.543 0.5765-6.5447 0.8542-12.094 0.6171-12.33-0.2371-0.2371-3.0573 4.1374-6.2672 9.7211s-7.7177 13.382-10.017 17.33c-4.5134 7.7487-7.7142 18.354-9.26 30.683-2.2913 18.273-8.0975 43.366-12.031 51.996-3.9848 8.7418-8.9119 21.442-11.057 28.5-2.0462 6.7333-9.2372 19.767-12.956 23.482-1.9364 1.9347-6.6944 5.1838-10.573 7.2201-5.259 2.7608-8.2734 5.2244-11.853 9.6875-7.1887 8.9627-11.534 11.61-19.055 11.61-5.0905 0-7.493-0.6602-14.086-3.8708-6.9919-3.4052-9.546-5.5106-21.23-17.5-7.3048-7.4961-14.955-16.177-17-19.29-2.0453-3.1137-5.425-8.2887-7.5106-11.5-2.0856-3.2114-5.9106-8.3913-8.5-11.511-5.7317-6.9054-25.138-41.692-28.58-51.232-3.2906-9.1189-5.3409-11.096-11.506-11.096-3.5399 0-6.6465 0.9312-11.677 3.5-7.1276 3.6398-10.009 6.625-35.71 37-9.492 11.218-25.741 35.517-28.227 42.212-3.4843 9.3815-13.876 17.917-19.956 16.391-1.5437-0.3875-5.3368-3.0897-8.429-6.005-3.7422-3.5282-9.6619-7.3749-17.704-11.504-6.6447-3.4119-15.185-8.5701-18.978-11.463-7.8425-5.9802-18.635-18.767-23.425-27.754-1.7822-3.3438-5.1826-8.9166-7.5564-12.384-2.3738-3.4673-8.0482-13.884-12.61-23.149l-8.2937-16.844-13.028-12.847c-16.008-15.787-19.204-18.04-31.38-22.13-5.3064-1.7826-10.401-3.5642-11.321-3.9591-1.0946-0.4699-2.4318 0.041-3.8695 1.4788-1.8334 1.8334-2.0978 2.9195-1.5982 6.5645 0.7938 5.7915 5.2933 14.454 11.515 22.17 6.1324 7.6046 8.6181 14.906 10.128 29.75 1.2162 11.957 1.7924 13.862 6.0723 20.083 5.1206 7.4425 7.032 12.807 7.0029 19.653-0.015 3.4307 0.9229 10.724 2.0834 16.208 1.7719 8.3728 1.9402 10.882 1.0505 15.667-1.382 7.4316-8.0424 17.575-17.234 26.245-13.808 13.026-20.493 14.062-37.47 5.808-11.179-5.4351-18.012-10.965-25.394-20.551-5.0747-6.59-7.5414-12.963-10.201-26.357-4.2207-21.254-9.955-35.178-19.876-48.264-3.1351-4.1352-8.8879-12.284-12.784-18.109-9.4225-14.087-14.223-18.226-24.92-21.489-4.5913-1.4005-9.807-2.4055-11.59-2.2335-2.8914 0.2789-3.3355 0.7459-4.101 4.3128-1.061 4.9435-3.7546 13.781-7.0104 23-3.4615 9.8016-6.5355 29.566-7.0768 45.5-0.3205 9.4357-1.3762 18.143-3.5064 28.921-1.6764 8.4814-3.0479 17.312-3.0479 19.624 0 3.9084 0.2197 4.2478 3.125 4.8289 1.7187 0.3438 6.1062 0.6276 9.75 0.6308 3.6437 0 9.325 0.4954 12.625 1.0938s16.35 1.2364 29 1.4178c37.838 0.5425 42.664 1.3783 64.843 11.229 20.514 9.1107 25.099 12.725 35.238 27.782 10.554 15.674 12.92 22.625 12.92 37.972v11l-5.3451 12c-2.9397 6.6-6.3519 14.025-7.5825 16.5-7.8496 15.787-10.809 21.623-16.253 32.05-1.5995 3.0633-2.7181 7.6179-3.4242 13.943-0.7386 6.6158-2.2223 12.479-5.0176 19.83-2.4117 6.3421-4.543 14.277-5.4322 20.224-0.8669 5.7975-2.701 12.695-4.4993 16.921-1.8026 4.236-3.4573 10.465-4.073 15.333-1.0432 8.2473-2.57 15.555-5.3628 25.667-1.0417 3.7719-1.5166 10.286-1.5309 21-0.013 9.5628-0.5511 17.838-1.4005 21.532-1.8574 8.078-7.7026 24.842-10.809 31-1.3872 2.75-3.7368 10.4-5.2213 17-5.2242 23.226-11.54 40.92-17.706 49.602-2.4988 3.5187-6.5089 10.897-8.9114 16.397-5.4928 12.574-9.7592 16.944-22.526 23.071-9.4245 4.5233-22.339 7.7985-40.875 10.366-4.3828 0.6071-9.6703 1.562-11.75 2.122l-3.7812 1.0182v11.519c0 7.8176-0.6747 14.775-2.0997 21.652-1.5617 7.5366-1.9406 11.941-1.4788 17.192 0.3415 3.8829 0.8308 12.01 1.0874 18.06s0.7368 13.25 1.0671 16l0.6006 5 13.571 0.2329c8.0891 0.1389 15.963 0.8458 19.492 1.75 3.257 0.8344 8.6979 1.5261 12.091 1.5372 3.393 0.011 9.0942 0.4843 12.669 1.0517 6.4046 1.0165 23.202 2.0467 62.5 3.8329 11.522 0.5237 22.543 1.5553 26 2.4335 3.3 0.8384 8.25 1.8232 11 2.1885s7.54 1.2962 10.644 2.0688c3.1045 0.7725 10.304 1.8557 16 2.4069 5.6955 0.5513 13.056 1.4319 16.356 1.9569s13.2 1.6562 22 2.5138 20.905 2.0457 26.9 2.6402c6.159 0.6107 15.185 0.7743 20.75 0.3759 11.71-0.8381 45.062 0.9977 56.35 3.1017 21.05 3.9237 44.856 7.5175 70 10.567 5.5 0.6671 20.8 1.267 34 1.3332 16.042 0.08 28.476 0.6875 37.5 1.831 28.951 3.6689 32.232 3.7737 70.778 2.2611zm34.17-454.64c-5.876-6.2903-8.454-13.764-6.9888-20.26 0.4582-2.0316 3.6456-8.4459 7.0831-14.254 5.9188-10 6.2912-11.012 7.0266-19.08 0.847-9.2931 2.4888-12.349 6.6344-12.349 1.3161 0 3.4354 1.125 4.7097 2.5s2.7494 2.5 3.278 2.5c1.5914 0 5.1145 4.2889 6.7619 8.2315 2.4528 5.8704 1.8954 13.376-1.9996 26.927-2.7255 9.4823-4.5909 13.887-8.0524 19.012-5.5545 8.2248-6.327 8.8753-11.34 9.5476-3.5891 0.4814-4.3479 0.1854-7.1133-2.775zm9.2062-16.694c1.8806-3.2632 5.2262-13.204 4.6409-13.789-0.7643-0.7643-7.7945 12.203-7.7945 14.377 0 2.9477 1.2503 2.7144 3.1536-0.5883zm-54.13 3.5647c-8.1816-5.5599-9.7179-11.005-10.574-37.476-0.5512-17.041-0.4347-19.169 1.2205-22.304 2.5445-4.8199 6.8994-7.0676 13.972-7.2112 3.2217-0.065 7.1503-0.7674 8.7303-1.56 2.5415-1.2749 3.3789-1.2475 7.2672 0.2374 4.6505 1.7761 8.7617 6.2252 9.8749 10.687 0.4308 1.7264-0.2951 5.9684-2.0306 11.867-2.3528 7.9964-2.6174 10.229-2.0521 17.313 0.4781 5.9904 0.2298 9.7121-0.9426 14.128-3.0805 11.603-7.1048 15.64-16.226 16.278-4.8192 0.3372-6.3329 0.016-9.2396-1.959zm10.686-14.824c0.7963-1.5739 1.2658-6.7847 1.2752-14.152 0.011-8.8101 0.5005-13.211 2.0018-18 1.0929-3.4865 1.9929-6.4516 2-6.5891 0.01-0.1375-2.7012-0.25-6.0185-0.25-3.9403 0-6.1732 0.4334-6.4403 1.25-1.6938 5.177-0.4754 32.071 1.7236 38.046 1.2394 3.3679 3.6686 3.2321 5.4582-0.3052zm59.712 462.21c3.9349-3.7377 10.85-9.8531 15.366-13.59s8.2118-7.1226 8.2118-7.5244c0-1.5188 17.018-18.096 30-29.222 7.425-6.3638 14.4-12.599 15.5-13.856 1.1-1.257 6.05-5.8949 11-10.306 4.95-4.4117 16.237-14.813 25.082-23.113 48.084-45.124 61.496-56.59 92.515-79.092 4.5491-3.3 12.351-10.141 17.337-15.202 5.7855-5.8726 13.95-12.586 22.566-18.555 25.225-17.476 27.497-19.118 35.287-25.491 4.2828-3.5038 10.808-8.2309 14.5-10.505 3.6922-2.2738 8.9892-6.2409 11.771-8.8158 2.7819-2.5748 6.6069-5.47 8.5-6.4337s3.5838-1.8742 3.7571-2.0234c0.1732-0.1491 0.8081-11.454 1.4106-25.123 1.312-29.759 1.1496-52.246-0.5044-69.852-1.5408-16.401-1.2847-83.743 0.405-106.5 0.6738-9.075 1.3305-34.889 1.4594-57.364 0.2507-43.726 0.495-48.457 3.4808-67.407 1.0634-6.7495 1.9335-16.363 1.9335-21.363 0-5.0003 0.6549-14.553 1.4554-21.228s1.9612-20.237 2.5794-30.137c0.6183-9.9 1.7753-24.3 2.5712-32 0.9082-8.7862 1.2149-17.91 0.8237-24.5-0.4925-8.2966-0.1835-13.04 1.4724-22.605 1.1527-6.6577 2.5375-20.158 3.0774-30 0.5398-9.8423 1.4482-22.169 2.0185-27.393s1.477-15.799 2.0149-23.5c0.5378-7.7012 1.6631-19.852 2.5006-27.002 1.5294-13.056 2.7634-34.858 4.4433-78.5 1.5431-40.089 2.7375-52.125 7.0454-71 2.8434-12.458 4.9759-25.967 6.9456-44 2.0291-18.576 5.8769-42.688 8.8567-55.5 1.663-7.15 3.3206-17.05 3.6837-22s1.2569-11.7 1.9861-15c0.7293-3.3 1.625-9.825 1.9905-14.5s1.7398-17.5 3.0539-28.5 2.8798-24.95 3.4793-31 2.3995-17.525 4.0001-25.5c2.8059-13.98 5.4174-43.836 5.2045-59.5-0.7459-54.873-0.2924-71.389 2.3579-85.86 1.021-5.5752 1.4395-15.64 1.4395-34.621 0-19.151 0.4976-30.991 1.75-41.64 1.731-14.718 2.4595-49.506 1.0658-50.898-0.3764-0.37575-7.1264 2.4568-15 6.2945-15.907 7.7531-33.404 19.8-53.763 37.017-3.4424 2.911-10.671 7.5069-16.064 10.213-12.312 6.1782-41.017 22.245-46.988 26.3-2.475 1.6806-6.7297 5.0386-9.4549 7.4621s-7.2252 5.5386-10 6.9224c-3.3434 1.6674-10.273 7.6718-20.545 17.802-17.55 17.307-25.916 23.257-44.284 31.495-6.4814 2.9067-14.356 6.8458-17.5 8.7535-3.1437 1.9078-8.1907 4.6816-11.216 6.1642s-9.325 4.981-14 7.7744-10.525 6.2794-13 7.7467-6.0358 3.7764-7.9129 5.1313c-1.8772 1.3549-6.223 3.3314-9.6575 4.3922-10.848 3.3506-18.484 7.8344-25.141 14.762-5.6626 5.8931-6.48 6.4054-9.25 5.797l-3.0386-0.66738v6.5144c0 3.5829 0.5182 7.7812 1.1516 9.3294 1.2765 3.1203 2.583 27.84 3.4703 65.658 0.4362 18.589 0.1879 29.162-0.9862 42-0.863 9.4366-1.8078 23.007-2.0994 30.157s-1.1767 17.492-1.9669 22.983c-0.7901 5.4907-1.2861 10.134-1.1021 10.318 0.7924 0.79238 19.653-6.2483 26.254-9.8007 3.9718-2.1374 10.497-5.0675 14.5-6.5114 7.4852-2.6997 17.011-7.5902 29.279-15.031 6.6112-4.0101 23.817-11.457 26.47-11.457 0.6721 0 5.0191-2.0698 9.6598-4.5994 13.44-7.326 24.924-9.2666 34.494-5.8286 6.9835 2.5088 20.939 5.3809 26.376 5.4283 2.75 0.024 6.8824 0.89823 9.1831 1.9428 9.6205 4.3679 21.336 27.756 21.307 42.537-0.012 6.2236-3.3331 13.609-8.4727 18.842-2.0647 2.1022-8.7632 8.0153-14.886 13.14-13.541 11.335-16.4 14.33-25.531 26.747-3.927 5.3404-8.9563 11.19-11.176 13-2.22 1.8096-9.1089 10.04-15.309 18.29s-13.16 17.177-15.467 19.837-6.6171 8.5106-9.5775 13c-2.9739 4.5097-10.482 13.309-16.778 19.663-13.536 13.66-13.824 14.054-21.804 29.779-5.089 10.028-7.7239 13.877-14.375 21-8.9763 9.6131-21.552 27.192-26.583 37.158-2.1651 4.2891-6.4511 9.7614-12.916 16.491-9.5343 9.9247-14.195 15.876-17.534 22.385-2.5291 4.932-4.4944 18.495-5.6058 38.687-0.545 9.9-1.4591 22.275-2.0315 27.5-1.0856 9.9101-2.4453 36.706-3.9325 77.5-0.4812 13.2-1.3468 28.95-1.9234 35-4.3702 45.849-4.4439 47.449-3.2333 70.123 1.8289 34.256 1.4665 75.312-0.8684 98.377-1.0857 10.725-1.9865 25.35-2.0017 32.5-0.015 7.15-0.6833 22.198-1.4845 33.439-0.8012 11.241-1.3402 20.555-1.1978 20.698 0.1424 0.1424 3.2345-0.2508 6.8712-0.8738 5.8604-1.0038 6.9224-0.9294 9.3392 0.6541 1.4997 0.9827 2.9502 2.6409 3.2232 3.6848 0.3208 1.227 1.3822 1.8982 3.0014 1.8982 4.8246 0 23.808 3.099 28.702 4.6854 2.7169 0.8809 8.3419 3.159 12.5 5.0626 9.5279 4.362 27.306 10.747 32.56 11.694 6.1054 1.1003 15.036 5.8095 25.201 13.289 5.0603 3.7234 13.337 9.2448 18.392 12.27 11.434 6.8416 15.922 12.152 19.281 22.808 4.3079 13.669 6.0999 31.443 4.5565 45.192-1.0947 9.7512-7.0824 24.755-12.199 30.568-8.6669 9.8461-26.045 13.88-53.296 12.372-10.073-0.5576-17.214-1.5006-21.936-2.8965-3.85-1.1383-12.4-2.4654-19-2.9491s-13.267-1.3777-14.815-1.9866c-4.2583-1.6748-16.19-1.3349-32.509 0.9262-22.891 3.1716-31.449 4.7903-32.26 6.1015-0.4112 0.6653-1.023 5.9697-1.3597 11.787-0.3366 5.8177-1.0708 14.628-1.6316 19.578-0.5607 4.95-1.6575 18.45-2.4372 30s-2.3297 32.146-3.4443 45.768c-1.1896 14.54-1.9829 32.504-1.921 43.5 0.082 14.574-0.3023 20.729-1.7322 27.732-1.3987 6.8499-1.7902 12.766-1.6389 24.764 0.1345 10.658-0.2952 18.431-1.327 24-1.7117 9.2392-3.1304 34.736-1.9327 34.736 0.4266 0 3.9951-3.0582 7.93-6.796zm231.56-261.07c-4.9809-2.6633-7.2049-6.9899-7.1229-13.857 0.084-7.052 0.6385-9.8269 3.8514-19.28 2.5033-7.3652 2.5388-7.8774 1.9755-28.5-0.4942-18.093-1.0691-23.76-4.1525-40.938-1.9683-10.966-4.2163-22.441-4.9954-25.5-2.2818-8.9582-2.984-19.576-1.5273-23.093 2.6817-6.4742 11.639-7.9687 17.407-2.9042 1.9193 1.6852 6.0975 4.3419 9.2848 5.9037 8.5106 4.1704 13.292 9.7639 20.602 24.1 9.5871 18.802 11.117 24.118 10.32 35.855-0.3579 5.2675-1.2788 13.402-2.0465 18.077s-1.725 15.178-2.1272 23.34c-0.7114 14.434-0.8337 15.05-4.4674 22.5-4.6319 9.4964-14.014 20.739-19.893 23.837-5.4243 2.8585-12.277 3.0425-17.108 0.4594zm15.035-20.887c7.309-8.2876 8.6261-12.034 9.404-26.75 0.378-7.15 1.6117-19.49 2.7416-27.421 2.8604-20.079 2.5879-21.887-5.9229-39.292-7.1505-14.623-8.7851-16.687-15.492-19.564-3.1166-1.3371-3.5189-0.3754-1.7687 4.2282 1.328 3.4928 7.8941 37.759 9.4948 49.549 0.7093 5.225 1.6133 16.259 2.0089 24.52 0.7031 14.685 0.6581 15.197-2.0221 23-2.9856 8.6918-4.5874 16.48-3.3894 16.48 0.4161 0 2.6416-2.1375 4.9457-4.75zm-75.87-485.95c-1.8429-0.908-4.4901-3.3726-5.8826-5.4769-2.2098-3.3392-2.6434-5.4479-3.4084-16.576-1.3176-19.166-0.2493-25.286 5.7172-32.75 1.7585-2.2 6.0021-9.3135 9.4302-15.808 6.0876-11.533 6.288-12.161 8.5996-26.955 1.3017-8.3307 3.4765-18.542 4.8327-22.692 3.3139-10.14 5.5583-21.707 5.5795-28.753 0.038-12.711 6.3855-30.629 13.104-36.991 6.1345-5.8095 16.552-8.265 26.878-6.3353 6.7537 1.2621 9.3976 3.9629 11.011 11.247 1.0587 4.7807 0.8349 6.964-2.3355 22.787-4.2195 21.06-6.6581 35.086-7.7368 44.5-1.1081 9.6708-4.2667 18.575-9.9326 28-2.6451 4.4-5.3244 10.25-5.9539 13-0.6296 2.75-3.5751 9.5-6.5456 15-10.638 19.697-18.81 36.091-20.647 41.42-5.3337 15.474-13.134 21.101-22.71 16.383zm6.8508-14.558c0-3.4137 12.992-30.772 21.011-44.246 4.4784-7.5245 8.5815-16.932 9.3769-21.5 0.3352-1.925 2.861-7.325 5.613-12 6.0759-10.322 7.7663-15.188 8.9837-25.862 0.5143-4.5089 1.1724-8.582 1.4625-9.0514 0.2901-0.46935 0.9779-4.1683 1.5285-8.2198s2.4245-14.948 4.1642-24.214c3.6325-19.347 3.8269-18.714-5.6395-18.37l-6 0.21785-3.7693 7.5c-4.1214 8.2006-5.716 15.634-5.7249 26.688-0.01 7.4282-1.6356 16.058-5.1577 27.312-1.1188 3.575-3.0855 13.475-4.3705 22-2.2862 15.168-2.4719 15.768-8.657 27.972-3.4763 6.8598-8.1656 14.96-10.421 18s-4.3812 6.6526-4.725 8.0276c-0.8563 3.4248 0.4276 26 1.4787 26 0.4655 0 0.8463-0.1144 0.8463-0.2543zm-791.44 651.5c-0.2805-2.6125-1.0318-9.2687-1.6696-14.792-0.9134-7.9085-0.8716-13.856 0.1964-28 0.7459-9.8771 1.3985-27.858 1.4502-39.958 0.1155-27.013 1.6732-49.473 4.4387-64 2.8161-14.793 3.6789-57.64 1.4785-73.424-1.9431-13.938-1.8327-20.393 0.5304-31.002 1.706-7.6591 1.9966-12.872 2.0767-37.251 0.051-15.59-0.2216-31.126-0.6061-34.525-0.4818-4.2578-0.046-10.941 1.4011-21.489 2.2942-16.722 4.8455-45.837 5.8189-66.402l0.6197-13.093-7.1166-0.5966c-6.0678-0.5087-9.6469-1.7477-24.286-8.4074-16.603-7.553-17.502-8.1171-27.251-17.097-5.5444-5.1074-11.219-9.5235-12.61-9.8135s-4.3298-1.2005-6.5298-2.0233c-5.5789-2.0867-16.774-2.8113-24.581-1.5909-4.7193 0.7377-9.1038 2.4206-15.5 5.9492-4.9055 2.7063-13.382 6.6371-18.837 8.7352-13.926 5.3564-20.859 9.7239-30.141 18.987-11.11 11.087-16.989 22.803-22.394 44.63-3.6187 14.613-9.459 31.227-15.436 43.912-3.3614 7.134-3.438 13.876-0.2401 21.126 1.3039 2.9559 2.7089 6.9494 3.122 8.8744 1.8794 8.7567 7.406 16.51 15.804 22.17 3.4119 2.2998 9.3534 6.7269 13.203 9.8382 3.85 3.1112 9.6609 7.3485 12.913 9.4162s9.4602 6.6232 13.795 10.123 13.374 9.5849 20.087 13.522c6.7125 3.9366 14.905 8.8525 18.205 10.924s9.2825 5.652 13.294 7.9566c8.737 5.0186 12.107 9.2964 15.17 19.258 1.2333 4.0103 3.5087 11.342 5.0565 16.292 3.3706 10.78 3.6857 12.564 4.946 28 1.0704 13.111 3.8726 28.278 7.6622 41.47 3.633 12.647 3.9811 20.607 1.4227 32.53-2.7121 12.639-3.8811 39.836-2.1507 50.037 2.0012 11.798 6.8629 23.985 11.726 29.394 6.7097 7.4629 21.848 14.869 30.657 14.999l4.7845 0.071-0.5099-4.75zm29.941-0.7162c25.591-3.884 39.08-8.3193 45.278-14.888 1.6327-1.7303 4.7416-7.1959 6.9086-12.146s5.9948-11.987 8.5062-15.637c5.2822-7.678 10.931-23.863 15.309-43.863 1.5684-7.1648 4.355-16.128 6.5286-21 2.0857-4.675 5.2204-12.715 6.966-17.868 3.04-8.9724 3.1882-10.153 3.5141-28 0.3243-17.763 1.0786-24.314 3.5405-30.751 0.6062-1.5848 1.9366-8.5496 2.9566-15.477 1.2744-8.6557 2.9709-15.453 5.4232-21.728 1.9627-5.0229 3.5753-10.605 3.5834-12.404 0.022-4.8558 2.4185-14.13 6.2722-24.272 2.079-5.4712 3.8739-12.59 4.5778-18.157 1.2916-10.213 3.0982-16.141 6.5049-21.343 2.4193-3.6944 14.481-28.158 21.569-43.748 2.5317-5.5681 4.4021-11.338 4.7002-14.5 0.7277-7.7169-2.3732-17.986-8.2482-27.314-7.4933-11.898-13.158-17.584-21.081-21.158-29.532-13.325-30.464-13.541-59.31-13.76-11.825-0.09-27.125-0.6667-34-1.282s-16.325-1.2579-21-1.4279l-8.5-0.3092-0.1634 7.5c-0.09 4.125-0.6659 13.575-1.2799 21s-1.5541 19.8-2.089 27.5c-0.535 7.7-1.6076 17.611-2.3837 22.024-1.1168 6.3505-1.3021 15.84-0.8888 45.5 0.462 33.149 0.323 38.342-1.2036 44.976-2.4435 10.618-2.9169 19.833-1.4233 27.706 0.8213 4.3288 1.3611 16.954 1.4877 34.794 0.2028 28.594 0.1772 28.922-4.6136 59-0.438 2.75-0.8292 9.3691-0.8694 14.709-0.04 5.34-0.5811 13.125-1.2021 17.301-0.8557 5.7529-0.8337 10.597 0.091 19.997 0.9315 9.4736 0.9497 14.483 0.077 21.199-1.9957 15.36-1.6619 52.121 0.5368 59.113 0.2323 0.7389 1.1865 1.08 2.1697 0.7757 0.9652-0.2988 6.2549-1.2262 11.755-2.0609zm572.75-131.6c6.1741-1.6625 7.7484-3.9277 7.7721-11.183 0.025-7.7527 3.2052-32.02 5.8804-44.876 2.4014-11.541 5.6305-34.858 7.1143-51.374 0.593-6.6 1.5355-14.634 2.0944-17.854s0.8065-6.0635 0.5502-6.3198c-0.6716-0.6717-8.1952 3.3034-15.16 8.0095-8.6183 5.8238-15.552 12.68-22.516 22.265-7.2216 9.9396-9.5908 14.98-11.599 24.679-0.8224 3.971-2.1127 9.47-2.8672 12.22-1.9429 7.0807-1.4377 35.435 0.7327 41.126 1.5456 4.0529 4.2773 8.077 13.391 19.727 5.0056 6.3984 4.5527 6.2874 14.607 3.5801zm169.59-9.465c10.815-2.4598 12.308-3.8019 16.246-14.604 3.2168-8.8236 3.4117-10.086 3.3761-21.864-0.038-12.424-1.8751-23.957-5.0134-31.468-1.7406-4.1659-5.7829-7.5657-15.029-12.64-4.0235-2.2082-10.826-6.7463-15.118-10.084-7.9713-6.2011-16.318-10.78-19.684-10.797-3.0092-0.016-18.998-5.7256-33.619-12.006-11.318-4.8619-15.307-6.058-24.682-7.4013-6.15-0.8812-14.791-1.6022-19.203-1.6022-9.2873 0-12.587-1.1855-14.343-5.1532-0.6931-1.5658-1.5359-2.8468-1.8731-2.8468-0.9082 0-3.7643 19.326-5.4679 37-1.4976 15.537-4.7568 36.644-8.3692 54.2-2.1752 10.572-5.3712 36.49-4.6445 37.666 0.2613 0.4227 8.9368-0.4849 19.279-2.017 28.272-4.1882 38.074-4.5979 47.368-1.9797 4.7818 1.347 10.437 2.1307 15.376 2.1307 4.2968 0 11.693 0.8779 16.436 1.9509 4.7431 1.0731 9.5238 2.1459 10.624 2.384 5.4173 1.173 32.016 0.5716 38.34-0.8668zm-225.17-299.24c5.2085-5.7404 8.855-8.7084 13.941-11.347 7.4211-3.8499 11.764-8.8826 14.761-17.104 8.0267-22.022 10.845-29.163 13.536-34.303 3.5759-6.8285 10.954-38.938 11.056-48.116 0.058-5.2081 5.7558-26.171 8.3341-30.662 17.909-31.189 21.773-38.674 25.52-49.44 2.2507-6.4656 4.5192-14.231 5.041-17.256 0.5219-3.025 1.6354-8.65 2.4743-12.5 2.7532-12.634 5.1621-35.753 5.0015-48-0.087-6.6-0.1963-37.2-0.244-68-0.093-59.819 0.1703-64.435 5.4103-95 1.3201-7.7 3.0796-18.95 3.9101-25 1.5028-10.947 4.8021-60.619 4.0748-61.346-0.2098-0.20984-4.2783 1.0285-9.041 2.7518-10.728 3.8818-13.848 4.5849-31.531 7.1061-11.026 1.572-15.718 1.8202-21.301 1.127-3.9386-0.48897-9.5163-0.66273-12.395-0.38613-7.04 0.67646-12.923-1.1404-18.818-5.812-6.9855-5.5354-18.908-11.497-31.25-15.626-5.8582-1.9598-12.901-4.5541-15.651-5.7651s-7.2055-2.7538-9.9011-3.4284c-6.6351-1.6605-9.6548-3.3424-15.801-8.8009-6.7935-6.0336-15.348-9.8335-26.893-11.946-16.19-2.962-36.652 0.32589-59.805 9.6093-13.921 5.582-29.419 13.729-41.256 21.686-19.534 13.132-39.781 23.62-53.561 27.745-4.5146 1.3512-13.063 4.5771-18.996 7.1684-29.015 12.672-41.97 15.521-79.037 17.379-17.978 0.9013-21.486 0.83098-26.251-0.52618-3.025-0.86157-10.347-1.9283-16.271-2.3705-10.167-0.75892-11.345-1.0861-21-5.8322-10.135-4.9819-34.008-16.241-55.241-26.053-10.301-4.7603-24.562-8.44-26.233-6.769-1.736 1.736-2.5549 15.661-2.7692 47.088-0.1312 19.25-0.7281 40.85-1.3264 48-1.9729 23.579-2.5166 61.691-1.1341 79.5 1.6039 20.66 1.6695 78.636 0.1013 89.412-0.6332 4.3515-1.5815 15.048-2.1072 23.771s-1.6423 20.912-2.4812 27.088c-0.839 6.1759-2.2137 21.129-3.0549 33.229-0.8413 12.1-1.7952 23.462-2.1199 25.25-0.5714 3.1462-0.4815 3.25 2.8164 3.25 4.878 0 20.537 4.6983 25.757 7.7282 7.3143 4.2452 12.5 9.7665 21.148 22.518 4.5173 6.6604 10.691 15.292 13.719 19.182 5.4563 7.008 13.425 22.44 16.561 32.072 0.8954 2.75 2.9867 11.027 4.6474 18.393 3.6756 16.303 5.28 19.981 11.922 27.328 3.9181 4.3339 7.3651 6.8186 14.22 10.25 4.9763 2.4912 9.8936 4.5294 10.927 4.5294 2.4873 0 14.972-11.853 18.85-17.895 3.2498-5.0643 3.7293-8.4327 2.0088-14.111-0.5822-1.9214-1.3982-8.2831-1.8133-14.137-0.7261-10.238-0.9129-10.886-4.8996-17.005-5.6331-8.646-7.1198-13.317-8.706-27.351-1.6259-14.386-2.3236-16.381-8.0897-23.13-8.6574-10.134-14.516-26.897-12.869-36.82 1.2446-7.4969 4.4551-11.577 12.146-15.437 5.0137-2.5162 9.9958-2.6913 15.072-0.5297 2.0449 0.8707 7.7679 2.908 12.718 4.5273 12.096 3.9571 19.46 9.1759 36.225 25.673l13.94 13.717 7.8847 16c4.3366 8.8 9.7469 18.7 12.023 22s6.0307 9.3515 8.344 13.448c5.7183 10.126 13.379 19.344 20.583 24.768 3.3 2.4842 11.625 7.3453 18.5 10.802s13.822 7.6798 15.437 9.3839c1.6154 1.7042 3.2354 3.0985 3.6 3.0985s1.9321-2.9864 3.4834-6.6365c4.9203-11.577 21.017-34.538 35.98-51.325 2.75-3.0852 9.0783-10.318 14.063-16.074 10.354-11.955 16.876-16.864 27.168-20.447 18.47-6.4303 33.882 0.8241 38.876 18.299 0.8933 3.126 4.4271 10.634 7.8527 16.684 3.4257 6.05 8.1004 14.434 10.388 18.63s7.2811 11.5 11.096 16.23c3.8147 4.7298 8.515 11.421 10.445 14.87 5.0284 8.984 24.972 30.304 32.742 35.002 3.4271 2.0722 7.1887 3.7677 8.359 3.7677 1.383 0 4.5966-2.721 9.1813-7.7737zm-581.42-64.689c5.5399-4.23 8.8201-9.4558 15.716-25.037 6.0474-13.665 10.738-20.986 17.694-27.617 8.756-8.3469 18.352-14.017 32.843-19.406l6-2.2314 1.5973-7.8729c0.8785-4.3302 1.9221-15.523 2.319-24.873 0.397-9.35 1.3384-22.175 2.0921-28.5s1.6527-17.125 1.9978-24 1.2723-18.971 2.0606-26.879c1.6744-16.8 1.9105-63.93 0.4063-81.121-1.5574-17.8-1.5883-50.126-0.072-76 0.7571-12.925 1.5231-35.2 1.7022-49.5 0.3038-24.26 1.6314-49.859 3.0439-58.692 0.5842-3.6535 0.4948-3.8078-2.2088-3.8078-1.5497 0-5.8725 1.8458-9.6063 4.1017-3.7337 2.256-10.603 5.3753-15.266 6.9319-22.928 7.6544-42.418 17.525-50.888 25.771-2.6526 2.5823-7.2128 7.8451-10.134 11.695s-8.4007 9.8175-12.177 13.261c-13.822 12.604-16.368 15.45-19.994 22.35-2.2474 4.2767-5.1034 8.0608-7.2846 9.6519-1.9733 1.4394-5.3218 4.4393-7.441 6.6664-3.5158 3.6948-3.8106 4.4266-3.3673 8.3595 0.2672 2.3706 0.7791 4.6035 1.1376 4.9619 0.3584 0.35844 3.2237 1.0355 6.3672 1.5046 13.63 2.034 14.766 2.0152 19.334-0.32002 9.544-4.8791 27.823-7.1407 39.882-4.9343 3.575 0.6541 11.071 1.5296 16.658 1.9456 8.6115 0.64123 10.971 1.2132 15.5 3.757 4.388 2.4647 5.5802 3.7345 6.6747 7.109 2.8707 8.8508-4.4937 21.716-14.333 25.038-2.1999 0.74286-7.8249 3.0684-12.5 5.1679-4.8283 2.1683-11.524 4.2732-15.5 4.8729-15.716 2.3701-22.535 4.7648-45.378 15.935-2.9576 1.4463-9.0481 6.0387-13.534 10.205s-10.166 8.9691-12.622 10.672c-7.8324 5.4311-13.966 13.667-13.966 18.754 0 1.4969-1.327 6.6188-2.9488 11.382-1.6219 4.7631-3.4219 11.33-4 14.594-1.4841 8.3773-1.3045 25.067 0.3636 33.785 2.7553 14.401 13.843 44.966 24.597 67.808 3.2437 6.8896 6.6199 15.215 7.5027 18.5 2.1328 7.9371 3.029 27.432 1.5849 34.473-0.6204 3.025-1.5819 8.65-2.1367 12.5s-1.5201 10.036-2.1451 13.746c-2.5141 14.924 4.4688 22.72 29.183 32.58 4.125 1.6457 8.85 3.7054 10.5 4.577 4.2833 2.2627 5.6518 2.0251 10.748-1.8658zm700.5-238.79c2.0578-2.3375 6.7294-7.4 10.381-11.25 3.6521-3.85 7.8768-9.475 9.3883-12.5 5.0443-10.095 17.564-27.826 25.921-36.712 6.7158-7.1402 9.319-10.892 13.883-20.009 8.2155-16.41 9.7256-18.502 23.668-32.779 6.9821-7.15 14.387-15.668 16.455-18.928 2.068-3.2606 6.3639-9.0217 9.5464-12.802 3.1825-3.7808 9.5139-12.138 14.07-18.572 4.556-6.4336 11.734-15.298 15.952-19.698 4.2176-4.4 9.8586-11.15 12.536-15 6.5454-9.413 13.091-16.247 24.453-25.533 14.477-11.831 19.417-17.258 19.302-21.203-0.1596-5.4755-3.1692-14.182-7.2219-20.891l-3.8496-6.3731-7.0977-0.64605c-8.1989-0.74628-15.02-2.183-23.984-5.0519-8.7787-2.8094-14.102-1.9444-26.103 4.2415-5.25 2.7062-12.088 5.6508-15.195 6.5437-6.3067 1.8122-13.141 5.124-29.35 14.223-6.05 3.396-14.407 7.5027-18.572 9.126-4.1645 1.6234-12.264 5.2465-18 8.0514-5.7356 2.8049-15.488 6.6793-21.672 8.6098-7.2143 2.2522-11.589 4.1563-12.208 5.3134-1.0187 1.9034-5.048 46.051-5.048 55.308 0 5.8724-3.1094 27.702-8.0166 56.281l-3.0907 18-0.1963 48.25c-0.108 26.538-0.083 48.25 0.056 48.25 0.1389-1e-4 1.9362-1.9126 3.994-4.2501zm-973.7-73.318c9.1787-12.425 15.939-30.116 15.967-41.788 0.031-12.769 4.2956-33.897 8.8092-43.645 1.6455-3.5537 5.7881-8.8898 11.707-15.079 16.454-17.207 21.382-26.807 23.357-45.507 0.8702-8.2371 0.7788-11.812-0.4984-19.5-1.1202-6.7426-1.3833-12.451-0.9271-20.118 0.3918-6.586 0.2232-12.241-0.4383-14.697l-1.0752-3.9929-7.2256 5.4145c-9.5607 7.1643-22.934 14.512-35.777 19.657-8.2899 3.3209-56.123 26.831-57.869 28.443-0.2313 0.21355 0.6472 1.5249 1.9523 2.9141 2.6268 2.7961 2.6534 3.2824 1.1209 20.466-0.5151 5.775-1.7152 12.675-2.667 15.334-1.3661 3.8155-1.4941 5.3524-0.6081 7.297 1.6967 3.7238 1.3519 7.799-0.8775 10.369-2.3553 2.7157-2.6117 10.395-0.9675 28.973 1.7149 19.377 6.4743 30.576 17.436 41.027 7.1086 6.778 13.22 15.118 16.603 22.66 3.9403 8.7822 4.7371 9.744 6.7133 8.1039 0.8358-0.69363 3.2051-3.5427 5.2652-6.3314zm544.45-117.51c17.748-1.9459 29.046-5.1348 48.463-13.678 6.8546-3.0161 17.205-6.9898 23-8.8305 11.686-3.7114 34.091-15.632 50.141-26.677 23.477-16.156 56.85-29.839 80.992-33.207 14.424-2.0118 20.753-1.9308 32.044 0.40998 15.684 3.2515 24.263 7.0658 33.058 14.698 3.9451 3.4233 7.6543 5.4872 13.38 7.4447 35.273 12.059 48.353 17.784 56.795 24.858 5.7327 4.8034 5.6135 4.7728 21.314 5.4839 17.381 0.78723 35.522-2.0403 52.308-8.1528 6.8777-2.5044 12.814-4.8276 13.192-5.1626 1.5134-1.3418 4.9707-31.864 5.9024-52.109 0.5443-11.825 1.3254-25.037 1.7358-29.36 0.9254-9.7468-0.3201-53.999-1.7489-62.14-0.5949-3.3891-0.7786-10.19-0.4223-15.628 0.5357-8.177 0.2903-10.89-1.6282-18-1.6612-6.1561-2.127-10.018-1.76-14.592 0.6105-7.6079 0.5245-7.654-13.86-7.4332-7.5951 0.11658-12.919-0.47404-21.5-2.3854-11.196-2.4937-20.981-3.6471-45.906-5.4112-14.79-1.0468-18.644-1.8385-34.5-7.0872-11.586-3.8353-43.521-10.716-60-12.928-4.4-0.59061-14.3-1.5101-22-2.0433s-18.725-1.4083-24.5-1.9446-13.875-1.2501-18-1.5862c-4.125-0.3361-14.25-2.2055-22.5-4.1542-14.513-3.4281-15.471-3.526-29.5-3.0171-16.93 0.61411-30.547-0.55323-38.542-3.304-8.7256-3.002-34.839-7.8373-48.61-9.0006-6.7915-0.57377-22.379-1.4651-34.64-1.9807-12.26-0.51562-22.673-1.1733-23.139-1.4615-0.4663-0.28819-8.6601-0.96811-18.208-1.5109-9.5483-0.54281-20.961-1.4222-25.361-1.9542-9.2987-1.1243-25.366-2.7811-41-4.2274-6.05-0.55973-17.412-1.1138-25.25-1.2314l-14.25-0.21368v7.6639c0 4.2151-1.125 13.634-2.5 20.931s-2.5026 16.02-2.5058 19.384c0 3.364-0.455 8.8164-1.004 12.116-0.5491 3.3-1.6701 11.625-2.4913 18.5-0.8211 6.875-2.3618 16.105-3.4237 20.511-4.8146 19.977-7.1138 41.49-7.0153 65.644 0.034 8.334-0.3955 19.021-0.9543 23.749-0.5588 4.7281-1.7168 16.471-2.5734 26.096s-3.0983 25.141-4.9816 34.48c-1.8833 9.3389-3.3401 17.06-3.2374 17.158 0.1028 0.098 4.4618 0.90244 9.6868 1.7877 7.0918 1.2015 12.288 2.9074 20.5 6.7293 25.152 11.707 45.601 21.33 55 25.884 9.0536 4.386 10.852 4.8974 19 5.4033 4.95 0.30731 11.025 1.2132 13.5 2.013 3.5417 1.1446 8.2266 1.3362 22 0.89971 9.625-0.30503 21.1-0.94931 25.5-1.4317zm-547-73.22c4.4-1.9613 10.599-4.5333 13.775-5.7157 11.379-4.2358 27.63-14.25 37.225-22.939 4.7573-4.3082 18.434-12.883 32.12-20.138 5.434-2.8806 13.93-7.7981 18.88-10.928s10.39-6.4052 12.09-7.279 6.5076-4.4936 10.685-8.0438c5.2113-4.4288 11.932-8.6555 21.41-13.466 9.547-4.8449 15.403-8.5338 18.955-11.941 5.39-5.1694 29.318-21.793 41.644-28.932 3.9684-2.2983 10.815-7.1442 15.215-10.769 12.752-10.504 20.086-16.087 25.735-19.59 2.8958-1.7958 8.2938-5.2447 11.996-7.6643s11.577-6.9891 17.5-10.154c5.9231-3.1653 13.442-7.4859 16.709-9.6014s10.692-6.1074 16.5-8.871 15.511-8.0375 21.561-11.72c13.649-8.3071 19.162-11.069 27.699-13.877 6.0355-1.9853 7.7545-3.2336 17.351-12.601 5.8587-5.7184 13.008-11.727 15.887-13.352l5.2352-2.9546 1.1775-14.055c1.54-18.38-0.4375-71.184-2.662-71.081-0.3788 0.0175-1.5622 0.6925-2.6298 1.5-1.0677 0.80751-2.6771 1.4682-3.5766 1.4682-1.6772 0-24.34 15.049-61.482 40.828-11.55 8.0162-23.025 15.927-25.5 17.579s-9.6557 6.8032-15.957 11.446c-6.3014 4.6429-14.626 10.369-18.5 12.724-3.8735 2.3552-12.218 8.4326-18.543 13.505-13.224 10.606-29.836 22.554-70 50.348-15.675 10.847-45.024 31.5-65.22 45.896s-42.907 30.224-50.469 35.174c-12.302 8.0533-19.158 12.991-38.457 27.697-3.1058 2.3666-11.842 8.8029-19.414 14.303s-18.306 13.846-23.853 18.547c-14.912 12.636-20.455 16.853-25.536 19.428-2.5129 1.2733-5.5998 3.15-6.86 4.1704-2.2276 1.8038-2.2579 2.0563-1.0939 9.105 1.2354 7.4806 1.2113 7.7552-2.5236 28.719-0.7808 4.3829-1.2168 8.2972-0.9688 8.6985 0.248 0.4013 10.676-4.3617 23.174-10.584 12.498-6.2228 26.323-12.919 30.723-14.88zm978.04-185.2c0.5869-2.5778 2.4275-23.607 3.4135-39 0.4228-6.6 1.0935-12.956 1.4905-14.124 0.6512-1.9163 0.2492-2.1978-4.1119-2.8792-2.6586-0.41541-17.326-0.69252-32.594-0.6158-37.916 0.19052-49.431-1.8703-77.739-13.912-17.159-7.2992-21.479-8.5572-38-11.064-9.5726-1.4526-18.3-3.6404-30-7.5204-9.075-3.0096-19.875-5.9297-24-6.4892-4.125-0.55954-10.799-1.6699-14.83-2.4675-4.0316-0.79756-15.282-1.9042-25-2.4592-31.936-1.8239-41.236-3.7564-73.17-15.204-6.875-2.4645-15.65-5.0081-19.5-5.6525s-11.05-2.0244-16-3.0668c-4.95-1.0424-11.7-2.4291-15-3.0817-3.3-0.65256-8.6591-2.2589-11.909-3.5696-10.65-4.2953-25.148-6.3993-50.591-7.3419-26.08-0.96623-30.972-1.8699-48.995-9.0502-5.4511-2.1717-12.97-4.4371-16.708-5.0342-3.7383-0.59714-12.197-2.8046-18.797-4.9055-20.228-6.439-29.786-8.4528-33.813-7.1239-2.9112 0.96077-4.4317 0.80144-9.6778-1.0141-6.2026-2.1465-6.2309-2.1471-8.2036-0.17446-1.9245 1.9245-1.9447 2.5043-0.7276 20.865 1.8712 28.229 2.2295 54.368 0.9369 68.349-1.4416 15.591-1.9661 15.024 13.926 15.072 6.3574 0.0194 17.409 0.46119 24.559 0.98172 7.15 0.52054 19.187 1.3833 26.749 1.9173 9.6236 0.67956 15.042 1.5432 18.061 2.8785 3.0876 1.3658 7.8459 2.0963 16.752 2.5717 6.8413 0.3652 17.164 1.0998 22.939 1.6324 5.775 0.5326 21.254 1.4335 34.399 2.002 33.456 1.4469 55.199 4.5588 74.041 10.597 7.6445 2.4498 9.3254 2.5959 32.561 2.8308 22.79 0.2304 25.218 0.43253 34.794 2.8957 11.396 2.9317 19.537 3.9558 44.706 5.6244 45.37 3.0079 79.571 8.2934 104.21 16.105 14.123 4.4778 21.81 5.8956 32.291 5.956 4.125 0.0237 10.2 0.69511 13.5 1.4919s9.375 1.4768 13.5 1.5111c4.125 0.0343 12.429 1.0692 18.453 2.2998 8.202 1.6755 14.303 2.2289 24.293 2.2033 12.508-0.032 13.369-0.15902 13.796-2.0342z"/>
</svg>
