<?xml version="1.0" encoding="UTF-8"?>
<!-- Created with Inkscape (http://www.inkscape.org/) -->
<svg width="3508" height="2480" version="1.1" viewBox="0 0 3508 2480" xmlns="http://www.w3.org/2000/svg" xmlns:cc="http://creativecommons.org/ns#" xmlns:dc="http://purl.org/dc/elements/1.1/" xmlns:rdf="http://www.w3.org/1999/02/22-rdf-syntax-ns#">
 <metadata>
  <rdf:RDF>
   <cc:Work rdf:about="">
    <dc:format>image/svg+xml</dc:format>
    <dc:type rdf:resource="http://purl.org/dc/dcmitype/StillImage"/>
    <dc:title/>
   </cc:Work>
  </rdf:RDF>
 </metadata>
 <path d="m1712.5 2405.4c-15.128-2.8353-25.578-9.6992-35.127-23.072-2.4071-3.3711-5.4327-8.5461-6.7235-11.5-3.5908-8.2171-9.457-29.614-11.121-40.562-1.6272-10.708-4.3961-21.217-6.8305-25.925-2.4973-4.8293-14.269-19.082-24.68-29.884-12.686-13.161-16.23-18.628-20.036-30.903-5.568-17.962-7.8261-24.035-12.792-34.397l-4.8776-10.179-1.1196 5.2397c-0.6157 2.8818-1.6161 8.1646-2.2231 11.74-0.6069 3.575-1.9737 9.95-3.0372 14.167-1.0635 4.2167-1.9337 9.6023-1.9337 11.968 0 2.3658-0.6558 10.166-1.4572 17.333-3.4237 30.617-4.5615 43.55-4.5524 51.747 0.01 8.3285-0.1281 8.8721-3.094 12.25-2.6532 3.0219-3.7304 3.5348-7.4233 3.5348-5.8114 0-9.829-3.385-11.394-9.5999-2.8849-11.457-15.574-29.852-35.11-50.9-2.5524-2.75-6.8237-8.15-9.4916-12-11.946-17.239-30.152-32.3-54.531-45.109-2.4477-1.286-12.126-2.9467-31.425-5.3924-10.385-1.3161-20.748-5.0508-28.746-10.36-7.3504-4.8789-23.876-22.151-26.623-27.825-3.0915-6.3863-10.018-35.897-12.161-51.814-0.6295-4.675-2.4671-14.35-4.0836-21.5-3.1565-13.962-8.9075-55.985-8.9075-65.088 0-3.0464 1.1369-11.023 2.5265-17.725 2.8368-13.683 4.8344-37.849 3.9419-47.686-0.3244-3.575-1.2139-11.225-1.9767-17s-1.6545-13.875-1.9815-18c-0.6416-8.0936-3.2706-20.734-4.4661-21.473-0.8219-0.508-2.3517 2.7144-10.908 22.976-3.2526 7.7021-7.3185 18.865-9.0354 24.807-1.717 5.942-3.7673 12.349-4.5564 14.237s-2.387 6.9252-3.551 11.193c-4.2994 15.763-28.231 88.885-30.573 93.413-2.3945 4.6304-8.5958 11.016-12.138 12.499-7.9743 3.3383-15.001 0.5853-21.66-8.4867-5.8271-7.938-9.5734-17.18-13.583-33.506-2.0686-8.4239-4.8805-17.531-6.2487-20.238-2.6214-5.187-21.484-38.209-22.804-39.922-0.4238-0.55-7.3497-11.909-15.391-25.243-11.768-19.512-15.958-27.513-21.475-41-10.983-26.848-15.19-38.18-16.778-45.191-0.8178-3.6112-2.9989-11.516-4.8467-17.566-1.8479-6.05-4.9452-18.875-6.8829-28.5-2.1216-10.538-6.057-25.258-9.8922-37l-6.3691-19.5-6.0801 12.044c-3.3441 6.624-7.377 14.274-8.9621 17-5.6042 9.638-17.143 36.107-20.689 47.456-5.5101 17.638-12.326 27.622-24.017 35.178-9.9189 6.4109-15.529 4.9841-21.45-5.455-6.5498-11.549-9.0606-27.68-9.1405-58.723-0.041-16.017-1.4206-26.477-5.618-42.605-3.5152-13.507-3.6389-14.606-4.4316-39.395-0.4485-14.025-1.303-30.45-1.899-36.5-2.514-25.52-5.6441-85.645-7.1063-136.5-2.2728-79.053-2.6496-86.329-9.5017-183.5-1.9237-27.282-5.6797-54.358-13.941-100.5-3.6561-20.42-4.7665-29.384-5.5742-45-0.5547-10.725-1.5106-23.845-2.1242-29.156-0.61363-5.3108-0.8382-13.186-0.49904-17.5s1.1045-13.694 1.7008-20.844c0.77207-9.2577 0.77847-17.462 0.0222-28.5-1.2741-18.597 0.0655-56.965 2.4615-70.5 0.87627-4.95 1.7646-14.336 1.9741-20.859l0.38087-11.859-4.8538-9.1412c-7.3597-13.861-8.3247-18.231-8.4212-38.141-0.0787-16.242 0.0639-17.535 3.201-29 1.8058-6.6 3.7639-13.216 4.3512-14.702 0.83446-2.111 0.68507-3.7038-0.68347-7.2873-1.5298-4.0057-1.6676-6.7632-1.0891-21.798 0.36425-9.467 1.0949-19.463 1.6236-22.213s1.4268-14.45 1.9958-26c0.56895-11.55 1.6962-24.375 2.505-28.5 1.7179-8.7612 4.654-26.118 6.9358-41 0.88545-5.775 3.413-17.925 5.6167-27 3.624-14.924 4.886-18.315 13.21-35.5 5.0616-10.45 11.476-23.05 14.255-28 2.7785-4.95 6.6567-12.386 8.6181-16.525 1.9615-4.1389 6.3345-12.108 9.7178-17.709 3.3834-5.6011 8.8273-16.232 12.098-23.624 10.362-23.42 17.522-36.688 28.678-53.142 5.9668-8.8 13.388-20.783 16.492-26.629 7.609-14.332 25.296-40.758 33.069-49.409 6.5345-7.2723 15.789-20.89 22.278-32.782 7.7287-14.163 46.48-48.79 59.696-53.344 2.1899-0.75451 4.3708-1.1314 4.8462-0.83756 1.2605 0.77902 1.8362-0.52725 4.0537-9.1984 3.8064-14.884 9.181-23.35 28.44-44.8 12.131-13.511 16.82-20.08 22.255-31.177 5.4473-11.122 23.65-36.77 31.812-44.823 4.6003-4.5391 14.693-11.564 48.442-33.72 13.698-8.9923 15.67-10.728 24.734-21.78 13.054-15.917 21.927-22.681 45.126-34.4 19.314-9.7566 25.079-11.869 38.697-14.175 5.4687-0.92613 13.318-2.9128 17.443-4.4149 7.2897-2.6544 13.881-3.8878 32.5-6.0819 5.2333-0.61668 11.511-2.1234 15-3.6001 3.3-1.3968 14.55-5.4194 25-8.9393 10.45-3.5199 19.64-6.638 20.423-6.9292 1.1049-0.41114 0.9544-0.8574-0.6735-1.9976-4.4965-3.1495-4.5883-6.897-0.5017-20.485l3.7525-12.477v-26c0-28.649-2.3311-61.507-6.1646-86.896-0.8853-5.8631 1.3032-14.175 4.3668-16.584 3.6472-2.8689 7.8815-2.5897 11.21 0.73912 2.556 2.556 2.804 3.5299 3.3749 13.25 0.339 5.7702 1.0871 13.866 1.6627 17.991 4.1171 29.508 6.6279 77.084 4.9873 94.5-0.8884 9.431-4.6163 23.862-7.9428 30.747l-1.9572 4.0509 12.231-0.89898c20.252-1.4885 41.631-0.97219 57.731 1.3942 7.975 1.1722 23.5 2.8424 34.5 3.7115s27.425 2.4354 36.5 3.4806 19.425 2.169 23 2.4972 11.962 1.2928 18.637 2.1434c13.119 1.6716 14.672 1.5535 35.244-2.6798 11.332-2.3319 11.425-2.3344 21.5-0.59176 5.5654 0.96263 11.392 2.011 12.949 2.3298l2.8303 0.57957-0.7562-8.3819c-0.4159-4.61-0.7679-16.032-0.7823-25.382-0.024-15.927 0.2143-18.136 3.7824-35 2.0946-9.9 5.9607-26.55 8.5913-37 2.6305-10.45 5.3263-21.7 5.9905-25 1.9094-9.4867 8.7701-26.163 11.717-28.481 3.7149-2.9222 7.878-2.5912 11.374 0.9044 3.7495 3.7494 3.848 8.3936 0.3821 18.002-1.3975 3.8743-3.4441 11.214-4.5479 16.31-1.1039 5.096-2.8652 12.19-3.9141 15.765-2.2109 7.5352-6.8563 28.21-10.614 47.237-2.5244 12.784-2.5914 14.022-1.8527 34.263 0.4216 11.55 0.8121 23.209 0.8678 25.908l0.1014 4.9082 6 1.726c16.352 4.7041 33.006 12.336 38.838 17.799 1.5608 1.462 4.6731 5.4394 6.9163 8.8386 4.5221 6.8525 12.167 13.098 25.746 21.035 19.976 11.675 44.198 24.3 53.306 27.784 12.546 4.7986 18.449 10.004 26.852 23.679 4.0981 6.6687 7.9195 11.463 11.656 14.621 3.0572 2.5849 9.6371 8.555 14.622 13.267 4.985 4.712 15.364 13.242 23.064 18.957 15.895 11.796 25.7 21.188 34.481 33.032 6.7381 9.0877 12.432 15.944 13.24 15.944 0.291 0 0.8111-1.41 1.1557-3.1332 0.3587-1.7934 2.4939-5.0005 4.9935-7.5 3.9874-3.9874 4.7997-4.3668 9.3504-4.3668 3.6994 0 5.8594 0.63189 8.3816 2.4519 1.8689 1.3486 7.6729 5.1492 12.898 8.4459 16.842 10.626 39.083 31.151 48.166 44.45 3.4385 5.034 10.23 14.498 15.093 21.031 9.2377 12.411 13.276 19.501 16.212 28.463 0.9624 2.9377 3.1626 6.9528 4.8892 8.9226 4.4932 5.1258 21.644 20.473 33.228 29.734 12.65 10.113 41.832 38.165 48.805 46.914 2.9436 3.694 7.5468 10.82 10.229 15.836 3.8792 7.2539 6.8468 11.078 14.502 18.686 6.9148 6.8721 12.011 13.227 18.098 22.566 4.6597 7.15 11.765 17.05 15.79 22 11.405 14.027 16.77 23.153 21.623 36.782 1.4135 3.97 6.5398 14.868 11.392 24.218 5.0435 9.719 11.041 23.21 14.003 31.5 2.8499 7.975 9.2257 23.05 14.168 33.5s10.892 24.4 13.221 31c2.996 8.4906 6.1448 14.987 10.767 22.215 7.3797 11.54 8.2479 14.251 9.616 30.034 0.9239 10.658 1.2671 11.867 6.528 23 5.788 12.248 7.2907 16.756 10.588 31.767 2.5466 11.593 8.0763 56.058 8.0917 65.067 0.01 3.8039 0.6797 14.116 1.496 22.916 0.8162 8.8 1.5018 23.65 1.5234 33 0.022 9.35 0.4604 23.075 0.9749 30.5 1.2326 17.786-0.7419 43.423-5.0063 65-1.0326 5.225-2.5952 16.925-3.4725 26-3.5303 36.52-4.5003 42.87-9.947 65.107-4.6636 19.04-6.0183 26.886-9.0467 52.393-4.977 41.92-6.4289 52.892-8.1389 61.5-1.0218 5.144-1.8184 19.908-2.5358 47-1.7171 64.846-1.1085 91.523 2.5823 113.2 0.7776 4.5661 1.9272 11.79 2.5547 16.052 1.1334 7.6985 6.3056 26.577 9.9612 36.359 3.2163 8.6061 7.0594 29.04 8.4365 44.858 1.2175 13.984 1.738 16.334 7.4582 33.682 8.3522 25.329 11.854 45.767 13.145 76.733 0.6328 15.174 0.6021 23-0.095 24.304-1.4846 2.7739-6.9144 5.8073-10.401 5.8108-3.6225 0-14.116-4.8174-19.264-8.8506-2.0547-1.6096-5.5359-3.4757-7.7359-4.1467-6.2164-1.8962-12.064-5.6252-20.558-13.11-6.3437-5.59-7.9077-6.554-8.3313-5.1352-0.2868 0.9606-1.4668 8.9466-2.6223 17.747-4.1428 31.552-3.3354 29.523-32.633 82-4.913 8.8-10.163 18.541-11.668 21.647-1.9881 4.1052-3.657 6.0847-6.1127 7.25-4.2175 2.0013-4.9453 1.9959-9.2976-0.069-5.3188-2.5239-6.3615-6.0508-5.6202-19.008 0.7259-12.686-0.9521-31.248-3.8119-42.166-2.215-8.4567-18.28-57.226-19.764-59.999-3.444-6.4353-21.847-24.154-25.086-24.154-1.5235 0-1.9959 0.6686-1.9959 2.8251 0 1.5538-0.8549 7.7413-1.8997 13.75-1.0449 6.0087-2.1693 17.675-2.4987 25.925-1.6319 40.868-2.5562 51.541-5.6609 65.371-1.6828 7.4961-3.9302 17.944-4.9942 23.218s-4.3688 18.099-7.344 28.5c-6.2592 21.882-7.2676 28.072-8.1312 49.911-0.348 8.8-1.2546 19.15-2.0148 23s-1.8267 10.636-2.37 15.081c-1.2279 10.044-3.9393 17.426-9.1944 25.034-4.9441 7.1573-34.93 37.602-51.392 52.179-6.6 5.8442-19.276 17.685-28.169 26.313-9.3509 9.0726-20.525 18.774-26.5 23.008-5.6822 4.026-15.411 11.298-21.62 16.159-14.994 11.74-17.391 13.102-21.651 12.303-4.4439-0.8337-9.15-6.1895-10.034-11.418-0.699-4.1378 1.9368-16.326 8.4647-39.14 3.5876-12.538 5.4687-29.352 4.5894-41.019-0.6409-8.5028-3.3499-21.461-7.6306-36.5-1.9818-6.9623-2.2867-10.4-2.3509-26.5-0.078-19.665 0.799-27.038 5.1169-43 2.6551-9.8154 3.394-23.824 1.5233-28.881-0.8351-2.2575-1.0137-2.1637-5.6089 2.9472-9.8465 10.952-19.598 30.991-22.111 45.439-1.6997 9.771-3.3562 16.331-8.9628 35.495-5.4011 18.461-10.471 45.377-11.584 61.5-0.5315 7.7-1.6336 16.925-2.449 20.5s-1.4946 8.975-1.5093 12c-0.034 6.9762-1.9824 19.888-7.0106 46.457-2.1904 11.574-4.6094 24.435-5.3757 28.58-0.8046 4.3535-4.776 15.969-9.4021 27.5-11.883 29.618-17.185 47.027-17.196 56.463 0 1.925 0.884 7.775 1.9695 13 3.5373 17.026 2.4398 25.482-5.2284 40.288-4.7771 9.2233-11.234 16.724-17.637 20.488-4.0018 2.3525-5.7259 2.7243-12.634 2.7243-7.1859 0-8.6314-0.3424-14.204-3.365-14.951-8.109-22.275-17.925-41.315-55.377-6.0734-11.946-14.109-32.138-18.608-46.758-2.6556-8.6297-5.3734-26.416-5.4131-35.425-0.038-8.6269-0.1139-8.939-1.5354-6.3185-2.4045 4.4325-10.263 32.933-12.452 45.162-2.23 12.456-1.8489 18.696 2.0019 32.781 4.5207 16.535 5.9856 29.957 6.06 55.525 0.046 15.84-0.3496 21.114-2.5306 33.726-3.1482 18.206-3.7087 20.743-7.5834 34.322-2.5416 8.9068-3.2071 13.528-3.9212 27.227-0.7754 14.874-1.3598 18.51-5.9297 36.894-2.7882 11.217-5.0712 21.342-5.0732 22.5-0.01 3.6254-3.6139 8.3242-7.3332 9.5517-4.2647 1.4075-9.8236-0.509-11.712-4.0379-0.6655-1.2436-2.2524-8.3692-3.5265-15.835-3.3406-19.576-13.405-47.473-23.836-66.074-2.9303-5.225-7.7068-14-10.615-19.5-5.5717-10.539-14.518-26.468-21.183-37.716-8.2377-13.903-9.4241-24.16-7.3893-63.881 0.6619-12.921 0.5995-17.784-0.2346-18.3-1.3685-0.8457-4.3323 3.746-7.3565 11.397-4.3696 11.055-2.0775 28.986 7.1584 56 6.6291 19.389 7.9604 40.202 3.5203 55.036-1.8595 6.2127-2.8205 12.808-3.7046 25.426-1.8176 25.94-1.6583 42.125 0.4655 47.308 3.3923 8.2777 1.4539 14.126-5.4787 16.529-10.493 3.6373-29.263 8.9123-40.271 11.318-15.238 3.3298-41.278 4.2102-54 1.8257zm55-23.322c7.15-1.6405 14.926-3.8024 17.28-4.8042l4.28-1.8214 0.3677-19.998c0.5472-29.757 2.0571-46.512 5.1411-57.047 2.3379-7.9869 2.5482-9.9725 1.9539-18.45-0.8094-11.548-1.9556-17.18-5.148-25.298-2.6308-6.6895-6.5967-20.896-8.9828-32.177-1.9328-9.1379-1.906-25.401 0.054-32.774 3.3168-12.477 13.225-27.461 20.723-31.338 3.9223-2.0283 12.199-1.7795 16.621 0.4997 12.653 6.522 16.753 19.3 14.163 44.141-1.7114 16.411-1.7086 35.312 0.01 40.447 1.319 3.9495 5.227 11.212 15.723 29.22 2.9558 5.0711 9.1902 16.504 13.854 25.408s8.9414 16.743 9.5051 17.422c0.5638 0.6792 3.8926 8.2909 7.3973 16.915 3.5047 8.6238 6.5773 15.885 6.8279 16.135s0.6992-5.9693 0.9968-13.822c0.4782-12.618 1.0719-16.371 5.1056-32.278 5.9128-23.318 7.8873-35.789 8.3909-53 0.6508-22.243-1.0753-39.497-5.8091-58.068-6.3361-24.856-5.6647-36.185 4.2333-71.432 4.0878-14.557 13.993-39.43 18.111-45.478 5.2939-7.775 11.568-10.682 18.365-8.5088 5.1623 1.6507 8.7305 5.1798 11.48 11.354 2.0701 4.649 2.3474 7.2046 2.9436 27.132 0.7932 26.512 1.8839 32.668 9.7442 55 6.1249 17.401 10.693 27.292 21.94 47.5 8.3022 14.918 13.177 21.297 18.784 24.583 8.5028 4.983 11.757 3.2281 18.432-9.9403 4.9456-9.7563 5.168-13.04 2.0004-29.534-2.4932-12.983-2.2472-18.401 1.5428-33.98 2.8087-11.545 7.1226-24.021 15.926-46.057 3.6096-9.0358 7.0549-19.386 7.6563-23 0.6013-3.6143 3.1005-17.371 5.5537-30.571s4.8737-29.627 5.3789-36.505c0.5052-6.8776 1.8204-16.778 2.9225-22 1.1045-5.2335 2.011-13.379 2.0196-18.147 0.025-13.77 5.9222-42.727 14.545-71.42 1.83-6.0896 4.29-16.172 5.4664-22.406 2.5572-13.55 5.2558-21.028 12.639-35.022 15.4-29.189 33.047-41.927 47.123-34.016 7.6742 4.3132 11.416 11.821 13.251 26.586 1.2961 10.431 0.7329 16.227-3.0056 30.93-5.2882 20.798-6.3304 44.968-2.5223 58.5 3.6241 12.878 6.638 27.184 7.7409 36.744 1.5361 13.315-0.1254 34.748-3.7328 48.152-1.3909 5.1682-2.372 9.5536-2.1803 9.7454 0.5212 0.5212 14.251-9.0849 21.86-15.294 3.6676-2.993 8.7535-7.8824 11.302-10.865 2.5484-2.9829 13.488-13.199 24.31-22.703 23.313-20.473 51.677-48.932 56.19-56.378 2.5624-4.228 3.4971-7.3363 4.6183-15.358 0.7731-5.5313 1.8742-12.148 2.4469-14.703 0.5726-2.5553 1.4624-13.465 1.9773-24.243 1.0381-21.73 2.569-30.006 10.435-56.412 2.4878-8.3518 5.2409-19.01 6.1179-23.685 0.8771-4.675 2.8883-14.125 4.4695-21 2.9077-12.643 3.0288-14.007 5.949-67 0.5001-9.075 1.5662-19.65 2.3691-23.5 0.803-3.85 1.7567-9.5672 2.1196-12.705 0.9896-8.5583 5.0296-15.694 10.527-18.594 3.8246-2.0174 5.5506-2.3093 11.5-1.9454 9.2705 0.567 12.914 2.5743 25.762 14.191 11.389 10.298 16.88 17.536 20.978 27.653 4.7593 11.748 19.784 59.006 20.984 65.999 0.6508 3.7954 1.4656 6.9007 1.8106 6.9007 1.2848 0 17.253-30.247 19.141-36.257 1.0786-3.4334 3.2664-15.034 4.8616-25.778 3.0429-20.495 4.214-24.98 8.6515-33.133 3.1015-5.6985 9.1045-9.8308 14.281-9.8308 4.1595 0 9.0818 3.0148 13 7.9624 6.3363 8.0002 16.652 16.057 24.998 19.525l8.0314 3.3366v-8.3857c0-9.0995-5.0573-42.851-7.6324-50.938-0.8758-2.75-3.8274-11.294-6.5593-18.986-4.3202-12.165-5.0947-15.551-5.9482-26-1.5593-19.09-4.6771-34.598-11.061-55.014-4.4768-14.317-6.7622-23.929-9.2732-39-5.6035-33.632-6.3403-50.641-5.1977-119.99 0.6292-38.19 1.2458-47.358 4.2042-62.508 0.8055-4.125 2.1331-13.575 2.9501-21 5.7279-52.052 7.6023-64.699 12.588-84.926 5.5388-22.472 7.2718-32.817 8.8912-53.074 1.4875-18.609 2.7737-28.872 5.0125-40 3.9878-19.82 5.0906-41.454 4.0268-79-0.5376-18.975-1.4058-37.941-1.9292-42.147-0.5235-4.2059-1.2376-13.881-1.587-21.5-0.9225-20.117-5.1048-52.86-8.667-67.853-2.2291-9.3826-4.4628-15.749-8.0272-22.879-5.7468-11.496-8.4105-20.99-9.3443-33.306-0.66-8.7041-0.7535-8.9522-7.4688-19.814-4.7011-7.6041-8.0997-14.705-11.009-23-2.3147-6.6-6.3815-16.333-9.0374-21.63-7.6179-15.191-13.763-29.272-19.132-43.839-5.5505-15.059-6.0489-16.159-14.201-31.326-3.1911-5.937-7.949-16.171-10.573-22.742-5.9311-14.851-8.88-19.737-21.091-34.945-5.3415-6.6525-12.1-16.016-15.018-20.807-3.6382-5.9732-8.6242-12.019-15.862-19.234-8.9967-8.9683-11.442-12.143-16.556-21.5-5.5123-10.086-7.3817-12.388-23-28.327-9.35-9.5419-22.175-21.534-28.5-26.648-19.491-15.762-39.594-34.195-42.885-39.323-1.7235-2.6859-4.2626-8.2026-5.6424-12.259-2.7736-8.1547-4.4929-11.019-14.959-24.92-3.9337-5.225-9.1083-12.425-11.499-16s-5.5112-7.85-6.9343-9.5c-3.2273-3.7417-23.36-22.18-28.081-25.717-8.3507-6.2572-20-11.617-20-9.2021 0 0.31946 4.1625 5.2988 9.25 11.065 13.016 14.753 16.088 18.69 22.176 28.419 9.475 15.143 16.686 31.516 20.48 46.498 1.123 4.4347 4.3109 13.435 7.0844 20 6.5657 15.542 6.9928 16.394 13.349 26.636 5.7259 9.2265 11.327 24.422 18.061 49.002 1.9139 6.9856 5.0866 16.991 7.0504 22.234 1.9638 5.2432 4.2159 12.578 5.0046 16.299 2.1043 9.9279 3.9945 14.659 10.203 25.536 7.337 12.854 10.769 21.475 14.82 37.23 1.8388 7.15 4.9338 17.275 6.8779 22.5 3.8146 10.252 7.2185 23.155 10.651 40.372 1.1921 5.9796 2.8015 12.669 3.5765 14.866s2.3476 9.6792 3.4946 16.628c1.4254 8.6358 3.1333 15.008 5.3966 20.134 1.8211 4.125 4.0354 11.55 4.9206 16.5 1.3473 7.534 4.8058 36.711 7.2308 61 0.7174 7.1851-0.6697 19.281-4.5642 39.804-1.5861 8.3578-3.1855 20.146-3.5543 26.196-0.3689 6.05-1.759 15.947-3.0893 21.993-2.7736 12.606-3.0033 21.236-0.905 34.007 0.8133 4.95 1.4804 12.028 1.4825 15.73v6.7297l4.0163 2.0489c2.8443 1.4511 4.8139 3.5312 6.75 7.1289 4.9872 9.2675 11.924 19.311 16.098 23.308l4.1201 3.9453 7.7578-0.232c16.339-0.4888 21.747-2.0307 32.258-9.1981 12.85-8.7626 16.804-16.774 26.632-53.96 4.259-16.116 5.7552-35.177 5.7299-73-0.017-26.297 0.7562-22.367-9.3492-47.5-2.8748-7.15-6.2675-16.825-7.5393-21.5-4.1395-15.216-6.84-21.32-12.639-28.568-3.0503-3.8126-6.8144-9.1821-8.3646-11.932-5.4196-9.6139-23.857-36.053-29.389-42.144-3.0692-3.3792-7.1554-9.1469-9.0804-12.817-3.6925-7.0402-6.9745-11.208-21.405-27.181-10.655-11.794-15.453-18.215-24.662-33.006-7.5692-12.156-19.53-21.809-17.667-26.306 4.4697-10.791 21.513-7.8869 26.952 5.1317 0.8512 2.0373 12.782 11.859 12.782 13.204 0 2.6945 7.9171 13.878 18.083 25.542 14.753 16.928 20.263 23.927 23.678 30.077 1.9854 3.575 5.6675 8.7794 8.1823 11.565 4.2695 4.7296 20.502 27.874 31.282 44.603 2.5987 4.0326 6.9417 10.112 9.6511 13.51 5.2457 6.5784 7.7946 12.391 11.763 26.822 2.9001 10.547 5.8333 18.713 12.392 34.5 6.9068 16.625 7.402 19.811 7.3809 47.5-0.036 47.88-2.2481 66.837-10.93 93.695-1.9146 5.9225-3.4811 11.43-3.4811 12.239 0 0.8087-2.3368 6.1046-5.193 11.768-4.2215 8.3716-6.612 11.701-12.779 17.798-8.3972 8.3022-21.541 16.648-29.451 18.7-13.24 3.4343-32.468 4.2381-39.999 1.672-5.6512-1.9255-15.107-10.373-21.615-19.31-2.4277-3.3337-4.6613-6.0614-4.9636-6.0614s-1.7873 5.2875-3.2998 11.75c-1.5126 6.4625-3.7772 14.248-5.0324 17.302-2.5781 6.2715-11.987 21.125-17.779 28.066-2.1192 2.5399-4.4234 6.3649-5.1205 8.5-0.9433 2.8892-2.2122 4.3439-4.9611 5.6875-8.3839 4.098-21.789 22.791-37.714 52.592-10.131 18.958-14.994 26.038-23.917 34.82-5.5814 5.4934-11.058 12.57-18.622 24.064-8.6629 13.164-12.95 18.534-22.384 28.038-10.022 10.096-13.081 12.518-21.669 17.155-8.8047 4.754-11.618 7.0205-23.533 18.962-7.443 7.4594-16.155 16.623-19.36 20.364-3.8774 4.5255-9.273 9.1132-16.125 13.71-5.6636 3.7998-15.402 11.501-21.64 17.114-21.306 19.169-36.344 30.279-64.221 47.444-14.216 8.7537-29.852 21.563-48.122 39.425-14.022 13.709-16.606 15.451-33.392 22.514-6.9344 2.9176-17.648 7.5955-23.808 10.396-6.1601 2.7999-15.835 6.6048-21.5 8.4552-5.665 1.8504-15.025 5.3945-20.8 7.8758-5.775 2.4814-13.875 5.2858-18 6.232-4.125 0.9463-12.9 3.2444-19.5 5.1071-28.714 8.1036-63.785 12.345-90 10.885-7.7-0.429-22.325-0.8204-32.5-0.8698-10.175-0.049-18.973-0.3988-19.552-0.7764s-6.8785-1.1973-14-1.8216c-13.674-1.1987-18.61-2.2524-29.948-6.3931-5.8051-2.1201-8.7731-2.5601-17.387-2.5776-9.8186-0.02-18.272-0.7459-36.518-3.1362-4.3476-0.5695-12.358-2.6191-17.801-4.5547-13.42-4.7724-35.314-10.711-50.295-13.643-11.697-2.2892-31.259-8.5453-39.352-12.585-4.2063-2.0999-13.498-5.7458-20.648-8.1022-16.68-5.4968-27.474-10.941-40.238-20.293-5.6307-4.1259-13.956-9.6349-18.5-12.242s-11.187-6.424-14.762-8.4813c-3.575-2.0574-10.306-5.6469-14.957-7.9768-12.809-6.4163-20.328-11.48-34.043-22.925-6.875-5.7373-17.9-14.407-24.5-19.266-11.999-8.8337-21.136-16.483-39.692-33.227-7.5803-6.8403-11.688-11.606-17.671-20.5-4.2871-6.3732-10.684-15.869-14.216-21.101-3.5316-5.2322-8.6239-13.043-11.316-17.358l-4.8949-7.8448-1.279 3.0418c-0.7035 1.673-3.1879 4.7591-5.521 6.858-4.6733 4.2042-25.03 29.297-29.32 36.143-1.4915 2.3797-4.1326 7.7797-5.869 12-3.136 7.6218-3.1574 7.7942-3.189 25.673-0.018 9.9 0.613 25.023 1.4012 33.606 1.6025 17.452 0.5863 35.056-2.4637 42.679-1.2118 3.0286-6.0029 8.2359-18.113 19.686-9.056 8.5627-18.69 17.327-21.409 19.476-6.2157 4.9132-14.499 8.0477-23.194 8.7767-3.712 0.3112-7.1376 1.0631-7.6126 1.671-0.475 0.6078-1.8743 4.4801-3.1095 8.6051-3.761 12.559-2.4661 16.932 11.627 39.267 9.6612 15.311 15.68 27.795 17.261 35.8 0.6986 3.5383 2.57 10.708 4.1586 15.933 1.5885 5.225 4.0167 14.316 5.3959 20.202 1.3792 5.8865 3.5909 13.58 4.9149 17.098 4.3321 11.509 5.9659 21.192 5.9394 35.2-0.023 12.138-0.2692 13.786-3.7145 24.865-5.5745 17.924-7.6235 21.133-16.385 25.655-3.7374 1.9291-4.649 2.0486-7.2882 0.9555-3.7759-1.5641-4.94-3.7002-4.94-9.0651 0-2.9213 0.743-5.1955 2.4127-7.3845 1.3269-1.7397 2.9362-5.1572 3.576-7.5944 0.6399-2.4371 2.315-8.1684 3.7224-12.736 2.3131-7.5071 2.5092-9.4286 2.0418-20-0.4427-10.015-1.046-13.259-4.1987-22.582-2.0249-5.9877-4.7465-15.663-6.0481-21.5-1.3015-5.8374-3.308-13.538-4.4588-17.113-1.1509-3.575-2.9567-10.691-4.013-15.812-2.0177-9.7838-6.2871-18.851-16.098-34.188-7.1424-11.165-12.934-23.941-14.198-31.317-1.1822-6.9016-0.5107-11.466 4.1071-27.916 3.4741-12.376 8.3749-16.048 22.967-17.211 4.022-0.3204 8.7653-1.1895 10.541-1.9313 2.864-1.1967 12.205-9.3245 32.452-28.236 6.158-5.7519 6.3303-6.0532 7.3705-12.89 1.1465-7.5359 0.7198-23.462-1.2397-46.266-0.9415-10.957-0.9594-16.895-0.077-25.597 2.1547-21.253 7.4879-32.504 26.945-56.841 18.284-22.87 22.051-26.053 28.823-24.354 3.4853 0.8748 3.419 0.7351-7.8758-16.584-5.192-7.9612-11.194-17.824-13.337-21.917-2.8303-5.4043-6.5005-10.065-13.405-17.024-10.01-10.087-16.591-20.58-21.064-33.581-1.101-3.2-3.7293-8.7475-5.8407-12.328-8.5125-14.435-9.892-20.533-5.6469-24.964l2.4564-2.564-1.8844-11.552c-1.0364-6.3535-2.3837-17.824-2.9939-25.491-0.6103-7.6664-1.5349-17.989-2.0548-22.939-0.5198-4.95-0.9529-9.7022-0.9625-10.56-0.014-1.2854-1.9114-0.9152-10.767 2.1012-5.9125 2.0138-13.45 5.0881-16.75 6.8317-9.1489 4.8341-20.355 6.6036-34.011 5.3708-6.564-0.5925-14.237-2.0338-19-3.5689-4.3942-1.4162-11.589-3.7353-15.989-5.1534-11.391-3.6714-10.957-3.7283-11.275 1.479-0.151 2.475-1.051 9.675-2 16-1.4462 9.6394-1.7253 19.104-1.7253 58.5 0 25.85-0.376 51.5-0.8356 57-0.6394 7.6513-0.4642 12.231 0.746 19.5 0.8698 5.225 1.5834 13.165 1.5856 17.644 0.01 16.018 1.5797 27.074 10.998 77.356 5.0472 26.946 8.9091 60.186 11.503 99 1.3781 20.625 3.2098 46.95 4.0705 58.5 1.628 21.848 2.3763 41.215 4.8293 125 0.8051 27.5 1.706 50.675 2.002 51.5s1.242 13.87 2.1022 28.988c0.8603 15.119 2.0193 31.769 2.5757 37 0.5565 5.2313 1.4131 20.986 1.9037 35.012 0.8006 22.888 1.1614 26.459 3.5218 34.857 4.5843 16.312 5.5831 24.505 6.5395 53.643 0.8748 26.651 2.2223 38.463 4.4643 39.135 2.5481 0.7639 8.0094-9.2978 13-23.95 5.1759-15.198 15.4-38.358 21.484-48.67 1.7801-3.0167 7.4686-13.94 12.641-24.274 8.2269-16.436 9.8267-18.991 12.776-20.397 7.4667-3.5607 14.289 0.7833 20.756 13.216 5.4782 10.532 17.2 47.51 20.814 65.659 1.7213 8.6452 4.3874 19.445 5.9248 24 1.5373 4.5548 3.5904 11.882 4.5623 16.282 1.8871 8.5428 8.7308 27.245 18.296 50 4.3481 10.344 9.8898 20.529 21.218 39 17.089 27.864 33.862 56.88 38.151 66 1.5519 3.3 4.425 12.481 6.3847 20.403 3.6295 14.671 6.6802 23.182 8.9986 25.107 0.9983 0.8285 1.6457 0.097 2.8471-3.2185 4.4532-12.288 21.271-64.051 24.773-76.25 2.2173-7.7226 5.1229-17.114 6.4569-20.87 1.334-3.7559 3.5806-10.956 4.9925-16 1.4119-5.0442 4.5112-13.671 6.8872-19.171 2.3761-5.5 5.9468-13.952 7.9348-18.783 1.988-4.8305 6.3296-14.199 9.6479-20.819 5.3349-10.642 6.4525-12.211 9.653-13.548 4.5186-1.888 9.3793-1.0849 12.394 2.0478 2.0958 2.1776 8.918 18.688 12.438 30.102 0.8481 2.75 2.1982 11.075 3.0001 18.5 0.802 7.425 2.1256 18.45 2.9414 24.5 2.5889 19.201 1.5327 44.472-2.6462 63.314-2.6457 11.928-2.6351 18.388 0.062 38.186 2.8406 20.849 3.8816 26.754 6.7778 38.449 1.3552 5.4717 3.2907 16.047 4.3013 23.5 1.5035 11.088 6.3908 33.17 9.5314 43.065 0.9939 3.1314 13.425 16.576 18.975 20.522 7.1768 5.1025 14.096 7.2784 28.493 8.9609 24.359 2.8466 27 3.7031 45.877 14.877 18.704 11.071 36.638 27.467 46.629 42.626 2.7185 4.125 7.2696 9.975 10.114 13 7.748 8.2408 20.408 23.238 20.408 24.176 0 0.453 0.3977 0.8237 0.8837 0.8237s1.1215-4.3875 1.4122-9.75c1.0977-20.25 2.8722-37.004 4.6871-44.25 2.7041-10.797 5.7159-28.78 6.9567-41.538 0.5904-6.0707 1.9612-16.421 3.0462-23 1.0849-6.5793 1.982-15.495 1.9934-19.812 0.02-7.5824 0.1366-7.9659 3.4207-11.25 3.7555-3.7555 6.9643-4.2972 11.515-1.9441 3.9819 2.0592 6.0852 7.1507 6.0852 14.731 0 11.009 7.8475 34.639 20.528 61.813 2.9515 6.325 7.1652 17.493 9.3638 24.818 4.8677 16.217 7.1384 20.229 17.003 30.039 14.109 14.032 27.57 31.13 30.51 38.754 2.4469 6.344 6.3857 22.439 7.0695 28.889 0.8094 7.633 7.8166 32.168 10.958 38.366 4.0128 7.919 10.885 14.729 17.36 17.202 11.853 4.528 36.582 4.1287 58.708-0.9479zm-163.18-391.13c-3.2416-1.306-4.3154-4.1269-4.3154-11.336 0-7.8668 5.199-29.154 10.418-42.657 2.0196-5.225 6.2976-17.375 9.5068-27 3.2091-9.625 9.2073-25.375 13.329-35 14.911-34.818 16.827-43.595 12.476-57.153-3.5118-10.943-19.955-37.314-27.125-43.503-4.364-3.7665-26.722-16.656-32.629-18.811-1.938-0.7069-6.888-1.5922-11-1.9673-27.81-2.5368-43.742-4.8302-48.476-6.9783-11.694-5.3059-16.474-12.894-16.49-26.178-0.01-4.7595 0.7792-11.141 1.9066-15.5 3.394-13.124 21.101-47.784 40.057-78.41 4.766-7.7 11.954-20.075 15.974-27.5s9.6437-17.1 12.498-21.5c9.1112-14.045 22.282-31.055 25.009-32.297 6.6737-3.0407 12.546 0.2685 12.546 7.07 0 2.7747-1.2525 5.4375-5.25 11.162-16.913 24.218-20.493 29.796-28.171 43.892-4.6532 8.5424-12.465 21.976-17.36 29.853-14.806 23.825-32.181 56.673-36.402 68.821-2.5258 7.2686-3.4348 16.976-1.8645 19.911 1.9218 3.5909 6.4156 4.7826 24.548 6.5102 30.047 2.8626 35.581 3.5865 39.326 5.1435 5.8335 2.4255 29.117 15.411 35.396 19.74 5.7983 3.9982 14.184 13.928 21.277 25.195 2.0775 3.3 5.4845 8.5929 7.5711 11.762 7.7599 11.786 12.86 30.166 11.524 41.532-0.9478 8.0643-6.8517 25.304-15.779 46.075-4.4039 10.247-11.069 27.631-14.811 38.631s-8.4593 24.723-10.482 30.495c-2.0232 5.7721-4.7905 15.222-6.1496 21-3.3803 14.371-4.0515 15.801-8.4757 18.058-4.179 2.132-5.3148 2.2564-8.5813 0.9403zm241.48-29.884c-2.9202-2.6092-3.2255-3.4125-3.1363-8.25 0.054-2.9477 1.7004-11.232 3.6579-18.41 3.6833-13.507 4.6892-18.651 7.1274-36.449 1.6787-12.254 7.8881-34.571 13.369-48.049 4.196-10.318 6.9146-18.865 10.163-31.951 1.1606-4.675 4.0029-14.125 6.3164-21l4.2063-12.5-0.1218-21.5c-0.1367-24.129-2.3157-39.579-7.0886-50.263-3.5997-8.0577-12.981-16.565-32.236-29.232-16.884-11.107-22.747-16.662-27.914-26.443-4.1028-7.7672-5.0723-14.146-4.9491-32.562 0.093-13.837-0.3345-18.568-3.1593-35-3.1046-18.058-3.2358-19.842-2.6474-36 1.0237-28.111 5.143-41.708 14.418-47.59 8.1345-5.1588 13.969-3.2416 18.73 6.1552 2.977 5.8748 3.1038 9.3778 0.4942 13.658-1.8149 2.9766-3.1691 3.6936-8.4875 4.4939-2.7523 0.4142-3.4777 4.4746-4.1597 23.283-0.545 15.032-0.385 17.09 2.6438 34 2.7933 15.596 3.2439 20.471 3.3742 36.5 0.1391 17.123 0.3222 18.853 2.4598 23.239 2.8923 5.9344 8.6448 11.032 21.051 18.656 12.865 7.9058 20.487 13.721 28.376 21.648 14.23 14.3 19.686 32.937 21.222 72.49 0.7273 18.729-0.4598 29.527-4.5678 41.551-1.6753 4.9033-4.8544 15.665-7.0646 23.915-2.2103 8.25-6.6929 22.142-9.9614 30.87-7.6658 20.472-11.553 35.078-13.475 50.63-2.6996 21.845-10.679 49.74-15.518 54.25-4.0429 3.7677-8.8059 3.7167-13.123-0.1406zm-598.8-131.11c-2.6262-2.6262-2.5387-7.0274 0.2111-10.615 1.2161-1.5867 13.532-14.62 27.369-28.963l25.158-26.079 10.722-21.921c5.8972-12.057 11.838-24.57 13.201-27.806 3.1837-7.5594 3.879-16.367 2.3775-30.115-0.6608-6.05-1.5551-20.225-1.9874-31.5-0.6718-17.522-1.3255-23.254-4.4994-39.455-3.1176-15.914-4.5936-21.046-9.2003-31.988-15.189-36.078-18.785-54.681-13.688-70.816 3.8631-12.228 24.515-41.917 40.781-58.626 14.569-14.966 20.36-19.717 25.829-21.189 7.7235-2.0797 16.061 2.6194 16.061 9.0524 0 4.1637-2.7846 6.8162-7.9726 7.5942-3.6677 0.55-5.695 1.8604-12.058 7.794-4.2068 3.923-10.891 10.837-14.855 15.365-8.3662 9.5574-25.203 34.307-29.039 42.686-5.3887 11.77-2.3474 27.2 12.148 61.628 4.7414 11.262 6.2647 16.543 9.9166 34.38 5.3 25.887 5.3951 26.615 6.5404 50.074 0.5102 10.45 1.4045 23.95 1.9874 30 1.8801 19.514 0.5917 23.967-17.863 61.734l-12.086 24.734-16.901 17.376c-18.379 18.895-27.447 27.565-33.651 32.173-2.2 1.6341-4.225 3.2437-4.5 3.577-2.7324 3.3116-11.056 3.8499-14 0.9054zm859.67-109.04c-2.9339-2.3078-4.2205-7.2192-3.2486-12.4 0.8024-4.2771 9.8141-18.013 20.048-30.557 6.2847-7.7037 9.5224-13.093 17.122-28.5 10.718-21.728 12.793-28.22 11.828-37-0.9132-8.3098-4.0476-18.124-7.5535-23.652-4.0765-6.4268-18.679-20.215-24.531-23.163-2.6602-1.3401-8.8868-3.6548-13.837-5.1437s-10.816-3.757-13.034-5.0401c-6.0021-3.4708-13.269-11.786-16.428-18.798-5.7389-12.737-6.4337-21.257-5.1547-63.203 1.0893-35.726 1.5506-39.413 8.1315-65 10.656-41.43 20.582-66.924 32.357-83.107 2.4415-3.3555 5.3554-7.8967 6.4752-10.092 2.9789-5.8391 8.4602-10.302 12.654-10.302 9.7676 0 15.981 16.105 7.4549 19.323-1.6252 0.6135-2.9549 1.3772-2.9549 1.6973s-1.8869 3.4839-4.1931 7.0308c-11.403 17.537-16.638 29.48-24.305 55.449-9.6847 32.801-12.444 45.91-13.472 64-1.4315 25.191-1.8817 53.852-0.9732 61.953 1.029 9.1754 4.1445 16.638 8.567 20.521 2.1461 1.8843 6.5513 3.9229 12.124 5.6105 16.524 5.0043 25.558 10.688 38.284 24.084 9.2125 9.6984 14.008 17.224 17.276 27.111 5.4775 16.573 5.9235 30.67 1.3833 43.72-1.3395 3.85-6.5071 15.325-11.484 25.5-7.7429 15.831-10.379 20.148-18.274 29.927-5.0743 6.2849-11.683 15.06-14.686 19.5-3.0033 4.44-6.3906 9.0853-7.5274 10.323-2.6869 2.9251-8.4643 3.0242-12.046 0.2067zm176.64-126.95c-6.4761-2.6424-5.4932-14.899 3.6156-45.087 5.4229-17.972 11.077-43.096 14.161-62.918 1.0694-6.875 3.3266-17.409 5.0161-23.409 2.3631-8.3926 2.9219-11.968 2.4225-15.5-1.2248-8.6607-4.7862-20.598-8.6278-28.918-4.4371-9.6099-12.553-18.685-27.501-30.752-11-8.88-15.818-14.931-22.285-27.993-6.1893-12.5-7.3626-16.728-10.805-38.928-2.5114-16.197-2.7727-20.271-2.6087-40.675 0.25-31.101 2.0896-39.873 10.097-48.15 8.7858-9.0821 19.071-8.6583 22.23 0.916 2.5707 7.7893-1.0007 16.109-7.9559 18.534-2.8123 0.9803-2.9285 1.2851-3.6098 9.464-1.2824 15.395 0.099 44.464 2.9329 61.723 4.3516 26.502 10.019 37.18 27.349 51.523 11.709 9.6913 20.245 18.385 25.383 25.853 7.4749 10.864 14.649 33.166 15.541 48.313 0.4914 8.3436 0.2377 10.596-2.0847 18.5-1.4543 4.95-3.5004 14.625-4.5468 21.5-3.1711 20.833-9.7289 50.583-14.879 67.5-2.6791 8.8-5.448 18.475-6.1531 21.5-1.7196 7.3773-4.6907 13.563-7.3522 15.307-3.0311 1.9861-7.7376 2.7587-10.339 1.6973zm-540.82-121.12c10.97-1.0578 41.872-6.9304 47.194-8.969 1.543-0.591 8.4305-2.4218 15.306-4.0684s16.1-4.5889 20.5-6.5384 14.151-5.7201 21.669-8.3791 21.468-8.3865 31-12.728 19.556-8.7088 22.275-9.7055c3.8009-1.3933 7.8458-4.6113 17.5-13.922 22.61-21.806 35.146-31.852 56.544-45.312 27.976-17.598 39.282-26.144 61.013-46.118 4.4-4.0446 12.33-10.2 17.621-13.678 6.3679-4.1855 11.609-8.63 15.5-13.144 18.761-21.764 33.553-34.97 47.405-42.324 13.431-7.1296 27.244-22.317 42.08-46.266 2.806-4.5297 9.0446-12.286 13.864-17.236 10.174-10.451 12.174-13.312 22.02-31.5 4.0194-7.425 11.062-19.512 15.65-26.861s8.114-13.73 7.8353-14.18c-1.0079-1.6309-22.206-9.28-31.975-11.538-5.5-1.2711-14.03-3.2299-18.956-4.3528-4.9255-1.1229-12.35-3.6573-16.5-5.632-4.1494-1.9748-11.594-4.8504-16.544-6.3903-4.95-1.5398-13.546-4.2003-19.101-5.912-11.08-3.4137-14.484-5.5126-16.385-10.1-0.6911-1.6686-1.8883-3.0339-2.6603-3.0339s-4.5008 1.5597-8.2863 3.4661c-7.9961 4.0267-13.357 4.99-36.067 6.4805-23.35 1.5325-41.452 2.8789-56.5 4.2024-9.4753 0.8334-24.116 0.8755-54 0.1551l-41-0.9884-9.5-3.121c-5.225-1.7166-17.6-4.6846-27.5-6.5957-27.245-5.2593-53.929-13.935-74.909-24.354-7.8185-3.883-9.4372-4.3452-13.227-3.7769-3.03 0.4543-5.3317 0.1667-7.7149-0.9642-3.3596-1.5943-3.51-1.5608-13.773 3.0635-5.707 2.5714-15.492 5.9719-21.744 7.5566-15.666 3.9711-26.984 4.5445-46.631 2.3627-11.884-1.3198-19.717-1.616-30.462-1.1519-20.406 0.8813-27.529-0.85-43.112-10.48-19.535-12.071-21.653-13.614-23.06-16.791-0.746-1.6853-1.6271-3.0643-1.9579-3.0643-0.3307 0-4.7658 6.0632-9.8556 13.474-5.0899 7.4106-10.953 15.009-13.03 16.885-11.985 10.828-29.264 14.47-42.025 8.8593-8.0906-3.5573-56.286-4.8452-91-2.4317-16.069 1.1172-19.946 1.0835-29.5-0.2563-6.05-0.8484-13.265-2.1988-16.033-3.0009-12.971-3.7591-26.608-5.6607-46.967-6.5495-19.863-0.8671-24.646-1.5155-39-5.2867-9.8771-2.5951-17.581-3.1068-21.532-1.4302-1.9074 0.8094-6.6033 4.0561-10.435 7.2149-14.068 11.596-16.657 12.996-48.282 26.112-4.5373 1.8818-12.637 5.8469-18 8.8114s-14.872 7.529-21.131 10.143c-6.2593 2.6143-15.538 7.4988-20.619 10.854s-10.015 6.556-10.964 7.112c-1.6232 0.951-1.6294 1.5728-0.105 10.5 4.1437 24.266 11.502 40.764 25.504 57.181 3.8971 4.5693 8.9516 11.908 11.232 16.308 4.2415 8.1828 31.692 50.038 56.402 86 10.191 14.832 31.436 35.566 48.43 47.268 4.125 2.8403 13.35 9.9242 20.5 15.742 21.556 17.539 29.569 23.311 39 28.094 18.788 9.5262 42.025 23.3 55.856 33.107 11.781 8.3539 13.742 9.3189 30.845 15.181 7.8645 2.6955 18.124 6.7348 22.799 8.9761 9.7629 4.6806 28.831 10.661 40.5 12.702 9.8248 1.7184 29.962 7.1844 46.046 12.499 13.039 4.3081 20.142 5.3001 48.974 6.8391 14.309 0.7638 16.979 1.2 25 4.0845 11.675 4.1986 25.493 5.7267 62.84 6.9493 15.873 0.5197 29.076 1.1605 29.339 1.4242 0.6463 0.6463 18.256-0.1724 31.801-1.4784zm524.15-444.89c2.7569-15.892 2.7231-25.04-0.1566-42.5-2.1369-12.956-1.8688-22.598 0.9968-35.852 1.3689-6.3315 2.7461-15.48 3.0605-20.33 0.6832-10.541 1.8593-18.758 4.9838-34.818 3.304-16.983 3.8941-25.107 2.5967-35.748-0.6204-5.0888-2.0524-17.577-3.1823-27.752-2.4391-21.965-3.9654-29.298-7.91-38-1.8134-4.0006-3.7455-11.114-5.0246-18.5-1.1431-6.6-3.3907-17.175-4.9947-23.5s-4.3436-17.8-6.088-25.5-4.9008-18.573-7.0141-24.162c-2.1134-5.5894-5.1877-15.489-6.8319-22-3.4689-13.736-7.5672-24.18-13.082-33.338-6.0414-10.032-9.8497-19.191-12.391-29.8-1.2779-5.335-3.5319-12.625-5.0089-16.2-1.4769-3.575-5.1881-15.275-8.2469-26-7.4722-26.199-10.438-33.987-16.407-43.079-6.0177-9.1661-13.407-26.031-20.119-45.921-13.385-39.662-20.668-50.928-59.472-92-5.4561-5.775-11.444-12.75-13.305-15.5-7.3212-10.813-16.265-19.489-33.463-32.461-9.5311-7.189-19.668-15.543-22.526-18.565s-8.2128-7.9012-11.899-10.843c-7.3936-5.8992-12.6-12.223-19.57-23.772-5.2442-8.6888-6.3453-9.5716-17.213-13.799-4.335-1.6862-12.382-5.5377-17.882-8.559-5.5-3.0212-14.871-8.0826-20.824-11.247-14.164-7.5298-32.818-19.687-39.492-25.739-2.9238-2.6507-7.1395-7.5048-9.3682-10.787-3.6377-5.3567-4.8968-6.3574-12.305-9.7801-4.5391-2.097-11.348-4.7457-15.132-5.886-9.6223-2.8999-44.973-10.063-49.662-10.063-2.1359 0-7.5584 0.99489-12.05 2.2109-10.955 2.9657-29.696 2.9853-54.667 0.0573-32.323-3.7902-45.087-5.0906-61.5-6.2658-8.8-0.6301-22.272-2.0359-29.938-3.1241-25.689-3.6466-30.689-3.8633-51.562-2.2348l-19.5 1.5213-20.5 6.8337c-11.275 3.7585-22.975 7.9355-26 9.2822-7.8897 3.5124-17.324 5.6504-29.743 6.7402-13.158 1.1546-19.485 2.3145-24.757 4.5382-2.2 0.92793-10.114 2.9322-17.588 4.4539-12.774 2.6011-14.66 3.309-31.5 11.819-19.795 10.004-26.631 14.953-36.141 26.168-13.273 15.651-17.682 19.674-31.271 28.54-29.508 19.251-40.666 26.894-44.308 30.348-6.5102 6.1744-24.739 31.836-29.806 41.961-5.3304 10.65-9.8305 16.971-22.146 31.11-22.537 25.874-22.704 26.159-27.277 46.689-2.0069 9.0094-4.1965 15.163-9.1338 25.667-8.7994 18.721-11.052 25.792-13.418 42.113-1.5255 10.524-3.4684 18.348-7.947 32-5.5678 16.973-7.5762 25.491-11.451 48.57-3.7119 22.11-11.541 51.806-19.59 74.304-2.203 6.1579-4.4121 12.996-4.9091 15.196-1.2795 5.6644-7.5205 39.648-10.009 54.5-1.1518 6.875-3.6463 17.675-5.5432 24-2.684 8.9495-3.6748 14.547-4.4673 25.24-0.5601 7.5568-1.7077 17.007-2.5504 21-0.8426 3.9932-2.4332 13.412-3.5346 20.931s-4.2409 23.269-6.9767 35c-2.7357 11.731-5.4365 25.604-6.0018 30.829-0.5652 5.225-1.6686 13.325-2.4519 18-3.7108 22.148-4.818 39.219-4.7673 73.5 0.082 55.173 0.065 54.5 1.337 54.5 1.2975 0 2.9134-1.2091 24.95-18.669 21.958-17.397 38.506-27.567 58.327-35.845l6.827-2.8514-0.6788-3.5673c-1.4604-7.6743-2.349-15.463-1.8553-16.261 0.2851-0.46121 1.0137-0.53241 1.6191-0.15822 0.7457 0.46083 0.8459 0.0627 0.3107-1.2337-3.8167-9.2456-3.9638-10.652-3.9661-37.914v-27l3.172-9.5c1.7446-5.225 4.0698-12.797 5.167-16.827 2.4991-9.1783 4.7476-13.195 15.957-28.505 26.815-36.625 69.333-61.47 109.91-64.223 10.044-0.68138 33.304-4.038 44.717-6.4533 13.656-2.89 23.694-3.3774 33-1.6025 4.4 0.83923 16.1 2.4635 26 3.6094 38.149 4.4159 70.668 16.795 92.935 35.379 9.1864 7.6666 22.322 26.258 24.108 34.122 0.3747 1.65 2.401 5.925 4.5027 9.5 2.4488 4.1652 4.2357 8.83 4.9748 12.987 0.6344 3.5676 2.1949 8.9676 3.4679 12 1.273 3.0324 5.5464 16.988 9.4966 31.013s7.58 26.4 8.0663 27.5c1.815 4.1054 4.9488 19.447 4.9488 24.227 0 5.7196-2.9075 17.74-5.871 24.273l-2.0413 4.5 4.0122 0.70742c4.275 0.75377 4.8719 1.1417 15.468 10.055 10.932 9.1953 13.284 10.007 29.82 10.298 8.5335 0.15 16.805 0.8789 20.924 1.844 8.9362 2.0936 17.564 1.9939 26.188-0.3024 9.7765-2.6034 11.577-3.418 19.769-8.9449 3.9768-2.6828 10.113-6.3322 13.635-8.1098 3.5226-1.7776 8.8579-4.8608 11.856-6.8516l5.4516-3.6197-0.4702-5.5379c-0.6313-7.436 0.6924-17.347 3.6483-27.314 1.3413-4.5231 3.5974-13.174 5.0135-19.224 3.3062-14.126 10.658-37.844 13.328-43 5.2649-10.166 17.715-30.17 22.569-36.262 2.9527-3.706 7.8053-10.309 10.784-14.673 4.7017-6.8895 6.6664-8.7546 14.915-14.159 5.225-3.4232 12.875-8.0379 17-10.255 10.365-5.5712 33.066-14.579 41.5-16.468 9.2083-2.0619 30.563-5.039 37.5-5.228 3.025-0.0824 8.875-0.85528 13-1.7175 14.89-3.1123 20.948-3.19 30.68-0.39345 4.8508 1.3938 14.478 3.2382 21.395 4.0987 11.812 1.4696 36.566 6.669 47.165 9.9066 7.4711 2.2821 12.822 5.9295 20.397 13.904 13.238 13.936 16.104 19.642 19.314 38.457 1.2139 7.1145 4.2194 18.364 7.475 27.98 2.9947 8.8446 5.9531 18.945 6.5743 22.445 0.6211 3.5003 3.3134 12.889 5.9828 20.864 5.5177 16.484 6.5161 21.056 7.9885 36.583 1.0614 11.193 3.3087 21.845 5.0519 23.945 0.8652 1.0425 2.7947 1.7504 12.839 4.7104 2.091 0.6162 3.9815 2.1191 5 3.9747 3.3153 6.0404 5.0793 7.6015 9.3917 8.3116 2.3353 0.38451 5.821 1.37 7.746 2.19 7.6666 3.2658 22.879 8.5778 29.5 10.301 3.85 1.0019 13.226 3.3965 20.836 5.3212 8.3785 2.1191 17.056 5.0848 22 7.5187 12.53 6.1689 21.043 9.8213 26.863 11.526 3.4557 1.0119 7.1449 3.1719 10.599 6.2054 2.9141 2.5593 7.1891 5.2156 9.5 5.9031 5.2155 1.5514 4.9516 2.1041 8.3505-17.489zm-518.7-265.58c-3.8704-1.6088-6.9494-5.8622-6.9494-9.5999 0-1.3036 2.0228-7.1705 4.4951-13.038 6.0519-14.362 7.7357-26.333 5.0824-36.136-2.2439-8.2893-6.599-15.573-15.775-26.381-9.4507-11.132-11.775-12.766-24.564-17.271-14.265-5.0248-17.537-5.3956-31.739-3.5967-24.6 3.1159-39.188 10.066-58.859 28.041-5.698 5.2067-10.936 10.859-11.641 12.56-1.3483 3.2551-5.4644 5.9987-8.9995 5.9987-3.5638 0-7.6553-2.7536-9.0328-6.0791-1.6408-3.9613-0.1293-10.531 3.5253-15.322 3.9246-5.1453 24.166-23.405 30.283-27.318 8.0447-5.1462 25.03-13.074 32.94-15.376 3.7313-1.0856 12.847-2.8423 20.258-3.9039 15.778-2.2602 21.441-1.7803 36.735 3.1132 20.449 6.5428 26.47 10.769 40.765 28.612 16.798 20.967 21.66 36.143 18.45 57.582-1.3031 8.7023-2.783 13.696-7.1693 24.192-4.7384 11.338-5.5044 12.498-9.3022 14.085-4.0598 1.6963-4.0262 1.697-8.5022-0.16361zm133.05-226.89c-5.8618-2.2217-18.068-9.3428-22.792-13.297-8.1644-6.834-13.622-10.783-23.091-16.71-5.5537-3.4759-12.288-8.8509-16.5-13.17-9.0151-9.2438-14.628-11.66-42.617-18.349-25.478-6.0888-29.306-6.6884-51-7.988-38.342-2.2969-58.798-2.7632-87.5-1.9948-25.34 0.67841-31.165 1.1193-37.5 2.8384-4.125 1.1194-11.837 2.4743-17.138 3.011-10.69 1.0823-16.883 2.7154-40.362 10.644-9.8474 3.3255-20.709 6.1964-28.245 7.4658-14.194 2.3908-15.458 2.8059-22.755 7.4735-4.7858 3.0614-5.9474 4.5024-9.4842 11.766-4.6411 9.5311-10.483 17.666-14.048 19.563-1.588 0.84485-4.5715 1.1464-8.3642 0.84544-8.1539-0.64708-11.104-3.5528-11.104-10.936 0-4.5167 0.7346-6.5322 5.2015-14.272 2.8608-4.9569 6.3628-12.689 7.7823-17.182 5.0048-15.843 17.371-30.45 42.02-49.633 8.6987-6.7699 20.43-17.396 30.996-28.076 23.985-24.243 26.224-25.589 57.272-34.42 11.556-3.2867 25.222-7.7633 30.37-9.9479 12.294-5.218 14.21-5.6643 35.358-8.2366 35.015-4.2589 72.702-0.47585 89.914 9.0256 4.2278 2.3338 11.702 5.2831 16.843 6.6463 18.648 4.9446 24.703 7.4467 35.631 14.725 16.946 11.287 25.503 20.885 41.612 46.676 4.2941 6.875 13.132 19.7 19.64 28.5 9.0036 12.174 13.506 19.418 18.83 30.296 3.8484 7.8629 8.2928 16.188 9.8765 18.5 9.3566 13.66 9.5441 22.553 0.5545 26.309-3.978 1.6621-4.8408 1.6554-9.4014-0.0731zm-25.59-45.783c-0.3893-0.6875-6.2141-8.675-12.944-17.75s-15.872-22.35-20.315-29.5c-11.56-18.601-19.664-28.418-29.426-35.651-10.316-7.6431-16.849-10.646-33.225-15.271-7.8842-2.227-15.947-5.2892-20.488-7.7816-11.186-6.1391-23.704-8.6093-47.512-9.3758-15.812-0.50907-21.728-0.26844-35.263 1.4343-14.138 1.7788-17.469 2.5612-25.5 5.9906-9.3825 4.0066-20.038 7.4515-40.737 13.171-17.708 4.8927-20.662 6.8504-41.868 27.753-10.247 10.1-23.582 22.108-29.632 26.684-12.562 9.5007-20.804 16.576-20.114 17.266 0.7817 0.78171 20.766-2.6407 27.159-4.651 3.2755-1.0301 10.477-3.4762 16.004-5.4358 14.914-5.2884 27.814-8.5413 38.242-9.6436 5.1095-0.54013 12.76-1.9292 17-3.0869 6.7552-1.8442 12.231-2.2304 44.21-3.1182 26.574-0.73779 41.667-0.70023 55.5 0.13811 10.45 0.6333 26.384 1.5881 35.408 2.1217 24.484 1.4478 64.05 10.14 82.84 18.2 8.7133 3.7372 10.722 5.1272 18.867 13.054 10.739 10.452 24.479 20.194 21.794 15.453zm-783.14 548.87c2.5226-0.7592 6.037-2.4132 7.8097-3.6755 1.7728-1.2623 7.9525-3.9036 13.733-5.8696 9.4787-3.224 10.896-4.0337 14.454-8.2555l3.9448-4.6809-0.1503-21.862c-0.1581-22.991 1.9178-59.541 4.5311-79.777 0.8523-6.6 2.3711-18.3 3.3751-26s4.1495-23.9 6.99-36c2.8404-12.1 6.0413-28.3 7.113-36s2.6213-17.319 3.4435-21.375c0.8223-4.0564 1.7333-11.256 2.0246-16 0.2913-4.7436 0.7297-10.528 0.9744-12.855l0.4448-4.2304-10.728 8.3745c-12.104 9.4485-16.804 14.254-33.377 34.121-6.407 7.6808-15.994 19.14-21.303 25.465s-13.094 15.775-17.297 21c-4.2035 5.225-11.322 13.435-15.82 18.245-4.8245 5.1594-9.6543 11.556-11.78 15.6-1.9811 3.7702-6.0428 10.985-9.0258 16.033-2.983 5.0481-7.0981 13.778-9.1445 19.4s-5.4213 14.272-7.4997 19.222c-2.0785 4.95-5.0619 13.95-6.63 20-2.5923 10.002-2.8461 12.497-2.7972 27.5l0.0538 16.5 4.2586 8.5c2.3422 4.675 5.468 9.7795 6.9462 11.343 3.8253 4.0468 11.156 7.5718 22.688 10.909 5.5 1.5917 12.025 3.5057 14.5 4.2535 5.9544 1.7991 22.449 1.8657 28.269 0.1143zm919.23-8.0276c8.25-1.3937 19.5-3.4886 25-4.6554 5.5-1.1667 15.315-2.3677 21.812-2.6688 16.846-0.7809 16.304-0.1054 14.844-18.502-0.6359-8.0095-1.1564-20.571-1.1567-27.914-9e-4 -22.288-1.877-49.053-4.0276-57.462-2.196-8.5865-8.4679-19.583-20.847-36.551-5.2203-7.1557-9.1825-14.05-12.563-21.86-7.7469-17.897-11.544-20.728-34.235-25.519-9.8138-2.0722-38.093-2.4349-46.828-0.60055-3.3 0.69306-15 1.641-26 2.1064-16.343 0.69155-21.829 1.3184-30 3.4281-7.6425 1.9731-10.487 3.1824-12.066 5.1296-1.1363 1.4013-4.2609 3.9942-6.9435 5.7621-3.1118 2.0507-5.9867 5.1123-7.9419 8.4575-1.6855 2.8838-4.7168 6.3661-6.7363 7.7384-4.2379 2.8797-24.548 26.505-28.322 32.945-4.4007 7.5092-5.4889 15.77-4.8835 37.073 0.6841 24.069 3.5529 46.115 6.9031 53.047 1.3415 2.776 5.7132 8.4671 9.7148 12.647 5.9673 6.2332 7.995 7.7231 11.276 8.2852 2.2 0.377 11.32 3.1108 20.266 6.0751s20.3 6.0896 25.231 6.9451 11.111 2.5158 13.734 3.6895c4.0883 1.8297 7.6224 2.2499 24.769 2.9454 11 0.4461 21.8 1.2517 24 1.7902 6.4572 1.5805 28.645 0.4304 45-2.3326zm-63.896-31.567c-10.716-2.5123-13.472-5.3238-18.112-18.478-9.9769-28.282-9.6051-58.761 0.9887-81.047 1.3072-2.75 3.7515-7.9653 5.4318-11.589 5.1443-11.095 17.875-21.387 27.929-22.578 4.5058-0.53364 5.935-0.16288 13.352 3.4638 8.7639 4.2851 11.411 6.5975 16.833 14.704 1.8393 2.75 4.8011 7.1311 6.5817 9.7359 4.8076 7.0328 7.3473 14.812 8.0298 24.596 0.7732 11.084-1.061 31.093-3.6025 39.301-4.4153 14.259-20.526 34.572-32.016 40.369-7.0188 3.5409-14.816 4.0082-25.416 1.5231zm-463.6 16.513c18.146-0.2171 33.133-0.859 37-1.5848 11.195-2.1012 17.154-5.8707 31.5-19.926 7.15-7.0051 15.074-14.13 17.608-15.833 4.8848-3.2818 5.9491-5.1446 8.3729-14.655 1.6678-6.5443 1.886-13.863 0.5973-20.04-2.6495-12.701-5.3595-24.016-7.5441-31.5-1.3646-4.675-3.5802-12.775-4.9236-18-5.7649-22.423-16.846-48.753-25.036-59.491-1.2747-1.6712-6.3432-5.7816-11.263-9.1342-8.2951-5.6523-9.7188-6.2512-19.577-8.2352-11.956-2.4064-28.461-2.818-44.543-1.1108-33.192 3.5234-51.66 6.2178-81.692 11.918-5.5 1.044-13.6 2.444-18 3.1112-4.4 0.66717-10.025 2.0478-12.5 3.0681-2.475 1.0203-7.9631 2.5079-12.196 3.3058-4.2327 0.7979-8.8826 2.2283-10.333 3.1787-2.9216 1.9143-9.5263 9.946-13.638 16.584-1.4665 2.3679-6.1915 8.1789-10.5 12.913s-10.039 12.385-12.735 17c-2.696 4.6155-5.7992 9.7-6.8962 11.299-2.4242 3.5335-4.6839 14.77-4.7446 23.593-0.025 3.575-0.4311 8.5022-0.9033 10.949-0.7017 3.6358-0.3507 6.1954 1.9196 14 1.528 5.2529 3.3183 11.801 3.9785 14.551 3.1708 13.209 11.002 27.069 19.718 34.898 9.6136 8.635 12.83 9.4122 58.33 14.096 11.195 1.1525 35.904 4.13 48.5 5.8444 1.65 0.2246 11.1 0.2185 21-0.013 9.9-0.232 31.725-0.586 48.5-0.7867zm-12.954-26.572c-1.8996-1.6237-4.948-3.2326-6.7742-3.5752-4.27-0.80106-13.595-6.8936-18.986-12.405-5.0664-5.1794-9.9595-17.523-11.491-28.987-1.2969-9.709-0.2154-38.576 1.761-47 1.6255-6.9291 7.3365-19.032 10.735-22.75 1.1311-1.2375 2.8878-2.25 3.9038-2.25 1.0807 0 2.305-1.1409 2.9509-2.75 6.022-15.004 13.437-25.401 20.508-28.756 3.0906-1.4666 5.6702-1.6741 15.909-1.2797 11.281 0.43459 12.632 0.70176 17.578 3.4779 6.1674 3.4613 11.677 10.548 14.93 19.204 1.6044 4.2695 2.3544 9.676 3.1499 22.708 0.9822 16.091 0.9131 17.72-1.1679 27.5-1.2166 5.7177-2.8368 15.121-3.6006 20.896-1.7182 12.993-2.1292 14.373-7.5649 25.409-5.1233 10.402-10.367 16.592-20.693 24.428-14.045 10.657-15.394 11.048-21.149 6.1294zm-440.03-108.27c5.0065-9.5013 8.1019-13.864 15.852-22.342 5.2972-5.7945 13.006-14.742 17.131-19.883 8.2035-10.224 16.664-20.471 42.313-51.246 12.969-15.561 18.911-21.839 25.544-26.988 4.7538-3.6901 11.157-9.2572 14.23-12.371 6.2093-6.2924 15.203-11.863 19.153-11.863 2.4278 0 2.6468-0.42443 3.7399-7.25 1.943-12.132 6.9984-40.634 9.1507-51.592 1.1173-5.6879 5.0973-19.638 8.8444-31s7.5313-23.808 8.4092-27.658 2.9193-12.625 4.5364-19.5 3.6529-17.094 4.524-22.71c2.8661-18.477 5.5287-29.555 11.487-47.79 4.4616-13.655 6.1568-20.535 7.0228-28.5 1.3691-12.593 3.6888-21.625 8.4586-32.935 1.9553-4.6363 3.3566-8.6282 3.114-8.8709-0.7303-0.73026-32.522 29.994-35.498 34.306-1.5183 2.2-3.9003 6.25-5.2933 9-4.3168 8.5214-14.118 22.676-20.741 29.954-7.5295 8.2737-24.694 34.011-29.67 44.489-1.9441 4.0936-9.0564 15.794-15.805 26-11.526 17.432-22.719 38.059-31.587 58.21-2.1079 4.79-6.1674 12.435-9.0211 16.988-6.3032 10.058-18.612 33.081-32.99 61.705-10.01 19.93-10.989 22.418-14.753 37.5-2.217 8.8845-5.0104 22.679-6.2075 30.654-1.1972 7.975-3.2912 19.675-4.6534 26-1.9334 8.9775-2.6572 16.216-3.2996 33-0.4526 11.825-1.1493 23.075-1.5481 25-1.086 5.2409 0.5109 3.0624 7.5554-10.307z"/>
</svg>
